<?xml version="1.0" encoding="UTF-8" standalone="no"?>
<!-- Created with Inkscape (http://www.inkscape.org/) -->
<svg
   xmlns:dc="http://purl.org/dc/elements/1.1/"
   xmlns:cc="http://creativecommons.org/ns#"
   xmlns:rdf="http://www.w3.org/1999/02/22-rdf-syntax-ns#"
   xmlns:svg="http://www.w3.org/2000/svg"
   xmlns="http://www.w3.org/2000/svg"
   xmlns:sodipodi="http://sodipodi.sourceforge.net/DTD/sodipodi-0.dtd"
   xmlns:inkscape="http://www.inkscape.org/namespaces/inkscape"
   width="500"
   height="403.67001"
   id="svg2"
   sodipodi:version="0.32"
   inkscape:version="0.46"
   version="1.0"
   sodipodi:docname="Logo Parti démocrate-chrétien (Suisse).svg"
   inkscape:output_extension="org.inkscape.output.svg.inkscape">
  <defs
     id="defs4">
    <inkscape:perspective
       sodipodi:type="inkscape:persp3d"
       inkscape:vp_x="0 : 526.18109 : 1"
       inkscape:vp_y="0 : 1000 : 0"
       inkscape:vp_z="744.09448 : 526.18109 : 1"
       inkscape:persp3d-origin="372.04724 : 350.78739 : 1"
       id="perspective10" />
    <clipPath
       id="clipPath2416"
       clipPathUnits="userSpaceOnUse">
      <path
         id="path2418"
         d="M 0,0 L 595.28,0 L 595.28,841.89 L 0,841.89 L 0,0 z" />
    </clipPath>
    <inkscape:perspective
       id="perspective2410"
       inkscape:persp3d-origin="372.04724 : 350.78739 : 1"
       inkscape:vp_z="744.09448 : 526.18109 : 1"
       inkscape:vp_y="0 : 1000 : 0"
       inkscape:vp_x="0 : 526.18109 : 1"
       sodipodi:type="inkscape:persp3d" />
  </defs>
  <sodipodi:namedview
     id="base"
     pagecolor="#ffffff"
     bordercolor="#666666"
     borderopacity="1.0"
     inkscape:pageopacity="0.0"
     inkscape:pageshadow="2"
     inkscape:zoom="0.35"
     inkscape:cx="8.5714286"
     inkscape:cy="520"
     inkscape:document-units="px"
     inkscape:current-layer="layer1"
     showgrid="false"
     inkscape:window-width="1280"
     inkscape:window-height="750"
     inkscape:window-x="-8"
     inkscape:window-y="-8" />
  <metadata
     id="metadata7">
    <rdf:RDF>
      <cc:Work
         rdf:about="">
        <dc:format>image/svg+xml</dc:format>
        <dc:type
           rdf:resource="http://purl.org/dc/dcmitype/StillImage" />
      </cc:Work>
    </rdf:RDF>
  </metadata>
  <g
     inkscape:label="Ebene 1"
     inkscape:groupmode="layer"
     id="layer1"
     transform="translate(331.89804,-386.08207)">
    <g
       transform="matrix(1.6113114,0,0,-1.6113114,-573.26262,1296.6274)"
       inkscape:label="Dokument-1"
       id="g2412">
      <g
         clip-path="url(#clipPath2416)"
         id="g2414">
        <g
           id="g2420">
          <g
             transform="translate(156,558.89)"
             id="g2422">
            <path
               id="path2424"
               style="fill:#f6a12b;fill-opacity:1;fill-rule:evenodd;stroke:none"
               d="M 238.111,-238.111 C 238.111,-238.111 0,-238.111 0,-238.111 C 0,-238.111 59.7832,0 59.7832,0 C 59.7832,0 297.894,0 297.894,0 C 297.894,0 238.111,-238.111 238.111,-238.111 z" />
          </g>
        </g>
        <g
           id="g2426">
          <g
             transform="translate(323.116,402.14467)"
             id="g2428">
            <path
               id="path2430"
               style="fill:#ffffff;fill-opacity:1;fill-rule:evenodd;stroke:none"
               d="M 61.623,-14.884 C 55.75,-12.82 49.217,-12.891 43.33,-12.891 C 24.668,-12.891 17.81,-22.734 18.689,-33.398 C 19.533,-43.639 28.543,-46.234 38.211,-46.35 C 44.894,-46.431 48.265,-46.352 53.666,-45.014 C 53.666,-45.014 50.369,-57.442 50.369,-57.442 C 45.879,-58.656 41.601,-59.338 35.314,-59.338 C 12.865,-59.338 0,-48.557 0,-32.99 C 0,-14.188 16.267,-1.012 42.4,-0.359 C 56.785,0 64.898,-2.584 64.898,-2.584 C 64.898,-2.584 61.623,-14.884 61.623,-14.884 z" />
          </g>
        </g>
        <g
           id="g2432">
          <g
             transform="translate(187.3223,400.72767)"
             id="g2434">
            <path
               id="path2436"
               style="fill:#ffffff;fill-opacity:1;fill-rule:nonzero;stroke:none"
               d="M 14.9687,0 C 14.9687,0 33.5263,0 33.5263,0 C 48.7929,0 64.1631,-1.295 64.1631,-15.562 C 64.1631,-29.669 49.9902,-36.8 33.2295,-36.8 C 33.2295,-36.8 23.7461,-36.8 23.7461,-36.8 C 23.7461,-36.8 18.5615,-56.578 18.5615,-56.578 C 18.5615,-56.578 0,-56.578 0,-56.578 C 0,-56.578 14.9687,0 14.9687,0 z M 26.5439,-26.101 C 26.5439,-26.101 31.5312,-26.101 31.5312,-26.101 C 38.917,-26.101 45.6015,-23.991 45.6015,-17.264 C 45.6015,-11.833 41.0117,-10.7 36.0224,-10.7 C 36.0224,-10.7 30.5332,-10.7 30.5332,-10.7 C 30.5332,-10.7 26.5439,-26.101 26.5439,-26.101 z" />
          </g>
        </g>
        <g
           id="g2438">
          <g
             transform="translate(246.2881,401.38767)"
             id="g2440">
            <path
               id="path2442"
               style="fill:#ffffff;fill-opacity:1;fill-rule:nonzero;stroke:none"
               d="M 21.4229,-45.856 C 21.4229,-45.856 29.4809,-45.856 29.4809,-45.856 C 47.4639,-45.856 54.4399,-34.637 54.4399,-23.992 C 54.4399,-13.511 45.7939,-11.3 34.5909,-11.3 C 34.5909,-11.3 30.0699,-11.3 30.0699,-11.3 C 30.0699,-11.3 21.4229,-45.856 21.4229,-45.856 z M 14.5439,0 C 14.5439,0 38.3239,0 38.3239,0 C 60.1409,0 73.3079,-7.696 73.3079,-22.929 C 73.3079,-46.839 55.3249,-57.157 29.5789,-57.157 C 29.5789,-57.157 0,-57.157 0,-57.157 C 0,-57.157 14.5439,0 14.5439,0 z" />
          </g>
        </g>
        <g
           id="g2444">
          <g
             transform="translate(367.828,533.52867)"
             id="g2446">
            <path
               id="path2448"
               style="fill:#ffffff;fill-opacity:1;fill-rule:evenodd;stroke:none"
               d="M 79.728,0 C 79.728,0 52.759,0 52.759,0 C 52.759,0 43.746,-32.0156 43.746,-32.0156 C 43.746,-32.0156 10.759,-32.0156 10.759,-32.0156 C 10.759,-32.0156 0,-66.0322 0,-66.0322 C 0,-66.0322 34.17,-66.0322 34.17,-66.0322 C 34.17,-66.0322 24.031,-102.047 24.031,-102.047 C 24.031,-102.047 54.107,-102.047 54.107,-102.047 C 54.107,-102.047 79.728,0 79.728,0 z" />
          </g>
        </g>
      </g>
    </g>
  </g>
</svg>
