<?xml version="1.0" encoding="UTF-8" standalone="no"?>
<!-- Created with Inkscape (http://www.inkscape.org/) -->
<svg
   xmlns:dc="http://purl.org/dc/elements/1.1/"
   xmlns:cc="http://creativecommons.org/ns#"
   xmlns:rdf="http://www.w3.org/1999/02/22-rdf-syntax-ns#"
   xmlns:svg="http://www.w3.org/2000/svg"
   xmlns="http://www.w3.org/2000/svg"
   xmlns:sodipodi="http://sodipodi.sourceforge.net/DTD/sodipodi-0.dtd"
   xmlns:inkscape="http://www.inkscape.org/namespaces/inkscape"
   width="500"
   height="528.78003"
   id="svg2"
   sodipodi:version="0.32"
   inkscape:version="0.46"
   version="1.0"
   sodipodi:docname="Logo PS Suisse.svg"
   inkscape:output_extension="org.inkscape.output.svg.inkscape">
  <defs
     id="defs4">
    <inkscape:perspective
       sodipodi:type="inkscape:persp3d"
       inkscape:vp_x="0 : 526.18109 : 1"
       inkscape:vp_y="0 : 1000 : 0"
       inkscape:vp_z="744.09448 : 526.18109 : 1"
       inkscape:persp3d-origin="372.04724 : 350.78739 : 1"
       id="perspective10" />
    <clipPath
       id="clipPath2416"
       clipPathUnits="userSpaceOnUse">
      <path
         id="path2418"
         d="M 0,0 L 595.28,0 L 595.28,841.89 L 0,841.89 L 0,0 z" />
    </clipPath>
    <inkscape:perspective
       id="perspective2410"
       inkscape:persp3d-origin="372.04724 : 350.78739 : 1"
       inkscape:vp_z="744.09448 : 526.18109 : 1"
       inkscape:vp_y="0 : 1000 : 0"
       inkscape:vp_x="0 : 526.18109 : 1"
       sodipodi:type="inkscape:persp3d" />
  </defs>
  <sodipodi:namedview
     id="base"
     pagecolor="#ffffff"
     bordercolor="#666666"
     borderopacity="1.0"
     inkscape:pageopacity="0.0"
     inkscape:pageshadow="2"
     inkscape:zoom="0.49497475"
     inkscape:cx="38.697588"
     inkscape:cy="541.75778"
     inkscape:document-units="px"
     inkscape:current-layer="layer1"
     showgrid="false"
     inkscape:window-width="1280"
     inkscape:window-height="750"
     inkscape:window-x="-8"
     inkscape:window-y="-8" />
  <metadata
     id="metadata7">
    <rdf:RDF>
      <cc:Work
         rdf:about="">
        <dc:format>image/svg+xml</dc:format>
        <dc:type
           rdf:resource="http://purl.org/dc/dcmitype/StillImage" />
      </cc:Work>
    </rdf:RDF>
  </metadata>
  <g
     inkscape:label="Ebene 1"
     inkscape:groupmode="layer"
     id="layer1"
     transform="translate(-165.37993,72.587569)">
    <g
       transform="matrix(5.6444624,0,0,-5.6444624,-1709.909,3221.86)"
       inkscape:label="Dokument-1"
       id="g2412">
      <g
         clip-path="url(#clipPath2416)"
         id="g2414">
        <g
           id="g2420">
          <g
             transform="translate(334,581.89)"
             id="g2422">
            <path
               id="path2424"
               style="fill:#e52935;fill-opacity:1;fill-rule:nonzero;stroke:none"
               d="M 80.4091,-9.63285 C 80.417,-9.63675 80.4248,-9.63865 80.4326,-9.64255 C 80.5634,-9.70505 80.6923,-9.76465 80.8183,-9.83395 C 75.3515,-6.86035 69.8857,-3.88672 64.4199,-0.91309 C 64.3291,-0.86328 64.2353,-0.81543 64.1425,-0.76953 C 64.1084,-0.75293 64.0713,-0.74024 64.0371,-0.72363 C 63.8857,-0.65332 63.7324,-0.58789 63.5761,-0.52735 C 63.5146,-0.50195 63.4541,-0.47559 63.3906,-0.45313 C 63.1728,-0.37305 62.9502,-0.30274 62.7236,-0.24414 C 62.7177,-0.24317 62.7119,-0.24024 62.706,-0.23828 C 62.6748,-0.23047 62.6396,-0.22656 62.6064,-0.21875 C 62.4209,-0.17285 62.2334,-0.13476 62.042,-0.10254 C 61.9658,-0.08984 61.8857,-0.08105 61.8076,-0.07031 C 61.6494,-0.0498 61.4912,-0.03223 61.331,-0.02148 C 61.2451,-0.01465 61.1591,-0.00976 61.0732,-0.00684 C 60.9082,0 60.7412,0 60.5732,-0.00391 C 60.4951,-0.00586 60.417,-0.00586 60.3388,-0.00976 C 60.0927,-0.02148 59.8447,-0.04297 59.5947,-0.07812 C 59.5947,-0.07812 9.20313,-7.16016 9.20313,-7.16016 C 8.92286,-7.2002 8.64551,-7.25684 8.37207,-7.32324 C 8.29395,-7.3418 8.21778,-7.36328 8.14063,-7.38281 C 7.93067,-7.43945 7.72168,-7.50391 7.51661,-7.57422 C 7.44825,-7.59766 7.37989,-7.62012 7.31348,-7.64453 C 7.0625,-7.73828 6.81446,-7.83789 6.57227,-7.95117 C 6.55957,-7.95703 6.54883,-7.96485 6.53614,-7.9707 C 6.46582,-8.00391 6.39747,-8.04492 6.32715,-8.08008 C 6.12989,-8.17969 5.93457,-8.28125 5.74317,-8.39356 C 5.64649,-8.45117 5.55372,-8.51367 5.45801,-8.5752 C 5.33692,-8.65039 5.21387,-8.72168 5.09668,-8.80274 C 5.06934,-8.82227 5.04493,-8.84668 5.01758,-8.86524 C 4.68262,-9.10254 4.36036,-9.35645 4.05079,-9.63085 C 4.03223,-9.64645 4.0127,-9.65915 3.99414,-9.67575 C 3.94434,-9.72075 3.90137,-9.77345 3.85157,-9.81935 C 3.625,-10.0312 3.40723,-10.2519 3.19629,-10.4824 C 3.15332,-10.5292 3.1045,-10.5703 3.06153,-10.6171 C 3.02637,-10.6582 2.99707,-10.7031 2.96192,-10.7441 C 2.73536,-11.0078 2.51856,-11.2812 2.31543,-11.5644 C 2.292,-11.5986 2.2627,-11.6289 2.23731,-11.663 C 2.23243,-11.6709 2.22852,-11.6796 2.22364,-11.6865 C 1.98536,-12.0273 1.76856,-12.3847 1.56641,-12.7519 C 1.54395,-12.7929 1.51661,-12.8291 1.49317,-12.8701 C 1.43262,-12.9824 1.38086,-13.0996 1.32325,-13.2148 C 1.27442,-13.3125 1.22364,-13.4111 1.17676,-13.5117 C 1.08106,-13.7187 0.99414,-13.9296 0.91016,-14.1425 C 0.88086,-14.2167 0.84766,-14.289 0.81934,-14.3632 C 0.81543,-14.3769 0.80859,-14.3906 0.80371,-14.4023 C 0.74512,-14.5634 0.69824,-14.7285 0.64648,-14.8925 C 0.60352,-15.0283 0.55469,-15.1621 0.5166,-15.2988 C 0.46484,-15.4843 0.42676,-15.6738 0.38379,-15.8632 C 0.35449,-15.9951 0.31934,-16.125 0.29395,-16.2597 C 0.25488,-16.4687 0.23145,-16.6806 0.2041,-16.8925 C 0.18945,-17.0078 0.16699,-17.123 0.15625,-17.2382 C 0.125,-17.5683 0.1084,-17.9003 0.10742,-18.2324 C 0.10742,-18.2324 0.00684,-72.621 0.00684,-72.621 C 0,-76.0947 1.69239,-78.9199 4.23243,-80.3017 C 9.69825,-83.2753 15.164,-86.249 20.6308,-89.2226 C 20.5976,-89.205 20.5693,-89.1816 20.5381,-89.1621 C 21.958,-89.9628 23.6494,-90.3125 25.4638,-90.0576 C 25.4638,-90.0576 75.8554,-82.9755 75.8554,-82.9755 C 80.8466,-82.2744 84.9345,-77.2968 84.9453,-71.9101 C 84.9453,-71.9101 85.0459,-17.5214 85.0459,-17.5214 C 85.0527,-13.8632 83.1757,-10.9257 80.4091,-9.63285 z" />
          </g>
        </g>
        <g
           id="g2426">
          <g
             transform="translate(348.25584,547.17715)"
             id="g2428">
            <path
               id="path2430"
               style="fill:#ffffff;fill-opacity:1;fill-rule:evenodd;stroke:none"
               d="M 16.3037,-5.9034 C 16.3037,-1.9678 13.4922,0 9.5567,0 C 9.5567,0 0.2813,0 0.2813,0 C 0.2813,0 0,-0.2813 0,-0.2813 C 0,-0.2813 0,-19.3956 0,-19.3956 C 0,-19.3956 0.2813,-19.6768 0.2813,-19.6768 C 0.2813,-19.6768 3.6543,-19.6768 3.6543,-19.6768 C 3.6543,-19.6768 3.9356,-19.3956 3.9356,-19.3956 C 3.9356,-19.3956 3.9356,-12.087 3.9356,-12.087 C 3.9356,-12.087 4.2158,-11.8057 4.2158,-11.8057 C 4.2158,-11.8057 9.5567,-11.8057 9.5567,-11.8057 C 13.4922,-11.8057 16.3037,-9.8389 16.3037,-5.9034 z M 12.3682,-5.9034 C 12.3682,-7.8711 11.2432,-8.4327 9.5567,-8.4327 C 9.5567,-8.4327 4.2158,-8.4327 4.2158,-8.4327 C 4.2158,-8.4327 3.9356,-8.1514 3.9356,-8.1514 C 3.9356,-8.1514 3.9356,-3.6543 3.9356,-3.6543 C 3.9356,-3.6543 4.2158,-3.3731 4.2158,-3.3731 C 4.2158,-3.3731 9.5567,-3.3731 9.5567,-3.3731 C 11.2432,-3.3731 12.3682,-3.9356 12.3682,-5.9034 z" />
          </g>
        </g>
        <g
           id="g2432">
          <g
             transform="translate(366.38084,547.45835)"
             id="g2434">
            <path
               id="path2436"
               style="fill:#ffffff;fill-opacity:1;fill-rule:evenodd;stroke:none"
               d="M 16.3037,-14.3359 C 16.3037,-10.4004 13.2119,-8.7139 9.2764,-8.1523 C 5.3408,-7.5898 4.2168,-7.0273 4.2168,-5.3408 C 4.2168,-4.2168 5.0606,-3.373 7.5899,-3.373 C 10.6817,-3.373 11.5254,-4.2168 11.5254,-5.9033 C 11.5254,-5.9033 11.8067,-6.1846 11.8067,-6.1846 C 11.8067,-6.1846 15.1797,-6.1846 15.1797,-6.1846 C 15.1797,-6.1846 15.461,-5.9033 15.461,-5.9033 C 15.461,-2.5303 13.2119,0 7.8711,0 C 2.5303,0 0.2813,-2.5303 0.2813,-5.3408 C 0.2813,-9.2764 3.3731,-10.6816 7.3086,-11.2441 C 11.2442,-11.8066 12.3682,-12.3682 12.3682,-14.3359 C 12.3682,-16.0225 10.9629,-16.8662 8.4336,-16.8662 C 5.0606,-16.8662 3.9356,-15.7412 3.9356,-13.7734 C 3.9356,-13.7734 3.6543,-13.4932 3.6543,-13.4932 C 3.6543,-13.4932 0.2813,-13.4932 0.2813,-13.4932 C 0.2813,-13.4932 0,-13.7734 0,-13.7734 C 0,-17.4277 2.5303,-20.2393 8.1524,-20.2393 C 14.0547,-20.2393 16.3037,-17.4277 16.3037,-14.3359 z" />
          </g>
        </g>
        <g
           id="g2438">
          <g
             transform="translate(392.73924,547.55405)"
             id="g2440">
            <path
               id="path2442"
               style="fill:#ffffff;fill-opacity:1;fill-rule:nonzero;stroke:none"
               d="M 1.6973,-14.3652 C 1.6973,-14.3652 1.6856,-14.3721 1.6856,-14.3721 C 1.6856,-14.3721 1.6973,-14.3672 1.6973,-14.3672 C 1.6973,-14.3652 1.6973,-14.3652 1.6973,-14.3652 z M 11.6231,-8.7334 C 11.6231,-8.7334 11.5947,-8.7217 11.5947,-8.7217 C 11.5947,-8.7217 11.6221,-8.7353 11.6221,-8.7353 C 11.6221,-8.7353 11.6221,-8.7334 11.6231,-8.7334 z M 9.8213,-7.9287 C 9.8213,-7.9287 9.8272,-7.9453 9.8272,-7.9453 C 9.8272,-7.9453 9.8242,-7.9316 9.8242,-7.9316 C 9.8242,-7.9316 9.8213,-7.9287 9.8213,-7.9287 z M 1.6973,-14.3623 C 1.6973,-14.3623 1.6856,-14.3652 1.6856,-14.3652 C 1.6856,-14.3652 1.6973,-14.3652 1.6973,-14.3652 C 1.6973,-14.3652 1.6973,-14.3623 1.6973,-14.3623 z M 6.6621,-12.1924 C 6.6621,-12.1924 6.6572,-12.1807 6.6572,-12.1807 C 6.6572,-12.1807 6.6602,-12.1924 6.6602,-12.1924 C 6.6621,-12.1924 6.6621,-12.1924 6.6621,-12.1924 z M 4.2813,-8.8262 C 4.2813,-8.8262 4.2813,-8.8389 4.2813,-8.8389 C 4.2813,-8.8389 4.2842,-8.8262 4.2842,-8.8262 C 4.2832,-8.8262 4.2813,-8.8262 4.2813,-8.8262 z M 10.9981,-5.5517 C 10.9981,-5.5517 10.9864,-5.5517 10.9864,-5.5517 C 10.9864,-5.5517 10.9971,-5.5537 10.9971,-5.5537 C 10.9971,-5.5537 10.9981,-5.5517 10.9981,-5.5517 z M 11.4522,-11.2959 C 11.4522,-11.2959 11.4258,-11.3115 11.4258,-11.3115 C 11.4258,-11.3115 11.4531,-11.3008 11.4531,-11.3008 C 11.4531,-11.3008 11.4522,-11.2959 11.4522,-11.2959 z M 3.3731,-12.3017 C 3.3731,-12.3017 3.4004,-12.3017 3.4004,-12.3017 C 3.4004,-12.3017 3.374,-12.3008 3.374,-12.3008 L 3.3731,-12.3017 z M 11.9551,-11.0771 C 11.9551,-11.0771 11.9766,-11.0566 11.9766,-11.0566 C 11.9766,-11.0566 11.9551,-11.0771 11.9551,-11.0771 z M 3.627,-4.5381 C 3.627,-4.5381 3.6387,-4.5439 3.6387,-4.5439 C 3.6387,-4.5439 3.628,-4.5371 3.628,-4.5371 C 3.628,-4.5371 3.628,-4.5381 3.627,-4.5381 z M 11.9551,-8.9014 C 11.9551,-8.9014 11.9541,-8.9033 11.9541,-8.9033 C 11.9541,-8.9033 11.9815,-8.9121 11.9815,-8.9121 C 11.9815,-8.9121 11.9551,-8.9014 11.9551,-8.9014 z M 2.0371,-15.3086 C 2.0371,-15.3086 2.0332,-15.2978 2.0332,-15.2978 C 2.0332,-15.2978 2.0332,-15.3057 2.0332,-15.3057 C 2.0332,-15.3057 2.0371,-15.3086 2.0371,-15.3086 z M 11.5069,-9.7939 C 11.5069,-9.7939 11.5186,-9.8242 11.5186,-9.8242 C 11.5186,-9.8242 11.5088,-9.7939 11.5088,-9.7939 C 11.5088,-9.7939 11.5078,-9.7939 11.5069,-9.7939 z M 5.9922,-14.8086 C 5.9922,-14.8086 6.003,-14.8066 6.003,-14.8066 C 6.003,-14.8066 5.9912,-14.8066 5.9912,-14.8066 C 5.9912,-14.8066 5.9922,-14.8086 5.9922,-14.8086 z M 1.7549,-16.3183 C 1.7549,-16.3183 1.7549,-16.3291 1.7549,-16.3291 C 1.7549,-16.3291 1.7588,-16.3154 1.7588,-16.3154 C 1.7588,-16.3154 1.7549,-16.3183 1.7549,-16.3183 z M 2.7598,-12.1357 C 2.7598,-12.1357 2.7578,-12.1348 2.7578,-12.1348 C 2.7578,-12.1348 2.7403,-12.1572 2.7403,-12.1572 C 2.7403,-12.1572 2.7617,-12.1367 2.7617,-12.1367 C 2.7598,-12.1367 2.7598,-12.1357 2.7598,-12.1357 z M 6.2412,-2.5801 C 6.2412,-2.5801 6.2285,-2.5801 6.2285,-2.5801 C 6.2285,-2.5801 6.2403,-2.582 6.2403,-2.582 C 6.2412,-2.5801 6.2412,-2.5801 6.2412,-2.5801 z M 6.8028,-3.3789 C 6.8028,-3.3789 6.8135,-3.3848 6.8135,-3.3848 C 6.8135,-3.3848 6.8047,-3.375 6.8047,-3.375 C 6.8037,-3.3769 6.8037,-3.3779 6.8028,-3.3789 z M 2.6455,-10.3506 C 2.6455,-10.3506 2.6485,-10.3789 2.6485,-10.3789 C 2.6485,-10.3789 2.6485,-10.3506 2.6485,-10.3506 C 2.6485,-10.3506 2.6455,-10.3506 2.6455,-10.3506 z M 2.7588,-9.626 C 2.7588,-9.626 2.7461,-9.6543 2.7461,-9.6543 C 2.7461,-9.6543 2.7617,-9.6289 2.7617,-9.6289 C 2.7617,-9.6289 2.7588,-9.626 2.7588,-9.626 z M 1.501,-10.4824 C 1.501,-10.4824 1.5059,-10.5127 1.5059,-10.5127 C 1.5059,-10.5127 1.503,-10.4824 1.503,-10.4824 C 1.503,-10.4824 1.501,-10.4824 1.501,-10.4824 z M 6.4375,-5.835 C 6.4375,-5.835 6.4375,-5.8476 6.4375,-5.8476 C 6.4375,-5.8476 6.4395,-5.8359 6.4395,-5.8359 C 6.4395,-5.8359 6.4375,-5.835 6.4375,-5.835 z M 1.502,-10.4805 C 1.502,-10.4805 1.4766,-10.4648 1.4766,-10.4648 C 1.4766,-10.4648 1.501,-10.4824 1.501,-10.4824 C 1.501,-10.4814 1.502,-10.4814 1.502,-10.4805 z M 8.7754,-2.3633 C 8.7754,-2.3633 8.7735,-2.3525 8.7735,-2.3525 C 8.7735,-2.3525 8.7735,-2.3633 8.7735,-2.3633 C 8.7735,-2.3633 8.7744,-2.3633 8.7754,-2.3633 z M 6.4375,-13.3623 C 6.4375,-13.3623 6.4424,-13.3682 6.4424,-13.3682 C 6.4424,-13.3682 6.4395,-13.3613 6.4395,-13.3613 C 6.4375,-13.3623 6.4375,-13.3623 6.4375,-13.3623 z M 8.7735,-2.3633 C 8.7735,-2.3633 8.7666,-2.376 8.7666,-2.376 C 8.7666,-2.376 8.7744,-2.3652 8.7744,-2.3652 C 8.7735,-2.3642 8.7735,-2.3642 8.7735,-2.3633 z M 5.1162,-8.5596 C 5.1162,-8.5596 5.1221,-8.5478 5.1221,-8.5478 C 5.1221,-8.5478 5.1133,-8.5557 5.1133,-8.5557 C 5.1133,-8.5557 5.1162,-8.5596 5.1162,-8.5596 z M 6.7735,-12.415 C 6.7735,-12.415 6.7852,-12.4131 6.7852,-12.4131 C 6.7852,-12.4131 6.7735,-12.4131 6.7735,-12.4131 C 6.7735,-12.4131 6.7735,-12.415 6.7735,-12.415 z M 5.9453,-2.168 C 5.9453,-2.168 5.9326,-2.168 5.9326,-2.168 C 5.9326,-2.168 5.9483,-2.1719 5.9483,-2.1719 C 5.9483,-2.1719 5.9453,-2.168 5.9453,-2.168 z M 1.4649,-11.168 C 1.4649,-11.168 1.4424,-11.1846 1.4424,-11.1846 C 1.4424,-11.1846 1.4678,-11.1689 1.4678,-11.1689 C 1.4668,-11.1689 1.4668,-11.168 1.4649,-11.168 z M 9.8965,-2.4121 C 9.8965,-2.4121 9.8965,-2.4004 9.8965,-2.4004 C 9.8965,-2.4004 9.8946,-2.4111 9.8946,-2.4111 C 9.8946,-2.4111 9.8955,-2.4121 9.8965,-2.4121 z M 5.8799,-17.3213 C 5.8799,-17.3213 5.8926,-17.3262 5.8926,-17.3262 C 5.8926,-17.3262 5.8809,-17.3183 5.8809,-17.3183 C 5.8799,-17.3203 5.8799,-17.3203 5.8799,-17.3213 z M 10.7852,-11.2988 C 10.7852,-11.2988 10.8125,-11.2832 10.8125,-11.2832 C 10.8125,-11.2832 10.7832,-11.2959 10.7832,-11.2959 C 10.7832,-11.2959 10.7852,-11.2988 10.7852,-11.2988 z M 5.7705,-16.9267 C 5.7705,-16.9267 5.7774,-16.915 5.7774,-16.915 C 5.7774,-16.915 5.7686,-16.9258 5.7686,-16.9258 C 5.7686,-16.9258 5.7705,-16.9267 5.7705,-16.9267 z M 13.127,-15.1416 C 13.127,-15.1416 13.1299,-15.1308 13.1299,-15.1308 C 13.1299,-15.1308 13.125,-15.1416 13.125,-15.1416 C 13.125,-15.1416 13.127,-15.1416 13.127,-15.1416 z M 12.626,-10.8838 C 12.626,-10.8838 12.6143,-10.8838 12.6143,-10.8838 C 12.6143,-10.8838 12.6016,-10.8769 12.6016,-10.8769 C 12.3653,-10.6631 12.2783,-10.54 12.3008,-10.4365 C 12.3418,-10.3389 12.4746,-10.3262 12.6367,-10.3262 C 12.9619,-10.3389 13.4424,-10.4297 13.5586,-10.3789 C 13.5586,-10.3789 13.5938,-10.4248 13.5938,-10.4248 C 13.3623,-10.7148 12.9668,-10.8252 12.626,-10.8838 z M 13.1133,-15.1416 C 13.1133,-15.1416 13.1133,-15.1308 13.1133,-15.1308 C 13.1133,-15.1308 13.1299,-15.1308 13.1299,-15.1308 C 13.2637,-15.1592 13.4551,-15.1191 13.6172,-15.1191 C 13.6983,-15.1191 13.7735,-15.1308 13.8301,-15.166 C 13.8838,-15.2002 13.918,-15.2695 13.918,-15.3682 C 13.918,-15.3682 13.918,-19.6719 13.918,-19.6719 C 13.918,-19.6719 12.0938,-19.6719 12.0938,-19.6719 C 12.0938,-19.6719 12.1104,-19.6504 12.1104,-19.6504 C 13.1133,-18.4326 13.0039,-16.7588 13.1133,-15.1416 z M 12.4864,-9.0566 C 12.4864,-9.0566 12.4981,-9.0293 12.4981,-9.0293 C 12.4981,-9.0293 12.5274,-9.0469 12.5274,-9.0469 C 12.5274,-9.0469 13.4766,-9.7119 13.4766,-9.7119 C 13.4766,-9.7119 13.5244,-9.748 13.5244,-9.748 C 13.5244,-9.748 13.4717,-9.7637 13.4717,-9.7637 C 13.2979,-9.8242 13.0996,-9.8379 12.8887,-9.8379 C 12.6787,-9.8379 12.4541,-9.8242 12.2315,-9.8242 C 12.2315,-9.8242 12.209,-9.8242 12.209,-9.8242 C 12.209,-9.8242 12.2031,-9.7988 12.2031,-9.7988 C 12.1504,-9.5557 12.376,-9.2793 12.4864,-9.0566 z M 11.9658,-17.4834 C 11.9658,-17.4834 11.9658,-17.4883 11.9658,-17.4883 C 11.9121,-17.8769 11.7969,-18.2754 11.4024,-18.4971 C 11.4024,-18.4971 11.4024,-18.5029 11.4024,-18.5029 C 11.3321,-18.5234 11.2559,-18.5371 11.1758,-18.5488 C 11.1563,-18.5527 11.1377,-18.5537 11.1172,-18.5586 C 11.041,-18.5674 10.9629,-18.5723 10.8848,-18.5732 C 10.876,-18.5732 10.8682,-18.5742 10.8604,-18.5742 C 10.8379,-18.5742 10.8164,-18.5723 10.794,-18.5713 C 10.7627,-18.5703 10.7324,-18.5693 10.7012,-18.5674 C 10.6699,-18.5635 10.6406,-18.5596 10.6094,-18.5576 C 10.5762,-18.5527 10.543,-18.5469 10.5117,-18.54 C 10.4834,-18.5351 10.4561,-18.5293 10.4287,-18.5234 C 10.3946,-18.5137 10.3604,-18.5 10.3262,-18.4892 C 10.3047,-18.4814 10.2813,-18.4746 10.2608,-18.4658 C 10.208,-18.4433 10.1563,-18.418 10.1114,-18.3867 C 8.6524,-17.3213 9.5996,-15.1455 9.1572,-13.6445 C 9.1572,-13.6445 9.1543,-13.6475 9.1543,-13.6475 C 9.1026,-13.5654 9.0039,-13.4834 8.9063,-13.4453 C 8.8008,-13.4033 8.6973,-13.4033 8.6211,-13.4834 C 8.6211,-13.4834 8.6192,-13.4814 8.6192,-13.4814 C 8.6192,-13.4814 8.4014,-13.8144 8.4014,-13.8144 C 8.1826,-15.2031 8.6797,-16.7012 8.1231,-17.9932 C 8.1231,-17.9932 8.1192,-17.9932 8.1192,-17.9932 C 8.1192,-17.9932 8.1192,-18 8.1192,-18 C 8.041,-18.0488 7.958,-18.0937 7.874,-18.1318 C 7.8496,-18.1426 7.8233,-18.1523 7.7979,-18.1631 C 7.7364,-18.1865 7.6758,-18.209 7.6114,-18.2275 C 7.5791,-18.2373 7.5469,-18.2441 7.5137,-18.25 C 7.4522,-18.2627 7.3897,-18.2725 7.3252,-18.2793 C 7.292,-18.2822 7.2578,-18.2851 7.2217,-18.2871 C 7.2031,-18.2871 7.1836,-18.292 7.1641,-18.292 C 7.0899,-18.292 7.0137,-18.2871 6.9356,-18.2754 C 6.9356,-18.2754 6.9239,-18.2754 6.9239,-18.2754 C 6.9239,-18.2754 6.9239,-18.2656 6.9239,-18.2656 C 7.1504,-16.2656 5.9737,-13.3574 8.1572,-12.124 C 9.1084,-11.7285 10.4531,-11.6191 11.293,-12.2334 C 11.293,-12.2334 11.293,-12.2373 11.293,-12.2373 C 12.5274,-13.584 11.8555,-15.7607 11.9658,-17.4834 z M 10.5176,-19.5517 C 10.4004,-20.0615 9.7871,-20.2812 9.3399,-20.5078 C 9.2324,-20.5391 9.1231,-20.5625 9.0127,-20.583 C 8.9883,-20.5879 8.9629,-20.5918 8.9395,-20.5947 C 8.7461,-20.625 8.5498,-20.6435 8.3535,-20.6435 C 8.335,-20.6435 8.3164,-20.6406 8.2989,-20.6406 C 8.1524,-20.6377 8.0069,-20.6299 7.8633,-20.6123 C 7.8545,-20.6113 7.8477,-20.6113 7.8408,-20.6103 C 7.6914,-20.5918 7.544,-20.5625 7.3994,-20.5283 C 7.3535,-20.5166 7.3115,-20.5058 7.2676,-20.4941 C 7.1602,-20.4648 7.0557,-20.4316 6.9522,-20.3965 C 6.9112,-20.3828 6.8692,-20.3672 6.8291,-20.3516 C 6.6914,-20.2969 6.5586,-20.2383 6.4317,-20.1719 C 6.4317,-20.1719 6.4141,-20.166 6.4141,-20.166 C 6.4141,-20.166 6.4317,-20.1484 6.4317,-20.1484 C 6.7608,-19.8701 7.0987,-19.54 7.209,-19.1523 C 7.209,-19.1523 7.209,-19.1465 7.209,-19.1465 C 7.209,-19.1465 7.2139,-19.1465 7.2139,-19.1465 C 7.8281,-19.0879 8.4356,-18.9785 8.7666,-18.3691 C 8.7666,-18.3691 8.7774,-18.3525 8.7774,-18.3525 C 8.7774,-18.3525 8.7891,-18.3691 8.7891,-18.3691 C 9.1201,-18.9785 9.8457,-19.4238 10.5059,-19.5351 C 10.5059,-19.5351 10.5235,-19.5351 10.5235,-19.5351 C 10.5235,-19.5351 10.5176,-19.5517 10.5176,-19.5517 z M 6.3965,-18.9902 C 6.3965,-18.9902 6.3965,-18.9941 6.3965,-18.9941 C 6.3965,-18.9941 6.3916,-19.001 6.3916,-19.001 C 6.2676,-19.083 6.1446,-19.1621 6.0215,-19.2383 C 5.9912,-19.2578 5.9619,-19.2754 5.9326,-19.292 C 5.8379,-19.3516 5.7442,-19.4082 5.6485,-19.4639 C 5.6084,-19.4863 5.5664,-19.5078 5.5254,-19.5293 C 5.4414,-19.5762 5.3584,-19.6221 5.2725,-19.666 C 5.2237,-19.6894 5.1748,-19.7109 5.125,-19.7334 C 5.0469,-19.7715 4.9688,-19.8076 4.8897,-19.8418 C 4.835,-19.8633 4.7803,-19.8828 4.7256,-19.9033 C 4.6504,-19.9326 4.5733,-19.96 4.4971,-19.9853 C 4.4375,-20.0039 4.377,-20.0185 4.3184,-20.0351 C 4.2432,-20.0547 4.169,-20.0752 4.0928,-20.0898 C 4.0293,-20.1055 3.9649,-20.1142 3.8985,-20.125 C 3.8252,-20.1367 3.749,-20.1484 3.6729,-20.1543 C 3.6035,-20.1611 3.5342,-20.1641 3.4649,-20.168 C 3.416,-20.1689 3.3701,-20.1748 3.3203,-20.1748 C 3.2637,-20.1748 3.2031,-20.1738 3.1465,-20.1719 C 2.9141,-20.1133 2.8047,-19.9463 2.7461,-19.7715 C 2.6592,-19.5469 2.7344,-19.4004 2.8633,-19.292 C 2.9893,-19.1865 3.1699,-19.1182 3.3086,-19.0351 C 3.3086,-19.0351 3.3145,-19.0351 3.3145,-19.0351 C 4.2071,-18.7568 5.0977,-18.3642 6.1016,-18.4209 C 6.1016,-18.4209 6.1074,-18.4209 6.1074,-18.4209 C 6.1074,-18.4209 6.3321,-18.5303 6.3321,-18.5303 C 6.4561,-18.6533 6.3965,-18.8789 6.3965,-18.9902 z M 2.2012,-18.5537 C 2.2012,-18.5537 2.1953,-18.5537 2.1953,-18.5537 C 1.9688,-18.4971 1.8018,-18.2705 1.7442,-18.0459 C 1.7442,-18.0459 1.7442,-18.0381 1.7442,-18.0381 C 1.7442,-17.7617 1.8594,-17.4775 2.1953,-17.3603 C 2.1953,-17.3603 2.2012,-17.3603 2.2012,-17.3603 C 3.2559,-17.1426 4.2578,-16.6367 5.4356,-16.6894 C 5.4356,-16.6894 5.4414,-16.6894 5.4414,-16.6894 C 5.4414,-16.6894 5.4414,-16.6943 5.4414,-16.6943 C 5.4414,-16.6943 5.7774,-16.915 5.7774,-16.915 C 5.7774,-16.915 5.7774,-16.9209 5.7774,-16.9209 C 5.8867,-17.0312 6.0088,-17.1982 5.8926,-17.3262 C 5.8926,-17.3262 5.8867,-17.3262 5.8867,-17.3262 C 5.8867,-17.3262 5.8867,-17.332 5.8867,-17.332 C 4.7168,-17.9404 3.5459,-18.5537 2.2012,-18.5537 z M 1.7442,-15.583 C 1.7442,-15.583 1.749,-15.583 1.749,-15.583 C 1.749,-15.583 2.0283,-15.2978 2.0283,-15.2978 C 2.0283,-15.2978 2.0332,-15.2978 2.0332,-15.2978 C 3.3731,-15.1308 4.6524,-14.9619 5.9912,-14.7939 C 5.9912,-14.7939 5.9971,-14.7939 5.9971,-14.7939 C 5.9971,-14.7939 6.003,-14.8066 6.003,-14.8066 C 6.003,-14.8066 6.1133,-15.0264 6.1133,-15.0264 C 6.1133,-15.0264 6.1133,-15.0303 6.1133,-15.0303 C 6.1133,-15.4248 5.8926,-15.8252 5.4922,-15.9932 C 5.3067,-16.0469 5.1172,-16.0967 4.9258,-16.1416 C 4.874,-16.1553 4.8213,-16.166 4.7696,-16.1787 C 4.6016,-16.2158 4.4317,-16.251 4.2598,-16.2832 C 4.2295,-16.2871 4.1983,-16.2949 4.167,-16.2988 C 3.9697,-16.333 3.7705,-16.3574 3.5694,-16.3789 C 3.5205,-16.3838 3.4717,-16.3867 3.4219,-16.3896 C 3.2549,-16.4033 3.0869,-16.4111 2.919,-16.4141 C 2.8867,-16.4141 2.8545,-16.4189 2.8233,-16.4189 C 2.8076,-16.4189 2.793,-16.415 2.7774,-16.415 C 2.6612,-16.415 2.5449,-16.4092 2.4278,-16.4033 C 2.375,-16.3994 2.3203,-16.3984 2.2666,-16.3945 C 2.0957,-16.3799 1.9258,-16.3594 1.7549,-16.3291 C 1.7549,-16.3291 1.749,-16.3291 1.749,-16.3291 C 1.749,-16.3291 1.749,-16.3242 1.749,-16.3242 C 1.5176,-16.0918 1.6338,-15.8086 1.7442,-15.583 z M 1.6856,-14.3652 C 1.6338,-14.0166 2.0283,-13.6865 2.3047,-13.5205 C 3.6436,-12.7881 5.1504,-12.5117 6.6572,-12.1807 C 6.6572,-12.1807 6.669,-12.1758 6.669,-12.1758 C 6.669,-12.1758 6.6748,-12.1875 6.6748,-12.1875 C 6.6748,-12.1875 6.7852,-12.4072 6.7852,-12.4072 C 6.7852,-12.4072 6.7852,-12.4131 6.7852,-12.4131 C 6.8428,-12.8066 6.7266,-13.1435 6.4424,-13.3682 C 6.4424,-13.3682 6.4424,-13.374 6.4424,-13.374 C 5.1621,-14.041 3.8242,-14.6035 2.3692,-14.7656 C 2.085,-14.7656 1.8018,-14.6543 1.6856,-14.3721 C 1.6856,-14.3721 1.6856,-14.3652 1.6856,-14.3652 z M 1.9541,-11.6308 C 1.9268,-11.6152 1.8994,-11.5986 1.8721,-11.582 C 1.8555,-11.5723 1.8399,-11.5635 1.8242,-11.5527 C 1.7979,-11.5361 1.7735,-11.5176 1.749,-11.5 C 1.7324,-11.4883 1.7158,-11.4746 1.6992,-11.4619 C 1.6778,-11.4453 1.6572,-11.4267 1.6367,-11.4082 C 1.6211,-11.3955 1.6055,-11.3808 1.5908,-11.3672 C 1.5713,-11.3496 1.5557,-11.331 1.5381,-11.3115 C 1.5274,-11.2988 1.5137,-11.2861 1.502,-11.2715 C 1.4776,-11.2412 1.4571,-11.2119 1.4424,-11.1846 C 1.4424,-11.1846 1.4365,-11.1728 1.4365,-11.1728 C 1.4365,-11.1728 1.4365,-11.168 1.4365,-11.168 C 1.4365,-11.168 1.501,-11.0332 1.501,-11.0332 C 1.5401,-10.9941 1.6094,-10.9639 1.7061,-10.9805 C 1.9483,-10.8691 2.3047,-10.9824 2.5196,-10.9824 C 2.5196,-10.9824 2.5381,-10.9824 2.5381,-10.9824 C 2.5381,-10.9824 2.544,-10.999 2.544,-10.999 C 2.6592,-11.2549 2.4102,-11.4961 2.3574,-11.7109 C 2.3574,-11.7109 2.3526,-11.7226 2.3526,-11.7226 C 2.3526,-11.7226 2.335,-11.7285 2.335,-11.7285 C 2.3184,-11.7314 2.3008,-11.7353 2.2803,-11.7353 C 2.2705,-11.7353 2.2588,-11.7305 2.2481,-11.7305 C 2.2344,-11.7275 2.2188,-11.7266 2.2041,-11.7226 C 2.1797,-11.7197 2.1543,-11.7129 2.1289,-11.7051 C 2.1133,-11.6992 2.0977,-11.6943 2.084,-11.6885 C 2.0557,-11.6777 2.0293,-11.667 2.001,-11.6533 C 1.9854,-11.6445 1.9697,-11.6387 1.9541,-11.6308 z M 1.4766,-10.4648 C 1.5645,-10.3193 1.7852,-10.1172 2.0205,-10.0254 C 2.2598,-9.9336 2.5313,-9.9609 2.6758,-10.2861 C 2.6758,-10.2861 2.6758,-10.3789 2.6758,-10.3789 C 2.6758,-10.3789 2.6485,-10.3789 2.6485,-10.3789 C 2.6485,-10.3789 1.5059,-10.5127 1.5059,-10.5127 C 1.5059,-10.5127 1.4424,-10.5176 1.4424,-10.5176 C 1.4424,-10.5176 1.4766,-10.4648 1.4766,-10.4648 z M 3.4932,-10.3086 C 3.4883,-10.3047 3.4824,-10.3017 3.4776,-10.2988 C 3.4483,-10.2822 3.4199,-10.2656 3.3936,-10.2451 C 3.3858,-10.2392 3.3789,-10.2344 3.3711,-10.2275 C 3.3399,-10.2041 3.3086,-10.1807 3.2793,-10.1514 C 3.0996,-9.9785 2.9317,-9.7588 2.7461,-9.6543 C 2.7461,-9.6543 2.711,-9.6357 2.711,-9.6357 C 2.711,-9.6357 2.7344,-9.6084 2.7344,-9.6084 C 2.9658,-9.3242 3.25,-9.208 3.5342,-9.1504 C 3.5342,-9.1504 3.5586,-9.1445 3.5586,-9.1445 C 3.5586,-9.1445 3.5684,-9.168 3.5684,-9.168 C 3.7305,-9.5557 3.9571,-9.8916 3.9571,-10.2969 C 3.9571,-10.2969 3.9571,-10.3144 3.9571,-10.3144 C 3.9571,-10.3144 3.9395,-10.3193 3.9395,-10.3193 C 3.9043,-10.3379 3.8701,-10.3476 3.8369,-10.3555 C 3.8223,-10.3603 3.8086,-10.3613 3.793,-10.3623 C 3.7754,-10.3652 3.7578,-10.3672 3.7403,-10.3682 C 3.7364,-10.3682 3.7305,-10.3682 3.7266,-10.3682 C 3.7188,-10.3682 3.711,-10.3672 3.7041,-10.3672 C 3.6768,-10.3652 3.6504,-10.3623 3.624,-10.3555 C 3.6133,-10.3545 3.6026,-10.3516 3.5928,-10.3496 C 3.5586,-10.3389 3.5254,-10.3242 3.4932,-10.3086 z M 3.4004,-12.3017 C 3.4004,-12.3017 3.4004,-12.3379 3.4004,-12.3379 C 3.4004,-12.3379 3.3653,-12.331 3.3653,-12.331 C 3.1524,-12.2725 2.9199,-12.3379 2.7403,-12.1572 C 2.7403,-12.1572 2.7237,-12.1455 2.7237,-12.1455 C 2.7237,-12.1455 2.7295,-12.124 2.7295,-12.124 C 2.7295,-12.124 3.1641,-10.9228 3.1641,-10.9228 C 3.1641,-10.9228 3.1699,-10.9053 3.1699,-10.9053 C 3.1699,-10.9053 3.1865,-10.9053 3.1865,-10.9053 C 3.1865,-10.9053 3.5117,-10.8418 3.5117,-10.8418 C 3.5117,-10.8418 3.5459,-10.8369 3.5459,-10.8369 C 3.5459,-10.8369 3.5459,-10.8652 3.5459,-10.8652 C 3.6035,-11.3242 3.4531,-11.8613 3.4004,-12.3017 z M 3.4649,-5.21 C 3.4649,-5.21 3.4824,-5.2324 3.4824,-5.2324 C 3.4776,-5.2363 3.4717,-5.2383 3.4688,-5.2422 C 3.3633,-6.2373 3.5449,-7.2871 4.2617,-7.9551 C 4.2617,-7.9551 4.2754,-7.9453 4.2754,-7.9453 C 4.4961,-8.2236 4.8965,-8.3799 5.1221,-8.5478 C 5.1221,-8.5478 5.1328,-8.5527 5.1328,-8.5527 C 5.1328,-8.5527 5.1221,-8.5644 5.1221,-8.5644 C 5.0899,-8.5986 5.0469,-8.6289 5,-8.6592 C 4.9903,-8.665 4.9834,-8.6699 4.9746,-8.6758 C 4.9278,-8.7031 4.877,-8.7305 4.8223,-8.7539 C 4.8106,-8.7568 4.7998,-8.7617 4.7891,-8.7666 C 4.7305,-8.7891 4.6729,-8.8076 4.6114,-8.8203 C 4.6055,-8.8223 4.5977,-8.8242 4.5918,-8.8262 C 4.5293,-8.8389 4.4658,-8.8476 4.4043,-8.8476 C 4.4033,-8.8476 4.4024,-8.8476 4.4004,-8.8476 C 4.4004,-8.8476 4.4004,-8.8476 4.3985,-8.8476 C 4.3584,-8.8476 4.3194,-8.8437 4.2813,-8.8389 C 3.5586,-8.7783 2.7158,-8.3682 2.4912,-7.6377 C 2.2061,-6.8516 2.7344,-5.6621 3.4649,-5.21 z M 3.3848,-3.8252 C 3.5459,-3.2148 3.7725,-2.5391 4.5313,-2.2549 C 4.5313,-2.2549 4.5371,-2.2549 4.5371,-2.2549 C 4.8614,-2.1904 5.2373,-2.168 5.3604,-2.4062 C 5.3604,-2.4062 5.3653,-2.4121 5.3653,-2.4121 C 5.3653,-2.4121 5.3604,-2.4228 5.3604,-2.4228 C 4.7461,-2.9219 4.1426,-3.9307 3.6387,-4.5439 C 3.6387,-4.5439 3.6328,-4.5498 3.6328,-4.5498 C 3.6328,-4.5498 3.627,-4.5498 3.627,-4.5498 C 3.499,-4.5439 3.4483,-4.3935 3.4131,-4.2246 C 3.3848,-4.0625 3.3848,-3.8887 3.3848,-3.8301 C 3.3848,-3.8301 3.3848,-3.8252 3.3848,-3.8252 z M 8.3897,-5.21 C 8.3897,-5.21 8.4239,-5.21 8.4239,-5.21 C 8.4239,-5.21 8.3965,-5.2324 8.3965,-5.2324 C 8.3936,-5.2344 8.3916,-5.2373 8.3897,-5.2383 C 8.3321,-5.291 8.2735,-5.3379 8.211,-5.3848 C 8.1895,-5.4014 8.167,-5.418 8.1446,-5.4336 C 8.1026,-5.4639 8.0615,-5.4922 8.0176,-5.5205 C 7.9922,-5.5381 7.9649,-5.5527 7.9385,-5.5693 C 7.8965,-5.5957 7.8526,-5.6191 7.8076,-5.6416 C 7.7803,-5.6572 7.7559,-5.6709 7.7276,-5.6836 C 7.6739,-5.71 7.6201,-5.7324 7.5645,-5.7539 C 7.5449,-5.7617 7.5264,-5.7695 7.5069,-5.7773 C 7.4317,-5.8047 7.3535,-5.8271 7.2754,-5.8447 C 7.2559,-5.8496 7.2364,-5.8506 7.2168,-5.8555 C 7.1563,-5.8662 7.0957,-5.876 7.0332,-5.8828 C 7.0039,-5.8857 6.9746,-5.8867 6.9453,-5.8877 C 6.9141,-5.8887 6.8848,-5.8945 6.8535,-5.8945 C 6.8242,-5.8945 6.7949,-5.8906 6.7676,-5.8877 C 6.7432,-5.8877 6.7188,-5.8867 6.6944,-5.8848 C 6.6104,-5.8769 6.5244,-5.8652 6.4375,-5.8476 C 6.4375,-5.8476 6.4317,-5.8476 6.4317,-5.8476 C 5.585,-5.6201 5.2559,-4.6133 5.1973,-3.8301 C 5.1973,-3.8301 5.1973,-3.7969 5.1973,-3.7969 C 5.1973,-3.7969 5.2217,-3.8203 5.2217,-3.8203 C 6.1133,-4.7119 7.1094,-5.21 8.3897,-5.21 z M 5.5742,-3.3496 C 5.5742,-3.3496 5.8164,-3.1006 5.8164,-3.1006 C 5.8164,-3.1006 5.8281,-3.083 5.8281,-3.083 C 5.8281,-3.083 5.834,-3.1006 5.834,-3.1006 C 5.9453,-3.373 6.3565,-3.709 6.7442,-3.8203 C 7.0801,-3.9307 7.3994,-3.9697 7.7862,-3.9111 C 7.7862,-3.9111 7.8164,-3.9062 7.8164,-3.9062 C 7.8164,-3.9062 7.7998,-3.9355 7.7998,-3.9355 C 7.6299,-4.1621 7.2539,-4.3994 7.0225,-4.457 C 7.0225,-4.457 7.0166,-4.457 7.0166,-4.457 C 6.5117,-4.2891 5.9102,-3.8203 5.5742,-3.3682 C 5.5742,-3.3682 5.5674,-3.3623 5.5674,-3.3623 C 5.5674,-3.3623 5.5742,-3.3496 5.5742,-3.3496 z M 6.8135,-3.3848 C 6.8135,-3.3848 6.8076,-3.3965 6.8076,-3.3965 C 6.8076,-3.3965 6.7949,-3.3906 6.7949,-3.3906 C 6.5713,-3.2744 6.1768,-2.8164 6.2285,-2.5801 C 6.2285,-2.5801 6.2285,-2.5732 6.2285,-2.5732 C 6.2285,-2.5732 6.2344,-2.5732 6.2344,-2.5732 C 6.3565,-2.4512 6.9473,-2.4004 7.1162,-2.4004 C 7.1162,-2.4004 7.126,-2.4004 7.126,-2.4004 C 7.126,-2.4004 7.126,-2.4062 7.126,-2.4062 C 7.2432,-2.6953 6.9824,-3.1582 6.8135,-3.3848 z M 7.6602,-0.9219 C 7.9951,-0.8642 8.3897,-0.9219 8.7256,-1.0898 C 8.7256,-1.0898 8.7315,-1.0898 8.7315,-1.0898 C 8.9004,-1.2578 9.0215,-1.501 9.0791,-1.7275 C 9.0791,-1.7275 9.0791,-1.7441 9.0791,-1.7441 C 9.0791,-1.7441 9.0625,-1.7441 9.0625,-1.7441 C 8.7949,-1.7383 8.5283,-2.0215 8.2451,-2.1328 C 8.2451,-2.1328 8.2403,-2.1328 8.2403,-2.1328 C 7.5606,-2.0752 6.5,-1.4609 5.9571,-2.1797 C 5.9571,-2.1797 5.9326,-2.168 5.9326,-2.168 C 6.1074,-1.5478 6.9873,-0.9746 7.6602,-0.9219 z M 9.8965,-2.4004 C 9.8965,-2.4004 9.9033,-2.4004 9.9033,-2.4004 C 9.9033,-2.4004 10.5059,-2.6767 10.5059,-2.6767 C 11.0733,-3.1289 11.1543,-4.1094 11.211,-4.7236 C 11.211,-4.7236 11.2168,-4.7402 11.2168,-4.7402 C 11.2168,-4.7402 11.1944,-4.7353 11.1944,-4.7353 C 10.8301,-4.6074 10.4942,-4.1621 10.3262,-3.8838 C 9.9375,-3.3281 9.2715,-2.7656 8.7666,-2.376 C 8.7666,-2.376 8.75,-2.3594 8.75,-2.3594 C 8.75,-2.3594 8.7735,-2.3525 8.7735,-2.3525 C 9.0567,-2.2383 9.6182,-2.3418 9.8965,-2.4004 z M 7.874,-4.5967 C 8.042,-4.2012 8.419,-3.8252 8.5752,-3.4199 C 8.5752,-3.4199 8.6973,-3.0146 8.6973,-3.0146 C 8.6973,-3.0146 8.71,-2.9844 8.71,-2.9844 C 8.71,-2.9844 8.7256,-3.0146 8.7256,-3.0146 C 8.8936,-3.3496 8.9463,-4.1152 8.836,-4.5088 C 8.836,-4.5088 8.8301,-4.5137 8.8301,-4.5137 C 8.6514,-4.6308 8.1055,-4.6133 7.8858,-4.6133 C 7.8858,-4.6133 7.8633,-4.6133 7.8633,-4.6133 C 7.8633,-4.6133 7.874,-4.5967 7.874,-4.5967 z M 7.5957,-2.6084 C 7.5957,-2.6084 7.5899,-2.5859 7.5899,-2.5859 C 7.5899,-2.5859 7.6143,-2.5908 7.6143,-2.5908 C 7.7813,-2.6494 8.1114,-2.9326 8.0713,-3.21 C 7.9551,-3.4824 7.585,-3.5937 7.3057,-3.5937 C 7.3057,-3.5937 7.2822,-3.5937 7.2822,-3.5937 C 7.2822,-3.5937 7.2891,-3.5762 7.2891,-3.5762 C 7.4053,-3.2978 7.6485,-2.9326 7.5957,-2.6084 z M 5.4873,-9.4521 C 5.4873,-9.4521 5.5567,-9.4873 5.5567,-9.4873 C 5.793,-9.6084 5.9619,-9.8867 6.124,-10.1113 C 6.124,-10.1113 6.1367,-10.124 6.1367,-10.124 C 6.1367,-10.124 6.1309,-10.1406 6.1309,-10.1406 C 6.0957,-10.2109 6.0264,-10.2168 5.9805,-10.2051 C 5.9805,-10.2051 5.834,-10.2109 5.834,-10.2109 C 5.834,-10.2109 5.8115,-10.2226 5.8115,-10.2226 C 5.8115,-10.2226 5.793,-10.1933 5.793,-10.1933 C 5.793,-10.1933 5.5156,-9.5264 5.5156,-9.5264 C 5.5156,-9.5264 5.4873,-9.4521 5.4873,-9.4521 z M 5.2139,-10.7676 C 5.5391,-10.7676 5.876,-10.6562 6.2227,-10.7676 C 6.2227,-10.7676 6.2461,-10.7793 6.2461,-10.7793 C 6.2461,-10.7793 6.2461,-10.8017 6.2461,-10.8017 C 6.1885,-11.1504 5.9043,-11.4844 5.6211,-11.7109 C 5.6211,-11.7109 5.5977,-11.7285 5.5977,-11.7285 C 5.5977,-11.7285 5.5791,-11.7051 5.5791,-11.7051 C 5.4063,-11.4795 5.2373,-11.1445 5.1865,-10.8017 C 5.1865,-10.8017 5.1797,-10.7676 5.1797,-10.7676 C 5.1797,-10.7676 5.2139,-10.7676 5.2139,-10.7676 z M 4.9658,-12.0879 C 4.9658,-12.0879 4.9473,-12.1055 4.9473,-12.1055 C 4.9102,-12.1328 4.8692,-12.1572 4.8252,-12.1807 C 4.8135,-12.1875 4.8028,-12.1924 4.791,-12.1982 C 4.751,-12.2168 4.711,-12.2353 4.668,-12.251 C 4.6602,-12.2529 4.6524,-12.2568 4.6436,-12.2588 C 4.5947,-12.2764 4.544,-12.29 4.4912,-12.3008 C 4.4776,-12.3017 4.4629,-12.3047 4.4502,-12.3066 C 4.4072,-12.3125 4.3662,-12.3174 4.3242,-12.3183 C 4.3155,-12.3183 4.3057,-12.3193 4.2969,-12.3193 C 4.291,-12.3193 4.2871,-12.3193 4.2813,-12.3193 C 4.2539,-12.3183 4.2266,-12.3164 4.1992,-12.3125 C 4.1836,-12.3096 4.169,-12.3096 4.1543,-12.3066 C 4.1123,-12.2988 4.0713,-12.2891 4.0322,-12.2725 C 4.0322,-12.2725 4.0039,-12.2617 4.0039,-12.2617 C 4.0039,-12.2617 4.0147,-12.2334 4.0147,-12.2334 C 4.1778,-11.8613 4.0088,-11.1904 4.2989,-10.8369 C 4.2989,-10.8369 4.3057,-10.8252 4.3057,-10.8252 C 4.3057,-10.8252 4.5645,-10.8252 4.5645,-10.8252 C 4.5645,-10.8252 4.5723,-10.8418 4.5723,-10.8418 C 4.5723,-10.8418 4.96,-12.0713 4.96,-12.0713 C 4.96,-12.0713 4.9658,-12.0879 4.9658,-12.0879 z M 4.5479,-10.3262 C 4.5479,-10.3262 4.5244,-10.3262 4.5244,-10.3262 C 4.5244,-10.3262 4.5186,-10.3144 4.5186,-10.3144 C 4.2881,-9.9668 4.2354,-9.5225 4.125,-9.1328 C 4.125,-9.1328 4.1133,-9.1045 4.1133,-9.1045 C 4.1133,-9.1045 4.1485,-9.0976 4.1485,-9.0976 C 4.4961,-9.04 4.7041,-9.2305 4.8555,-9.4736 C 5,-9.7119 5.0977,-10.0078 5.2324,-10.1641 C 5.2324,-10.1641 5.2676,-10.2051 5.2676,-10.2051 C 5.2676,-10.2051 5.2139,-10.2109 5.2139,-10.2109 C 5.2139,-10.2109 4.5479,-10.3262 4.5479,-10.3262 z M 7.2686,-8.2119 C 7.249,-8.2139 7.2305,-8.2158 7.211,-8.2187 C 7.0821,-8.2285 6.9522,-8.2363 6.8213,-8.2363 C 6.8106,-8.2363 6.8008,-8.2383 6.7901,-8.2383 C 6.7715,-8.2383 6.752,-8.2363 6.7344,-8.2363 C 6.6875,-8.2363 6.6406,-8.2344 6.5938,-8.2334 C 6.5586,-8.2305 6.5225,-8.2285 6.4873,-8.2256 C 6.4395,-8.2246 6.3916,-8.2187 6.3438,-8.2139 C 6.3106,-8.2109 6.2764,-8.206 6.2422,-8.2021 C 6.1934,-8.1953 6.1455,-8.1875 6.0996,-8.1797 C 6.0674,-8.1748 6.0362,-8.1699 6.0059,-8.1641 C 5.9561,-8.1523 5.9082,-8.1416 5.8614,-8.1299 C 5.8321,-8.1221 5.8028,-8.1162 5.7754,-8.1084 C 5.7266,-8.0957 5.6787,-8.0791 5.6319,-8.0625 C 5.6074,-8.0547 5.5821,-8.0469 5.5576,-8.0371 C 5.5078,-8.0195 5.461,-7.999 5.4151,-7.9775 C 5.3946,-7.9687 5.3731,-7.96 5.3535,-7.9502 C 5.3037,-7.9267 5.2569,-7.8984 5.211,-7.8721 C 5.1973,-7.8623 5.1807,-7.8555 5.167,-7.8457 C 5.1074,-7.8076 5.0518,-7.7685 5,-7.7236 C 4.1026,-7.1631 4.0274,-6.0625 4.1944,-5.1113 C 4.253,-4.8848 4.334,-4.5332 4.4785,-4.3125 C 4.4785,-4.3125 4.4903,-4.2891 4.4903,-4.2891 C 4.4903,-4.2891 4.503,-4.3125 4.503,-4.3125 C 4.8897,-5.0937 5.1739,-6.1084 5.9512,-6.7168 C 6.6748,-7.2725 7.5664,-7.6611 8.4014,-7.8867 C 8.4014,-7.8867 8.4356,-7.8935 8.4356,-7.8935 C 8.4356,-7.8935 8.4063,-7.9111 8.4063,-7.9111 C 8.3076,-7.959 8.1973,-8.0029 8.0801,-8.042 C 8.0713,-8.0459 8.0625,-8.0488 8.0537,-8.0517 C 7.9395,-8.0879 7.8203,-8.1191 7.6934,-8.1445 C 7.6787,-8.1484 7.6641,-8.1514 7.6485,-8.1543 C 7.5264,-8.1797 7.3985,-8.1973 7.2686,-8.2119 z M 6.628,-8.7334 C 6.628,-8.7334 6.628,-8.7217 6.628,-8.7217 C 6.628,-8.7217 6.6406,-8.7148 6.6406,-8.7148 C 6.7735,-8.5879 7,-8.6523 7.2197,-8.6523 C 7.2197,-8.6523 7.2432,-8.6523 7.2432,-8.6523 C 7.2432,-8.6523 7.249,-8.6758 7.249,-8.6758 C 7.3594,-9.626 7.3008,-10.7441 7.249,-11.6875 C 7.249,-11.6875 7.249,-11.7109 7.249,-11.7109 C 7.249,-11.7109 7.2246,-11.7168 7.2246,-11.7168 C 7.0957,-11.7607 6.9356,-11.7715 6.8125,-11.75 C 6.7715,-11.7422 6.7344,-11.7314 6.7031,-11.7168 C 6.7031,-11.7168 6.6856,-11.7051 6.6856,-11.7051 C 6.6856,-11.7051 6.6856,-11.6875 6.6856,-11.6875 C 6.6856,-11.6875 6.628,-8.7334 6.628,-8.7334 z M 8.3604,-10.6973 C 8.3604,-10.6973 8.3604,-10.8252 8.3604,-10.8252 C 8.3604,-10.8252 8.3321,-10.8252 8.3321,-10.8252 C 8.1465,-10.8252 7.8692,-10.6562 7.7461,-10.4189 C 7.7461,-10.4189 7.7188,-10.3613 7.7188,-10.3613 C 7.7188,-10.3613 7.7813,-10.3789 7.7813,-10.3789 C 7.8809,-10.4023 8.0655,-10.3789 8.2051,-10.3896 C 8.2744,-10.4023 8.3321,-10.4141 8.3721,-10.4717 C 8.4063,-10.5244 8.4014,-10.5986 8.3604,-10.6973 z M 8.2451,-9.8096 C 8.2451,-9.8096 8.2344,-9.8242 8.2344,-9.8242 C 8.2344,-9.8242 7.6758,-9.8242 7.6758,-9.8242 C 7.6758,-9.8242 7.6895,-9.7881 7.6895,-9.7881 C 7.8047,-9.3887 8.1406,-8.9355 8.5469,-8.8193 C 8.5469,-8.8193 8.5928,-8.8037 8.5928,-8.8037 C 8.5928,-8.8037 8.5811,-8.8496 8.5811,-8.8496 C 8.5283,-9.1846 8.4707,-9.5264 8.2451,-9.8096 z M 9.3301,-7.1738 C 9.3301,-7.1738 9.3233,-7.1738 9.3233,-7.1738 C 9.2188,-7.1894 9.1114,-7.1973 9.002,-7.1992 C 8.9903,-7.1992 8.9795,-7.2021 8.9678,-7.2021 C 8.9131,-7.2021 8.8555,-7.1973 8.8008,-7.1933 C 8.7822,-7.1933 8.7637,-7.1933 8.7451,-7.1914 C 8.6514,-7.1836 8.5576,-7.1728 8.4629,-7.1553 C 8.4571,-7.1543 8.4522,-7.1533 8.4463,-7.1523 C 8.3594,-7.1367 8.2735,-7.1191 8.1865,-7.0967 C 8.1621,-7.0898 8.1367,-7.082 8.1114,-7.0752 C 8.044,-7.0566 7.9795,-7.0371 7.9131,-7.0146 C 7.8848,-7.0049 7.8555,-6.9951 7.8281,-6.9863 C 7.7666,-6.9648 7.7061,-6.9404 7.6465,-6.915 C 7.6182,-6.9053 7.5899,-6.8926 7.5625,-6.8799 C 7.502,-6.8516 7.4434,-6.8242 7.3848,-6.7959 C 7.3614,-6.7842 7.3379,-6.7725 7.3155,-6.7598 C 7.2364,-6.7187 7.1602,-6.6758 7.0889,-6.6279 C 7.0879,-6.6279 7.0869,-6.6289 7.086,-6.6289 C 7.084,-6.6269 7.083,-6.626 7.0801,-6.624 C 7.0801,-6.624 7.0567,-6.6123 7.0567,-6.6123 C 7.0567,-6.6123 7.0801,-6.5996 7.0801,-6.5996 C 8.1406,-6.2705 9.5489,-5.4941 9.6016,-4.166 C 9.6016,-4.166 9.6016,-4.1377 9.6016,-4.1377 C 9.6016,-4.1377 9.6231,-4.1553 9.6231,-4.1553 C 10.128,-4.5498 10.209,-5.2207 10.209,-5.835 C 10.0987,-6.3398 9.9483,-7.0058 9.3301,-7.1738 z M 8.9102,-9.7002 C 8.9102,-9.7002 8.917,-9.6699 8.917,-9.6699 C 8.9688,-9.4873 8.9864,-9.1904 9.0625,-8.9424 C 9.1387,-8.6914 9.294,-8.4775 9.6133,-8.4834 C 9.6133,-8.4834 9.6485,-8.4834 9.6485,-8.4834 C 9.6485,-8.4834 9.6416,-8.5137 9.6416,-8.5137 C 9.5879,-8.9658 9.4219,-9.416 9.1387,-9.7588 C 9.1387,-9.7588 9.1201,-9.7705 9.1201,-9.7705 C 9.1201,-9.7705 9.1026,-9.7637 9.1026,-9.7637 C 9.1026,-9.7637 8.9336,-9.7119 8.9336,-9.7119 C 8.9336,-9.7119 8.9102,-9.7002 8.9102,-9.7002 z M 8.917,-10.4365 C 8.917,-10.4365 8.9395,-10.4297 8.9395,-10.4297 C 9.2071,-10.374 9.3633,-10.5293 9.4688,-10.7207 C 9.5723,-10.9111 9.6416,-11.1504 9.7461,-11.2773 C 9.7461,-11.2773 9.7813,-11.3174 9.7813,-11.3174 C 9.7813,-11.3174 9.7285,-11.3291 9.7285,-11.3291 C 9.6758,-11.3398 9.6211,-11.3437 9.5703,-11.3437 C 9.5586,-11.3437 9.5479,-11.3418 9.5352,-11.3408 C 9.5117,-11.3398 9.4893,-11.3389 9.4658,-11.335 C 9.4229,-11.331 9.3819,-11.3242 9.3399,-11.3135 C 9.3155,-11.3086 9.293,-11.3017 9.2696,-11.2959 C 9.2285,-11.2842 9.1895,-11.2705 9.1514,-11.2558 C 9.1309,-11.2471 9.1104,-11.2412 9.0908,-11.2334 C 9.0362,-11.2109 8.9834,-11.1855 8.9336,-11.1601 C 8.9336,-11.1601 8.917,-11.1504 8.917,-11.1504 C 8.917,-11.1504 8.917,-10.4365 8.917,-10.4365 z M 10.8174,-11.3057 C 10.8174,-11.3057 10.8067,-11.3174 10.8067,-11.3174 C 10.8067,-11.3174 10.6973,-11.4346 10.6973,-11.4346 C 10.6973,-11.4346 10.6836,-11.4453 10.6836,-11.4453 C 10.6836,-11.4453 10.667,-11.4385 10.667,-11.4385 C 10.667,-11.4385 10.4414,-11.3808 10.4414,-11.3808 C 10.4414,-11.3808 10.4297,-11.3808 10.4297,-11.3808 C 10.4297,-11.3808 10.4239,-11.3633 10.4239,-11.3633 C 10.3125,-11.0967 10.0293,-10.8144 10.0293,-10.459 C 10.0293,-10.459 10.0293,-10.4433 10.0293,-10.4433 C 10.0293,-10.4433 10.0469,-10.4365 10.0469,-10.4365 C 10.2324,-10.3506 10.3662,-10.3389 10.4649,-10.3789 C 10.5694,-10.4189 10.6211,-10.5127 10.6621,-10.6221 C 10.7324,-10.8369 10.7324,-11.1328 10.8125,-11.2832 C 10.8125,-11.2832 10.8174,-11.3057 10.8174,-11.3057 z M 10.5274,-9.8096 C 10.5274,-9.8096 10.5176,-9.8291 10.5176,-9.8291 C 10.5176,-9.8291 10.4981,-9.8242 10.4981,-9.8242 C 10.4981,-9.8242 10.0586,-9.7705 10.0586,-9.7705 C 10.0586,-9.7705 10.0235,-9.7637 10.0235,-9.7637 C 10.0235,-9.7637 10.0293,-9.7295 10.0293,-9.7295 C 10.1406,-9.29 10.1973,-8.8389 10.5391,-8.4375 C 10.5391,-8.4375 10.5469,-8.4267 10.5469,-8.4267 C 10.5469,-8.4267 10.5625,-8.4267 10.5625,-8.4267 C 10.6778,-8.4267 10.8067,-8.4551 10.8926,-8.5244 C 10.9805,-8.5937 11.0147,-8.7148 10.9219,-8.8613 C 10.8125,-9.1875 10.753,-9.5273 10.5274,-9.8096 z M 11.5547,-6.9355 C 11.5547,-6.9355 11.5528,-6.9355 11.5528,-6.9355 C 11.4981,-7.2754 11.1983,-7.585 10.8643,-7.7539 C 10.5742,-7.9219 10.1572,-7.8867 9.8272,-7.9453 C 9.8272,-7.9453 9.8155,-7.9219 9.8155,-7.9219 C 9.8174,-7.9199 9.8194,-7.918 9.8213,-7.917 C 9.8223,-7.917 9.8223,-7.917 9.8233,-7.917 C 10.5362,-7.3564 10.8711,-6.3262 10.9864,-5.5517 C 10.9864,-5.5517 10.9864,-5.5342 10.9864,-5.5342 C 10.9864,-5.5342 11.003,-5.5391 11.003,-5.5391 C 11.3965,-5.7715 11.669,-6.4785 11.5547,-6.9355 z M 11.9942,-11.0801 C 11.9942,-11.0801 11.9766,-11.0967 11.9766,-11.0967 C 11.8555,-11.2197 11.6289,-11.2705 11.4619,-11.3242 C 11.4619,-11.3242 11.4375,-11.335 11.4375,-11.335 C 11.4375,-11.335 11.4258,-11.3115 11.4258,-11.3115 C 11.2588,-11.0283 11.1426,-10.6396 11.2012,-10.3447 C 11.2012,-10.3447 11.2061,-10.3262 11.2061,-10.3262 C 11.2061,-10.3262 11.2168,-10.3193 11.2168,-10.3193 C 11.5362,-10.2051 11.7031,-10.3447 11.7852,-10.5351 C 11.8721,-10.7207 11.9014,-10.958 11.9766,-11.0566 C 11.9766,-11.0566 11.9942,-11.0801 11.9942,-11.0801 z M 11.5996,-8.7031 C 11.5996,-8.7031 11.6231,-8.7031 11.6231,-8.7031 C 11.669,-8.7031 11.7559,-8.6914 11.8321,-8.7031 C 11.9121,-8.7148 11.9883,-8.7783 11.9815,-8.9014 C 11.9815,-8.9014 11.9815,-8.9121 11.9815,-8.9121 C 11.8662,-9.2363 11.8789,-9.6953 11.5186,-9.8242 C 11.5186,-9.8242 11.2588,-9.8242 11.2588,-9.8242 C 11.2588,-9.8242 11.2588,-9.7988 11.2588,-9.7988 C 11.2012,-9.3935 11.4258,-9.0517 11.5947,-8.7217 C 11.5947,-8.7217 11.5996,-8.7031 11.5996,-8.7031 z M 15.5137,-9.8047 C 14.6211,-9.749 14.0078,-9.0781 13.2862,-8.5762 C 13.2862,-8.5762 13.2803,-8.5762 13.2803,-8.5762 C 13.1182,-8.333 12.6895,-8.2187 12.376,-8.0664 C 12.2149,-7.9863 12.0869,-7.8984 12.0352,-7.7715 C 11.9815,-7.6494 12.0108,-7.4873 12.169,-7.2783 C 12.3887,-6.5596 12.3887,-5.7324 11.7813,-5.1816 C 11.7813,-5.1816 11.7744,-5.1758 11.7744,-5.1758 C 11.7744,-5.1758 11.7744,-5.165 11.7744,-5.165 C 12.1104,-4.166 11.8321,-2.8877 10.9453,-2.168 C 10.9453,-2.168 10.9395,-2.168 10.9395,-2.168 C 10.8067,-1.9766 10.5567,-1.9375 10.3428,-1.8662 C 10.1231,-1.7969 9.9346,-1.6943 9.9375,-1.3857 C 9.7168,-0.8877 9.2188,-0.5 8.7735,-0.331 C 7.5498,0 6.2813,-0.4414 5.5,-1.4951 C 5.5,-1.4951 5.5,-1.501 5.5,-1.501 C 5.5,-1.501 5.4922,-1.501 5.4922,-1.501 C 4.8213,-1.501 4.043,-1.6172 3.5508,-2.1162 C 3.5508,-2.1162 3.5459,-2.1162 3.5459,-2.1162 C 2.7696,-2.7754 2.4961,-3.8301 2.7696,-4.8281 C 2.7696,-4.8281 2.7744,-4.8408 2.7744,-4.8408 C 2.7744,-4.8408 2.7696,-4.8447 2.7696,-4.8447 C 1.9922,-5.5117 1.6563,-6.3398 1.6055,-7.2842 C 1.5469,-7.9502 1.9922,-8.3906 2.1035,-8.9531 C 2.1035,-8.9531 2.1035,-8.9658 2.1035,-8.9658 C 2.1035,-8.9658 2.0957,-8.9707 2.0957,-8.9707 C 1.4336,-9.5771 0.8799,-10.4639 0.0401,-10.6416 C 0.0401,-10.6416 0,-10.7959 0,-10.7959 C 0.0098,-10.8447 0.0362,-10.8994 0.0401,-10.9541 C 0.9883,-11.0771 1.4326,-12.0791 1.9864,-12.6855 C 1.9864,-12.6855 2,-12.6914 2,-12.6914 C 2,-12.6914 1.9864,-12.7031 1.9864,-12.7031 C 1.5918,-13.0898 0.9854,-13.374 0.9326,-13.9199 C 0.9326,-13.9199 0.9326,-13.9258 0.9326,-13.9258 C 0.7422,-14.2266 0.875,-14.4814 0.9903,-14.7178 C 1.0996,-14.9551 1.1856,-15.1797 0.8731,-15.3769 C 0.7119,-15.7637 0.6553,-16.2588 0.8223,-16.6396 C 1.1817,-16.835 1.2002,-17.084 1.1358,-17.3428 C 1.0713,-17.6055 0.9326,-17.8769 0.9903,-18.1504 C 0.9903,-18.1504 0.9903,-18.1553 0.9903,-18.1553 C 0.9903,-18.7041 1.4307,-19.1465 1.8711,-19.3711 C 1.8711,-19.3711 1.8828,-19.3711 1.8828,-19.3711 C 1.8828,-19.3711 1.8828,-19.3838 1.8828,-19.3838 C 1.8252,-19.8769 2.1035,-20.4316 2.4912,-20.7051 C 3.2031,-21.2607 4.2578,-20.8721 5.041,-20.7051 C 5.041,-20.7051 5.0528,-20.7051 5.0528,-20.7051 C 5.1563,-20.7744 5.2647,-20.8408 5.374,-20.9043 C 5.4072,-20.9248 5.4414,-20.9433 5.4756,-20.9629 C 5.5576,-21.0068 5.6416,-21.0508 5.7266,-21.0937 C 5.7627,-21.1103 5.8008,-21.1299 5.8369,-21.1475 C 5.9414,-21.1963 6.0479,-21.2402 6.1553,-21.2861 C 6.1719,-21.293 6.1875,-21.2988 6.2031,-21.3047 C 6.3272,-21.3535 6.4522,-21.3984 6.5781,-21.4375 C 6.6182,-21.4502 6.6572,-21.4609 6.6963,-21.4717 C 6.7891,-21.5019 6.8838,-21.5273 6.9785,-21.5508 C 7.0215,-21.5615 7.0655,-21.5713 7.1094,-21.582 C 7.2149,-21.6055 7.3223,-21.6269 7.4278,-21.6445 C 7.4571,-21.6504 7.4844,-21.6562 7.5127,-21.6611 C 7.6455,-21.6816 7.7803,-21.6973 7.9131,-21.71 C 7.9531,-21.7119 7.9922,-21.7148 8.0313,-21.7168 C 8.1299,-21.7246 8.2285,-21.7266 8.3272,-21.7285 C 8.3721,-21.7295 8.416,-21.7295 8.461,-21.7295 C 8.5781,-21.7275 8.6924,-21.7226 8.8076,-21.7148 C 8.833,-21.7109 8.8594,-21.7109 8.8848,-21.709 C 9.0205,-21.6953 9.1572,-21.6758 9.292,-21.6523 C 9.3301,-21.6445 9.3653,-21.6357 9.4014,-21.6299 C 9.5059,-21.6074 9.6084,-21.582 9.71,-21.5537 C 9.7481,-21.543 9.7871,-21.5332 9.8252,-21.5195 C 9.958,-21.4795 10.0889,-21.4326 10.2168,-21.3779 C 11.3379,-20.1426 13.293,-20.9267 14.7871,-20.6475 C 14.7871,-20.6475 14.7871,-14.1494 14.7871,-14.1494 C 14.1817,-13.9912 13.5684,-14.2666 13.0098,-14.041 C 13.0098,-14.041 13.0039,-14.041 13.0039,-14.041 C 13.0039,-14.041 13.0039,-14.0293 13.0039,-14.0293 C 13.0039,-13.2529 12.7813,-12.5869 12.4453,-11.9209 C 12.4453,-11.9209 12.4405,-11.9092 12.4405,-11.9092 C 12.4405,-11.9092 12.4512,-11.9023 12.4512,-11.9023 C 13.1758,-11.5664 13.8438,-11.1787 14.5098,-10.6758 C 14.5098,-10.6758 14.5117,-10.6767 14.5117,-10.6767 C 14.6563,-10.4785 15.003,-10.4482 15.2676,-10.374 C 15.3955,-10.3389 15.5059,-10.2861 15.5576,-10.2002 C 15.6094,-10.1182 15.6035,-9.998 15.5137,-9.8047 z M 3.3164,-19.0459 C 3.3164,-19.0459 3.3145,-19.0351 3.3145,-19.0351 C 3.3145,-19.0351 3.3145,-19.0459 3.3145,-19.0459 C 3.3145,-19.0459 3.3164,-19.0459 3.3164,-19.0459 z M 1.7549,-18.0381 C 1.7549,-18.0381 1.7442,-18.0459 1.7442,-18.0459 C 1.7442,-18.0459 1.7549,-18.041 1.7549,-18.041 C 1.7549,-18.041 1.7549,-18.0391 1.7549,-18.0381 z M 8.1094,-17.9883 C 8.1094,-17.9883 8.1192,-18 8.1192,-18 C 8.1192,-18 8.1114,-17.9883 8.1114,-17.9883 C 8.1104,-17.9883 8.1104,-17.9883 8.1094,-17.9883 z M 11.3975,-18.4902 C 11.3975,-18.4902 11.3994,-18.4932 11.3994,-18.4932 C 11.3994,-18.4932 11.4024,-18.4971 11.4024,-18.4971 C 11.4024,-18.4971 11.3994,-18.4902 11.3994,-18.4902 C 11.3994,-18.4902 11.3994,-18.4902 11.3975,-18.4902 z M 11.2871,-12.2451 C 11.2871,-12.2451 11.293,-12.2334 11.293,-12.2334 C 11.293,-12.2334 11.2852,-12.2432 11.2852,-12.2432 C 11.2871,-12.2432 11.2871,-12.2432 11.2871,-12.2451 z M 8.7774,-18.376 C 8.7774,-18.376 8.7666,-18.3691 8.7666,-18.3691 C 8.7666,-18.3691 8.7764,-18.3769 8.7764,-18.3769 C 8.7774,-18.376 8.7774,-18.376 8.7774,-18.376 z M 8.7793,-18.3769 C 8.7793,-18.3769 8.7891,-18.3691 8.7891,-18.3691 C 8.7891,-18.3691 8.7774,-18.376 8.7774,-18.376 C 8.7774,-18.376 8.7774,-18.376 8.7793,-18.3769 z M 10.5059,-19.5478 C 10.5059,-19.5478 10.5176,-19.5517 10.5176,-19.5517 C 10.5176,-19.5517 10.5059,-19.5469 10.5059,-19.5469 L 10.5059,-19.5478 z M 2.0899,-8.96 C 2.0899,-8.96 2.0957,-8.9707 2.0957,-8.9707 C 2.0957,-8.9707 2.0918,-8.959 2.0918,-8.959 C 2.0899,-8.959 2.0899,-8.96 2.0899,-8.96 z M 1.9805,-12.6914 C 1.9805,-12.6914 1.9864,-12.6855 1.9864,-12.6855 C 1.9864,-12.6855 1.9805,-12.6914 1.9805,-12.6914 z M 1.9785,-12.6933 C 1.9785,-12.6933 1.9864,-12.7031 1.9864,-12.7031 C 1.9864,-12.7031 1.9805,-12.6914 1.9805,-12.6914 C 1.9795,-12.6924 1.9785,-12.6933 1.9785,-12.6933 z M 10.2266,-21.3877 C 10.2266,-21.3877 10.2246,-21.3838 10.2246,-21.3838 C 10.2246,-21.3838 10.2266,-21.3877 10.2266,-21.3877 z M 11.9551,-17.4844 C 11.9551,-17.4844 11.9658,-17.4883 11.9658,-17.4883 C 11.9658,-17.4883 11.9571,-17.4844 11.9571,-17.4844 C 11.9571,-17.4844 11.9551,-17.4844 11.9551,-17.4844 z M 0.9795,-18.1553 C 0.9795,-18.1553 0.9903,-18.1504 0.9903,-18.1504 C 0.9903,-18.1504 0.9776,-18.1523 0.9776,-18.1523 C 0.9776,-18.1523 0.9795,-18.1533 0.9795,-18.1553 z M 5.0449,-20.7158 C 5.0449,-20.7158 5.0528,-20.7051 5.0528,-20.7051 C 5.0528,-20.7051 5.043,-20.7148 5.043,-20.7148 C 5.043,-20.7148 5.0449,-20.7158 5.0449,-20.7158 z M 12.6231,-10.8545 C 12.6231,-10.8545 12.6016,-10.8769 12.6016,-10.8769 C 12.6016,-10.8769 12.6231,-10.8564 12.6231,-10.8564 C 12.6231,-10.8564 12.6231,-10.8545 12.6231,-10.8545 z M 13.291,-8.5703 C 13.291,-8.5703 13.2803,-8.5762 13.2803,-8.5762 C 13.2803,-8.5762 13.2881,-8.5713 13.2881,-8.5713 C 13.2881,-8.5713 13.291,-8.5703 13.291,-8.5703 z M 3.5381,-2.1055 C 3.5381,-2.1055 3.5459,-2.1162 3.5459,-2.1162 C 3.5459,-2.1162 3.5391,-2.1045 3.5391,-2.1045 C 3.5391,-2.1055 3.5391,-2.1055 3.5381,-2.1055 z M 2.0899,-8.957 C 2.0899,-8.957 2.0918,-8.958 2.0918,-8.959 C 2.0918,-8.959 2.1035,-8.9531 2.1035,-8.9531 C 2.1035,-8.9531 2.0899,-8.957 2.0899,-8.957 z M 10.9492,-2.1601 C 10.9492,-2.1601 10.9453,-2.168 10.9453,-2.168 C 10.9453,-2.168 10.9512,-2.1592 10.9512,-2.1592 C 10.9512,-2.1592 10.9492,-2.1601 10.9492,-2.1601 z M 11.7852,-5.1689 C 11.7852,-5.1689 11.7813,-5.1816 11.7813,-5.1816 C 11.7813,-5.1816 11.7871,-5.1699 11.7871,-5.1699 C 11.7862,-5.1699 11.7852,-5.1689 11.7852,-5.1689 z M 13.461,-9.7402 C 13.461,-9.7402 13.4766,-9.7119 13.4766,-9.7119 C 13.4766,-9.7119 13.46,-9.7383 13.46,-9.7383 C 13.46,-9.7383 13.461,-9.7402 13.461,-9.7402 z M 9.1143,-9.7402 C 9.1143,-9.7402 9.1387,-9.7588 9.1387,-9.7588 C 9.1387,-9.7588 9.1172,-9.7402 9.1172,-9.7402 C 9.1143,-9.7402 9.1143,-9.7402 9.1143,-9.7402 z M 8.9444,-9.6807 C 8.9444,-9.6807 8.917,-9.6699 8.917,-9.6699 C 8.917,-9.6699 8.9434,-9.6807 8.9434,-9.6807 L 8.9444,-9.6807 z M 9.1114,-9.7402 C 9.1114,-9.7402 9.1026,-9.7637 9.1026,-9.7637 C 9.1026,-9.7637 9.1143,-9.7402 9.1143,-9.7402 C 9.1143,-9.7402 9.1114,-9.7402 9.1114,-9.7402 z M 9.6153,-4.166 C 9.6153,-4.166 9.6231,-4.1553 9.6231,-4.1553 C 9.6231,-4.1553 9.6133,-4.166 9.6133,-4.166 C 9.6133,-4.166 9.6153,-4.166 9.6153,-4.166 z M 9.7227,-11.2998 C 9.7227,-11.2998 9.7461,-11.2773 9.7461,-11.2773 C 9.7461,-11.2773 9.7227,-11.2969 9.7227,-11.2969 C 9.7227,-11.2969 9.7227,-11.2998 9.7227,-11.2998 z M 14.7949,-14.1387 C 14.7949,-14.1387 14.7989,-14.1387 14.7989,-14.1387 C 14.7989,-14.1387 14.7959,-14.1387 14.7959,-14.1387 L 14.7949,-14.1387 z M 10.4473,-11.3535 C 10.4473,-11.3535 10.4414,-11.3808 10.4414,-11.3808 C 10.4414,-11.3808 10.4502,-11.3525 10.4502,-11.3525 C 10.4502,-11.3525 10.4473,-11.3535 10.4473,-11.3535 z M 10.8926,-8.8437 C 10.8926,-8.8437 10.8965,-8.8437 10.8965,-8.8437 C 10.8965,-8.8437 10.8926,-8.8437 10.8926,-8.8437 z M 10.0586,-9.7402 C 10.0586,-9.7402 10.0586,-9.7402 10.0586,-9.7392 C 10.0586,-9.7392 10.0293,-9.7295 10.0293,-9.7295 C 10.0293,-9.7295 10.0586,-9.7402 10.0586,-9.7402 z M 10.5625,-8.4551 C 10.5625,-8.4551 10.5391,-8.4375 10.5391,-8.4375 C 10.5391,-8.4375 10.5625,-8.457 10.5625,-8.457 C 10.5625,-8.456 10.5625,-8.456 10.5625,-8.4551 z M 8.5547,-8.8457 C 8.5547,-8.8457 8.5811,-8.8496 8.5811,-8.8496 C 8.5811,-8.8496 8.5537,-8.8428 8.5537,-8.8428 C 8.5537,-8.8428 8.5547,-8.8457 8.5547,-8.8457 z M 10.0586,-9.7402 C 10.0586,-9.7402 10.0586,-9.7705 10.0586,-9.7705 C 10.0586,-9.7705 10.0606,-9.7402 10.0606,-9.7402 C 10.0606,-9.7402 10.0586,-9.7402 10.0586,-9.7402 z M 8.4014,-7.8984 C 8.4014,-7.8984 8.4014,-7.8867 8.4014,-7.8867 C 8.4014,-7.8867 8.4004,-7.8955 8.4004,-7.8955 C 8.4004,-7.8955 8.4014,-7.8984 8.4014,-7.8984 z M 4.0391,-12.2451 C 4.0391,-12.2451 4.0322,-12.2725 4.0322,-12.2725 C 4.0322,-12.2725 4.041,-12.2461 4.041,-12.2461 C 4.041,-12.2461 4.0401,-12.2461 4.0391,-12.2451 z M 4.0391,-12.2432 C 4.0391,-12.2432 4.0147,-12.2334 4.0147,-12.2334 C 4.0147,-12.2334 4.0391,-12.2451 4.0391,-12.2451 C 4.0391,-12.2441 4.0391,-12.2441 4.0391,-12.2432 z M 7.8858,-4.5976 C 7.8858,-4.5976 7.874,-4.5967 7.874,-4.5967 C 7.874,-4.5967 7.8858,-4.6016 7.8858,-4.6016 C 7.8858,-4.6016 7.8858,-4.5976 7.8858,-4.5976 z M 5.2119,-10.1846 C 5.2119,-10.1846 5.2139,-10.2109 5.2139,-10.2109 C 5.2139,-10.2109 5.2139,-10.1816 5.2139,-10.1816 C 5.2139,-10.1816 5.2119,-10.1846 5.2119,-10.1846 z M 6.7149,-11.6875 C 6.7149,-11.6875 6.7031,-11.7168 6.7031,-11.7168 C 6.7031,-11.7168 6.7158,-11.6885 6.7158,-11.6885 C 6.7149,-11.6875 6.7149,-11.6875 6.7149,-11.6875 z M 7.2178,-11.6885 C 7.2178,-11.6885 7.2246,-11.7168 7.2246,-11.7168 C 7.2246,-11.7168 7.2197,-11.6875 7.2197,-11.6875 C 7.2188,-11.6875 7.2178,-11.6885 7.2178,-11.6885 z M 4.9317,-12.0791 C 4.9317,-12.0791 4.9473,-12.1055 4.9473,-12.1055 C 4.9473,-12.1055 4.9317,-12.0791 4.9317,-12.0791 z M 7.6084,-2.6035 C 7.6084,-2.6035 7.5957,-2.6084 7.5957,-2.6084 C 7.5957,-2.6084 7.6065,-2.6064 7.6065,-2.6064 C 7.6065,-2.6064 7.6084,-2.6035 7.6084,-2.6035 z M 8.5869,-3.4228 C 8.5869,-3.4228 8.5752,-3.4199 8.5752,-3.4199 C 8.5752,-3.4199 8.5869,-3.4238 8.5869,-3.4238 L 8.5869,-3.4228 z M 6.2178,-10.7959 C 6.2178,-10.7959 6.2461,-10.8017 6.2461,-10.8017 C 6.2461,-10.8017 6.2178,-10.7959 6.2178,-10.7959 z M 6.2178,-10.7959 C 6.2178,-10.7959 6.2227,-10.7676 6.2227,-10.7676 C 6.2227,-10.7676 6.2149,-10.7949 6.2149,-10.7949 C 6.2149,-10.7949 6.2178,-10.7959 6.2178,-10.7959 z M 14.7949,-20.6592 C 14.7959,-20.6592 14.7989,-20.6582 14.7989,-20.6582 C 14.7989,-20.6582 14.7949,-20.6582 14.7949,-20.6582 L 14.7949,-20.6592 z M 8.6094,-13.4726 C 8.6094,-13.4726 8.6143,-13.4766 8.6143,-13.4766 C 8.6143,-13.4766 8.6133,-13.4707 8.6133,-13.4707 C 8.6114,-13.4707 8.6114,-13.4717 8.6094,-13.4726 z" />
          </g>
        </g>
        <g
           id="g2444">
          <g
             transform="translate(388.09764,553.47205)"
             id="g2446">
            <path
               id="path2448"
               style="fill:none;stroke:#ffffff;stroke-width:0.77684999;stroke-linecap:round;stroke-linejoin:miter;stroke-miterlimit:10;stroke-dasharray:none;stroke-opacity:1"
               d="M 0,0 C 0,0 0,-34.0156 0,-34.0156" />
          </g>
        </g>
      </g>
    </g>
  </g>
</svg>
