<?xml version="1.0" encoding="UTF-8"?>
<svg width="465" height="600" version="1.1" xmlns="http://www.w3.org/2000/svg">
 <path d="m72 170.38c0-19.992-13.778-32.813-30.789-32.813-16.995 0-30.773 12.821-30.773 32.813v34.445h61.593v-34.445z"/>
 <path d="m376.74 167.98c-1.0675-18.611-14.374-30.412-30.679-30.412-16.304 0-29.612 11.801-30.679 30.412h-0.10591v36.83h61.608v-36.83z"/>
 <path d="m376.63 218.05h-104.79v-90.796c0-20.855-8.1287-40.439-22.864-55.19-11.393-11.393-25.689-18.799-41.208-21.593v-40.471h-27.195v40.345c-36.752 6.3084-64.825 38.384-64.825 76.908v90.985h-105.45v0.95684h-0.20479v155.84h41.977v-114.84h104.45v-84.127h74.539v83.641h0.32954v0.31542h103.88v114.81h41.961v-156.78zm-145.58-82.746h-74.539v-8.0502c0-9.9646 3.8762-19.317 10.922-26.363 7.0302-7.0302 16.399-10.906 26.347-10.906 9.9647 0 19.317 3.8762 26.363 10.906 7.0302 7.0459 10.906 16.399 10.906 26.363z"/>
 <path d="m230.67 319.53v52.256l-113.93-0.0471v104.34l115.12-0.012v113.93h109.13v-113.93l113.93 0.012v-100.54h-5.9945v94.547h-113.93v113.94l-97.152-0.035 0.0118-113.91h-115.1v-92.318l113.91-0.0118v-58.219z"/>
</svg>
