<?xml version="1.0" encoding="UTF-8" standalone="no"?>
<!-- Created with Inkscape (http://www.inkscape.org/) -->
<svg
   xmlns:dc="http://purl.org/dc/elements/1.1/"
   xmlns:cc="http://creativecommons.org/ns#"
   xmlns:rdf="http://www.w3.org/1999/02/22-rdf-syntax-ns#"
   xmlns:svg="http://www.w3.org/2000/svg"
   xmlns="http://www.w3.org/2000/svg"
   xmlns:sodipodi="http://sodipodi.sourceforge.net/DTD/sodipodi-0.dtd"
   xmlns:inkscape="http://www.inkscape.org/namespaces/inkscape"
   width="500"
   height="192.36"
   id="svg2"
   sodipodi:version="0.32"
   inkscape:version="0.46"
   version="1.0"
   sodipodi:docname="Logo Christlich-soziale Partei.svg"
   inkscape:output_extension="org.inkscape.output.svg.inkscape">
  <defs
     id="defs4">
    <inkscape:perspective
       sodipodi:type="inkscape:persp3d"
       inkscape:vp_x="0 : 526.18109 : 1"
       inkscape:vp_y="0 : 1000 : 0"
       inkscape:vp_z="744.09448 : 526.18109 : 1"
       inkscape:persp3d-origin="372.04724 : 350.78739 : 1"
       id="perspective10" />
    <clipPath
       id="clipPath2806"
       clipPathUnits="userSpaceOnUse">
      <path
         id="path2808"
         d="M 105,9.25 L 209.882,9.25 L 209.882,158.069 L 105,158.069 L 105,9.25 z" />
    </clipPath>
    <clipPath
       id="clipPath2560"
       clipPathUnits="userSpaceOnUse">
      <path
         id="path2562"
         d="M 92.675,22.0156 L 326.8363,22.0156 L 326.8363,124.6907 L 92.675,124.6907 L 92.675,22.0156 z" />
    </clipPath>
    <clipPath
       id="clipPath2552"
       clipPathUnits="userSpaceOnUse">
      <path
         id="path2554"
         d="M 28.346,35.7016 L 391.181,35.7016 L 391.181,129.3556 L 28.346,129.3556 L 28.346,35.7016 z" />
    </clipPath>
    <clipPath
       id="clipPath2428"
       clipPathUnits="userSpaceOnUse">
      <path
         id="path2430"
         d="M 28.867,127.5415 L 254.018,127.5415 L 254.018,577.9155 L 28.867,577.9155 L 28.867,127.5415 z" />
    </clipPath>
    <clipPath
       id="clipPath2418"
       clipPathUnits="userSpaceOnUse">
      <path
         id="path2420"
         d="M 105,9.25 L 209.882,9.25 L 209.882,158.069 L 105,158.069 L 105,9.25 z" />
    </clipPath>
    <inkscape:perspective
       id="perspective2410"
       inkscape:persp3d-origin="372.04724 : 350.78739 : 1"
       inkscape:vp_z="744.09448 : 526.18109 : 1"
       inkscape:vp_y="0 : 1000 : 0"
       inkscape:vp_x="0 : 526.18109 : 1"
       sodipodi:type="inkscape:persp3d" />
  </defs>
  <sodipodi:namedview
     id="base"
     pagecolor="#ffffff"
     bordercolor="#666666"
     borderopacity="1.0"
     inkscape:pageopacity="0.0"
     inkscape:pageshadow="2"
     inkscape:zoom="0.98994949"
     inkscape:cx="178.69012"
     inkscape:cy="171.69621"
     inkscape:document-units="px"
     inkscape:current-layer="layer1"
     showgrid="false"
     inkscape:window-width="1280"
     inkscape:window-height="750"
     inkscape:window-x="-8"
     inkscape:window-y="-8" />
  <metadata
     id="metadata7">
    <rdf:RDF>
      <cc:Work
         rdf:about="">
        <dc:format>image/svg+xml</dc:format>
        <dc:type
           rdf:resource="http://purl.org/dc/dcmitype/StillImage" />
      </cc:Work>
    </rdf:RDF>
  </metadata>
  <g
     inkscape:label="Ebene 1"
     inkscape:groupmode="layer"
     id="layer1"
     transform="translate(-225.69642,-406.37026)">
    <g
       id="g2414"
       transform="matrix(1.25,0,0,-1.25,31.58125,1079.6395)">
      <g
         id="g2416"
         clip-path="url(#clipPath2418)" />
    </g>
    <g
       id="g2802"
       transform="matrix(1.25,0,0,-1.25,31.58125,1079.6395)">
      <g
         id="g2804"
         clip-path="url(#clipPath2806)" />
    </g>
    <g
       id="g3431"
       transform="matrix(1.6398952,0,0,1.6398952,-134.42207,-360.33159)">
      <path
         id="path2422"
         style="fill:#0096a7;fill-opacity:1;fill-rule:nonzero;stroke:none"
         d="M 226.48564,578.73453 L 517.60885,578.73453 L 517.60885,473.62766 L 226.48564,473.62766 L 226.48564,578.73453 z" />
      <g
         transform="matrix(1.25,0,0,-1.25,109.85268,631.37403)"
         id="g2548">
        <g
           clip-path="url(#clipPath2552)"
           id="g2550">
          <g
             id="g2556">
            <g
               clip-path="url(#clipPath2560)"
               id="g2558">
              <path
                 id="path2564"
                 style="fill:#ffffff;fill-opacity:1;fill-rule:nonzero;stroke:none"
                 d="M 158.9354,84.2054 C 158.0485,84.7412 157.1635,84.9828 156.011,84.9828 C 153.9177,84.9828 152.3085,83.535 152.3085,81.119 C 152.3085,78.8923 154.187,77.4444 156.2781,77.4444 C 157.3781,77.4444 158.479,77.6846 159.284,78.1148 L 159.3899,74.5188 C 158.1835,74.1163 156.7344,73.9016 155.4476,73.9016 C 150.8331,73.9016 147.3185,76.5847 147.3185,81.1998 C 147.3185,85.8425 150.8331,88.5249 155.4476,88.5249 C 156.896,88.5249 158.1835,88.2833 159.284,87.7468" />
              <path
                 id="path2566"
                 style="fill:#ffffff;fill-opacity:1;fill-rule:nonzero;stroke:none"
                 d="M 173.4789,78.0872 C 174.6058,77.606 176.2686,77.1212 178.0126,77.1212 C 179.0053,77.1212 179.9712,77.2828 179.9712,78.2488 C 179.9712,80.6094 173.1033,78.9476 173.1033,83.9914 C 173.1033,87.2096 176.2686,88.5249 179.059,88.5249 C 180.721,88.5249 182.4121,88.3364 183.9683,87.7206 L 183.5927,84.3663 C 182.5738,84.9828 181.0437,85.3053 179.8356,85.3053 C 178.7892,85.3053 177.6086,85.1168 177.6086,84.3393 C 177.6086,82.1658 184.8,83.8829 184.8,78.5712 C 184.8,74.8413 181.4462,73.9016 178.2802,73.9016 C 176.1076,73.9016 174.6312,74.1163 173.2114,74.5727" />
              <path
                 id="path2568"
                 style="fill:#ffffff;fill-opacity:1;fill-rule:nonzero;stroke:none"
                 d="M 165.742,78.9323 C 167.0416,78.9323 168.0971,79.9864 168.0971,81.2872 C 168.0971,82.588 167.0416,83.6434 165.742,83.6434 C 164.4414,83.6434 163.3861,82.588 163.3861,81.2872 C 163.3861,79.9864 164.4414,78.9323 165.742,78.9323" />
              <path
                 id="path2570"
                 style="fill:#ffffff;fill-opacity:1;fill-rule:nonzero;stroke:none"
                 d="M 246.5869,84.2054 C 245.7007,84.7412 244.8153,84.9828 243.6638,84.9828 C 241.571,84.9828 239.9612,83.535 239.9612,81.119 C 239.9612,78.8923 241.8386,77.4444 243.9306,77.4444 C 245.0307,77.4444 246.1315,77.6846 246.935,78.1148 L 247.043,74.5188 C 245.8341,74.1163 244.3875,73.9016 243.0981,73.9016 C 238.4847,73.9016 234.9706,76.5847 234.9706,81.1998 C 234.9706,85.8425 238.4847,88.5249 243.0981,88.5249 C 244.5492,88.5249 245.8341,88.2833 246.935,87.7468" />
              <path
                 id="path2572"
                 style="fill:#ffffff;fill-opacity:1;fill-rule:nonzero;stroke:none"
                 d="M 261.1322,78.0872 C 262.2576,77.606 263.9196,77.1212 265.6651,77.1212 C 266.6563,77.1212 267.6215,77.2828 267.6215,78.2488 C 267.6215,80.6094 260.7565,78.9476 260.7565,83.9914 C 260.7565,87.2096 263.9196,88.5249 266.71,88.5249 C 268.3742,88.5249 270.0638,88.3364 271.62,87.7206 L 271.2459,84.3663 C 270.2241,84.9828 268.6955,85.3053 267.4888,85.3053 C 266.4424,85.3053 265.2619,85.1168 265.2619,84.3393 C 265.2619,82.1658 272.4525,83.8829 272.4525,78.5712 C 272.4525,74.8413 269.0987,73.9016 265.9326,73.9016 C 263.7579,73.9016 262.2836,74.1163 260.8616,74.5727" />
              <path
                 id="path2574"
                 style="fill:#ffffff;fill-opacity:1;fill-rule:nonzero;stroke:none"
                 d="M 253.3922,78.9323 C 254.6935,78.9323 255.7489,79.9864 255.7489,81.2872 C 255.7489,82.588 254.6935,83.6434 253.3922,83.6434 C 252.0939,83.6434 251.0386,82.588 251.0386,81.2872 C 251.0386,79.9864 252.0939,78.9323 253.3922,78.9323" />
              <path
                 id="path2576"
                 style="fill:#ffffff;fill-opacity:1;fill-rule:nonzero;stroke:none"
                 d="M 121.71,43.7082 L 123.0958,43.7082 L 123.0958,45.5262 L 123.6322,45.5262 C 124.9296,45.5262 125.6974,46.1531 125.6974,47.2034 C 125.6974,48.3736 124.9521,48.9111 123.3644,48.9111 L 121.71,48.9111 L 121.71,43.7082 z M 123.0958,47.9272 L 123.4546,47.9272 C 123.9303,47.9272 124.3113,47.7557 124.3113,47.2265 C 124.3113,46.6823 123.9303,46.5101 123.4546,46.5101 L 123.0958,46.5101" />
              <path
                 id="path2578"
                 style="fill:#ffffff;fill-opacity:1;fill-rule:nonzero;stroke:none"
                 d="M 129.7435,43.7082 C 129.6845,44.0138 129.6689,44.3187 129.6689,44.625 L 129.6689,46.0704 C 129.6689,47.2555 128.8118,47.6812 127.8212,47.6812 C 127.2466,47.6812 126.7473,47.5992 126.271,47.4046 L 126.2932,46.496 C 126.6658,46.7054 127.0982,46.7859 127.5301,46.7859 C 128.0145,46.7859 128.4108,46.6443 128.4177,46.1158 C 128.246,46.1464 128.0076,46.168 127.7911,46.168 C 127.0759,46.168 125.7866,46.0256 125.7866,44.8419 C 125.7866,43.9982 126.4719,43.618 127.2401,43.618 C 127.7911,43.618 128.1637,43.8342 128.4701,44.3187 L 128.4854,44.3187 C 128.4854,44.1182 128.5069,43.9169 128.5142,43.7082 L 129.7435,43.7082 z M 127.0388,44.9388 C 127.0388,45.3115 127.3962,45.4517 127.8518,45.4517 C 128.0516,45.4517 128.246,45.4368 128.4177,45.4293 C 128.4177,44.9761 128.0975,44.5132 127.5906,44.5132 C 127.2772,44.5132 127.0388,44.669 127.0388,44.9388" />
              <path
                 id="path2580"
                 style="fill:#ffffff;fill-opacity:1;fill-rule:nonzero;stroke:none"
                 d="M 133.2989,46.5191 C 133.1501,46.5631 133.0012,46.5631 132.8448,46.5631 C 132.2184,46.5631 131.868,46.1084 131.868,45.3488 L 131.868,43.7082 L 130.5262,43.7082 L 130.5262,47.591 L 131.749,47.591 L 131.749,46.8761 L 131.7646,46.8761 C 131.9943,47.3681 132.3302,47.6812 132.9106,47.6812 C 133.0686,47.6812 133.2312,47.6588 133.3663,47.6372" />
              <path
                 id="path2582"
                 style="fill:#ffffff;fill-opacity:1;fill-rule:nonzero;stroke:none"
                 d="M 133.9394,47.591 L 134.7295,47.591 L 134.7295,48.4631 L 136.0491,48.8738 L 136.0491,47.591 L 136.9883,47.591 L 136.9883,46.6533 L 136.0491,46.6533 L 136.0491,45.2214 C 136.0491,44.7525 136.1608,44.5132 136.5847,44.5132 C 136.7198,44.5132 136.8609,44.5445 136.9948,44.5661 L 137.0407,43.6933 C 136.7867,43.6627 136.5334,43.618 136.1986,43.618 C 134.9977,43.618 134.708,44.1472 134.708,45.0723 L 134.708,46.6533 L 133.9394,46.6533" />
              <path
                 id="path2584"
                 style="fill:#ffffff;fill-opacity:1;fill-rule:nonzero;stroke:none"
                 d="M 139.0903,48.2246 L 137.7489,48.2246 L 137.7489,49.2085 L 139.0903,49.2085 L 139.0903,48.2246 z M 137.7489,47.591 L 139.0903,47.591 L 139.0903,43.7082 L 137.7489,43.7082" />
              <path
                 id="path2586"
                 style="fill:#ffffff;fill-opacity:1;fill-rule:nonzero;stroke:none"
                 d="M 145.5516,46.4811 C 145.3049,46.6294 145.0592,46.6965 144.7397,46.6965 C 144.1582,46.6965 143.7113,46.2947 143.7113,45.6231 C 143.7113,45.0052 144.2325,44.6034 144.8139,44.6034 C 145.1185,44.6034 145.4253,44.669 145.6487,44.7898 L 145.6775,43.7894 C 145.3424,43.6776 144.9406,43.618 144.5833,43.618 C 143.3008,43.618 142.3237,44.3634 142.3237,45.647 C 142.3237,46.9358 143.3008,47.6812 144.5833,47.6812 C 144.985,47.6812 145.3424,47.6141 145.6487,47.4643" />
              <path
                 id="path2588"
                 style="fill:#ffffff;fill-opacity:1;fill-rule:nonzero;stroke:none"
                 d="M 146.2365,49.2987 L 147.5783,49.2987 L 147.5783,47.017 L 147.5935,47.017 C 147.8846,47.4203 148.3098,47.6812 148.8906,47.6812 C 149.9485,47.6812 150.3731,46.9358 150.3731,46.1307 L 150.3731,43.7082 L 149.0314,43.7082 L 149.0314,45.5873 C 149.0314,46.3171 148.7792,46.5631 148.4131,46.5631 C 147.8629,46.5631 147.5783,46.1822 147.5783,45.3488 L 147.5783,43.7082 L 146.2365,43.7082" />
              <path
                 id="path2590"
                 style="fill:#ffffff;fill-opacity:1;fill-rule:nonzero;stroke:none"
                 d="M 153.981,46.5191 C 153.8318,46.5631 153.6826,46.5631 153.5269,46.5631 C 152.9001,46.5631 152.5501,46.1084 152.5501,45.3488 L 152.5501,43.7082 L 151.2079,43.7082 L 151.2079,47.591 L 152.4308,47.591 L 152.4308,46.8761 L 152.4457,46.8761 C 152.6767,47.3681 153.0122,47.6812 153.593,47.6812 C 153.7499,47.6812 153.9133,47.6588 154.0476,47.6372" />
              <path
                 id="path2592"
                 style="fill:#ffffff;fill-opacity:1;fill-rule:nonzero;stroke:none"
                 d="M 158.3713,45.2586 L 158.3713,45.5046 C 158.3713,46.6592 157.8476,47.6812 156.4098,47.6812 C 155.2019,47.6812 154.3318,46.9358 154.3318,45.6529 C 154.3318,44.3708 155.3071,43.618 156.5895,43.618 C 157.0889,43.618 157.5809,43.6933 158.0125,43.864 L 158.0125,44.8114 C 157.6107,44.5945 157.1922,44.5132 156.8282,44.5132 C 156.1707,44.5132 155.7628,44.7212 155.6867,45.2586 L 158.3713,45.2586 z M 155.873,48.0695 L 156.813,48.0695 L 157.7741,49.1414 L 156.3814,49.1414 L 155.873,48.0695 z M 155.6732,46.0197 C 155.7016,46.4669 155.9338,46.8307 156.4185,46.8307 C 156.9538,46.8307 157.1638,46.4669 157.1638,46.0197" />
              <path
                 id="path2594"
                 style="fill:#ffffff;fill-opacity:1;fill-rule:nonzero;stroke:none"
                 d="M 158.7287,47.591 L 159.5183,47.591 L 159.5183,48.4631 L 160.8379,48.8738 L 160.8379,47.591 L 161.7761,47.591 L 161.7761,46.6533 L 160.8379,46.6533 L 160.8379,45.2214 C 160.8379,44.7525 160.9492,44.5132 161.3744,44.5132 C 161.5082,44.5132 161.6491,44.5445 161.7848,44.5661 L 161.8285,43.6933 C 161.5741,43.6627 161.3219,43.618 160.9864,43.618 C 159.7858,43.618 159.4958,44.1472 159.4958,45.0723 L 159.4958,46.6533 L 158.7287,46.6533" />
              <path
                 id="path2596"
                 style="fill:#ffffff;fill-opacity:1;fill-rule:nonzero;stroke:none"
                 d="M 164.0273,48.2246 L 162.6859,48.2246 L 162.6859,49.2085 L 164.0273,49.2085 L 164.0273,48.2246 z M 162.6859,47.591 L 164.0273,47.591 L 164.0273,43.7082 L 162.6859,43.7082" />
              <path
                 id="path2598"
                 style="fill:#ffffff;fill-opacity:1;fill-rule:nonzero;stroke:none"
                 d="M 168.8715,45.2586 L 168.8715,45.5046 C 168.8715,46.6592 168.3498,47.6812 166.9116,47.6812 C 165.7042,47.6812 164.8315,46.9358 164.8315,45.6529 C 164.8315,44.3708 165.809,43.618 167.0896,43.618 C 167.5896,43.618 168.0822,43.6933 168.5145,43.864 L 168.5145,44.8114 C 168.1113,44.5945 167.6939,44.5132 167.3287,44.5132 C 166.6729,44.5132 166.2632,44.7212 166.1889,45.2586 L 168.8715,45.2586 z M 166.1733,46.0197 C 166.2035,46.4669 166.4342,46.8307 166.9186,46.8307 C 167.4561,46.8307 167.6641,46.4669 167.6641,46.0197" />
              <path
                 id="path2600"
                 style="fill:#ffffff;fill-opacity:1;fill-rule:nonzero;stroke:none"
                 d="M 169.5728,47.591 L 170.7936,47.591 L 170.7936,46.8761 L 170.81,46.8761 C 171.0768,47.4352 171.6142,47.6812 172.2253,47.6812 C 173.2837,47.6812 173.7092,46.9358 173.7092,46.1307 L 173.7092,43.7082 L 172.3677,43.7082 L 172.3677,45.5873 C 172.3677,46.3171 172.1143,46.5631 171.7476,46.5631 C 171.1968,46.5631 170.9143,46.1822 170.9143,45.3488 L 170.9143,43.7082 L 169.5728,43.7082" />
              <path
                 id="path2602"
                 style="fill:#ffffff;fill-opacity:1;fill-rule:nonzero;stroke:none"
                 d="M 174.3561,45.2214 L 176.3774,45.2214 L 176.3774,46.2061 L 174.3561,46.2061 L 174.3561,45.2214 z" />
              <path
                 id="path2604"
                 style="fill:#ffffff;fill-opacity:1;fill-rule:nonzero;stroke:none"
                 d="M 176.9513,44.7808 C 177.2628,44.6466 177.7256,44.5132 178.2101,44.5132 C 178.4866,44.5132 178.7534,44.5572 178.7534,44.8263 C 178.7534,45.4815 176.8469,45.0193 176.8469,46.4207 C 176.8469,47.3152 177.7256,47.6812 178.5008,47.6812 C 178.9621,47.6812 179.4324,47.6282 179.8647,47.4576 L 179.7596,46.5258 C 179.4771,46.6965 179.0515,46.7859 178.7162,46.7859 C 178.427,46.7859 178.0983,46.7338 178.0983,46.5191 C 178.0983,45.9138 180.0949,46.3924 180.0949,44.9172 C 180.0949,43.8796 179.1633,43.618 178.2846,43.618 C 177.6817,43.618 177.271,43.6776 176.8767,43.8043" />
              <path
                 id="path2606"
                 style="fill:#ffffff;fill-opacity:1;fill-rule:nonzero;stroke:none"
                 d="M 182.8235,43.618 C 184.1062,43.618 185.0818,44.3634 185.0818,45.647 C 185.0818,46.9358 184.1062,47.6812 182.8235,47.6812 C 181.5416,47.6812 180.566,46.9358 180.566,45.647 C 180.566,44.3634 181.5416,43.618 182.8235,43.618 z M 182.8235,44.5572 C 182.2056,44.5572 181.9515,45.0723 181.9515,45.647 C 181.9515,46.2269 182.2056,46.7412 182.8235,46.7412 C 183.4421,46.7412 183.6962,46.2269 183.6962,45.647 C 183.6962,45.0723 183.4421,44.5572 182.8235,44.5572" />
              <path
                 id="path2608"
                 style="fill:#ffffff;fill-opacity:1;fill-rule:nonzero;stroke:none"
                 d="M 188.7717,46.4811 C 188.525,46.6294 188.2784,46.6965 187.9579,46.6965 C 187.3765,46.6965 186.9301,46.2947 186.9301,45.6231 C 186.9301,45.0052 187.4518,44.6034 188.0324,44.6034 C 188.3387,44.6034 188.6443,44.669 188.8671,44.7898 L 188.8977,43.7894 C 188.5623,43.6776 188.1599,43.618 187.8028,43.618 C 186.5202,43.618 185.5438,44.3634 185.5438,45.647 C 185.5438,46.9358 186.5202,47.6812 187.8028,47.6812 C 188.2053,47.6812 188.5623,47.6141 188.8671,47.4643" />
              <path
                 id="path2610"
                 style="fill:#ffffff;fill-opacity:1;fill-rule:nonzero;stroke:none"
                 d="M 190.9547,48.2246 L 189.6124,48.2246 L 189.6124,49.2085 L 190.9547,49.2085 L 190.9547,48.2246 z M 189.6124,47.591 L 190.9547,47.591 L 190.9547,43.7082 L 189.6124,43.7082" />
              <path
                 id="path2612"
                 style="fill:#ffffff;fill-opacity:1;fill-rule:nonzero;stroke:none"
                 d="M 195.7172,43.7082 C 195.6583,44.0138 195.6427,44.3187 195.6427,44.625 L 195.6427,46.0704 C 195.6427,47.2555 194.7856,47.6812 193.7951,47.6812 C 193.2204,47.6812 192.7211,47.5992 192.2433,47.4046 L 192.2672,46.496 C 192.6398,46.7054 193.0714,46.7859 193.5036,46.7859 C 193.9888,46.7859 194.3831,46.6443 194.3905,46.1158 C 194.2184,46.1464 193.9814,46.168 193.7652,46.168 C 193.0498,46.168 191.7589,46.0256 191.7589,44.8419 C 191.7589,43.9982 192.4453,43.618 193.2122,43.618 C 193.7652,43.618 194.1379,43.8342 194.442,44.3187 L 194.4569,44.3187 C 194.4569,44.1182 194.4792,43.9169 194.4874,43.7082 L 195.7172,43.7082 z M 193.0125,44.9388 C 193.0125,45.3115 193.3695,45.4517 193.8241,45.4517 C 194.0253,45.4517 194.2184,45.4368 194.3905,45.4293 C 194.3905,44.9761 194.0693,44.5132 193.5633,44.5132 C 193.2495,44.5132 193.0125,44.669 193.0125,44.9388" />
              <path
                 id="path2614"
                 style="fill:#ffffff;fill-opacity:1;fill-rule:nonzero;stroke:none"
                 d="M 196.6563,43.7082 L 197.9971,43.7082 L 197.9971,49.2987 L 196.6563,49.2987 L 196.6563,43.7082 z" />
              <path
                 id="path2616"
                 style="fill:#ffffff;fill-opacity:1;fill-rule:nonzero;stroke:none"
                 d="M 213.307,43.8275 C 212.9128,43.7306 212.4715,43.618 211.7642,43.618 C 210.3757,43.618 208.7733,44.3187 208.7733,46.2865 C 208.7733,48.0978 210.0404,49.0013 211.7553,49.0013 C 212.2852,49.0013 212.7972,48.8805 213.2981,48.7322 L 213.1863,47.6066 C 212.7391,47.8519 212.3068,47.9719 211.8306,47.9719 C 210.8468,47.9719 210.2051,47.2555 210.2051,46.2865 C 210.2051,45.2653 210.9288,44.6466 211.9416,44.6466 C 212.397,44.6466 212.8568,44.7659 213.2384,44.9172" />
              <path
                 id="path2618"
                 style="fill:#ffffff;fill-opacity:1;fill-rule:nonzero;stroke:none"
                 d="M 214.021,49.2987 L 215.3625,49.2987 L 215.3625,47.017 L 215.3774,47.017 C 215.6666,47.4203 216.0922,47.6812 216.6743,47.6812 C 217.7326,47.6812 218.1574,46.9358 218.1574,46.1307 L 218.1574,43.7082 L 216.8151,43.7082 L 216.8151,45.5873 C 216.8151,46.3171 216.561,46.5631 216.198,46.5631 C 215.645,46.5631 215.3625,46.1822 215.3625,45.3488 L 215.3625,43.7082 L 214.021,43.7082" />
              <path
                 id="path2620"
                 style="fill:#ffffff;fill-opacity:1;fill-rule:nonzero;stroke:none"
                 d="M 221.7632,46.5191 C 221.6134,46.5631 221.4666,46.5631 221.3093,46.5631 C 220.6817,46.5631 220.3337,46.1084 220.3337,45.3488 L 220.3337,43.7082 L 218.9929,43.7082 L 218.9929,47.591 L 220.2144,47.591 L 220.2144,46.8761 L 220.2294,46.8761 C 220.4589,47.3681 220.795,47.6812 221.3779,47.6812 C 221.5336,47.6812 221.6976,47.6588 221.8318,47.6372" />
              <path
                 id="path2622"
                 style="fill:#ffffff;fill-opacity:1;fill-rule:nonzero;stroke:none"
                 d="M 223.8739,48.2246 L 222.5331,48.2246 L 222.5331,49.2085 L 223.8739,49.2085 L 223.8739,48.2246 z M 222.5331,47.591 L 223.8739,47.591 L 223.8739,43.7082 L 222.5331,43.7082" />
              <path
                 id="path2624"
                 style="fill:#ffffff;fill-opacity:1;fill-rule:nonzero;stroke:none"
                 d="M 224.7913,44.7808 C 225.1029,44.6466 225.5657,44.5132 226.0487,44.5132 C 226.3252,44.5132 226.5935,44.5572 226.5935,44.8263 C 226.5935,45.4815 224.6848,45.0193 224.6848,46.4207 C 224.6848,47.3152 225.5657,47.6812 226.3401,47.6812 C 226.8029,47.6812 227.2717,47.6282 227.704,47.4576 L 227.6004,46.5258 C 227.3164,46.6965 226.8916,46.7859 226.5569,46.7859 C 226.2655,46.7859 225.9384,46.7338 225.9384,46.5191 C 225.9384,45.9138 227.9372,46.3924 227.9372,44.9172 C 227.9372,43.8796 227.0049,43.618 226.1262,43.618 C 225.5202,43.618 225.1111,43.6776 224.7168,43.8043" />
              <path
                 id="path2626"
                 style="fill:#ffffff;fill-opacity:1;fill-rule:nonzero;stroke:none"
                 d="M 228.3986,47.591 L 229.1894,47.591 L 229.1894,48.4631 L 230.5063,48.8738 L 230.5063,47.591 L 231.4469,47.591 L 231.4469,46.6533 L 230.5063,46.6533 L 230.5063,45.2214 C 230.5063,44.7525 230.6181,44.5132 231.0437,44.5132 C 231.1771,44.5132 231.3187,44.5445 231.4528,44.5661 L 231.499,43.6933 C 231.2441,43.6627 230.9907,43.618 230.6561,43.618 C 229.4554,43.618 229.1655,44.1472 229.1655,45.0723 L 229.1655,46.6533 L 228.3986,46.6533" />
              <path
                 id="path2628"
                 style="fill:#ffffff;fill-opacity:1;fill-rule:nonzero;stroke:none"
                 d="M 232.2063,43.7082 L 233.5486,43.7082 L 233.5486,49.2987 L 232.2063,49.2987 L 232.2063,43.7082 z" />
              <path
                 id="path2630"
                 style="fill:#ffffff;fill-opacity:1;fill-rule:nonzero;stroke:none"
                 d="M 235.8881,48.2246 L 234.5473,48.2246 L 234.5473,49.2085 L 235.8881,49.2085 L 235.8881,48.2246 z M 234.5473,47.591 L 235.8881,47.591 L 235.8881,43.7082 L 234.5473,43.7082" />
              <path
                 id="path2632"
                 style="fill:#ffffff;fill-opacity:1;fill-rule:nonzero;stroke:none"
                 d="M 239.9202,46.4811 C 239.6742,46.6294 239.4283,46.6965 239.1063,46.6965 C 238.5272,46.6965 238.0785,46.2947 238.0785,45.6231 C 238.0785,45.0052 238.601,44.6034 239.1823,44.6034 C 239.4879,44.6034 239.7935,44.669 240.0178,44.7898 L 240.0469,43.7894 C 239.7122,43.6776 239.309,43.618 238.952,43.618 C 237.6694,43.618 236.693,44.3634 236.693,45.647 C 236.693,46.9358 237.6694,47.6812 238.952,47.6812 C 239.3537,47.6812 239.7122,47.6141 240.0178,47.4643" />
              <path
                 id="path2634"
                 style="fill:#ffffff;fill-opacity:1;fill-rule:nonzero;stroke:none"
                 d="M 240.6059,49.2987 L 241.9481,49.2987 L 241.9481,47.017 L 241.9623,47.017 C 242.2537,47.4203 242.6785,47.6812 243.2591,47.6812 C 244.3174,47.6812 244.743,46.9358 244.743,46.1307 L 244.743,43.7082 L 243.4007,43.7082 L 243.4007,45.5873 C 243.4007,46.3171 243.1473,46.5631 242.7821,46.5631 C 242.2321,46.5631 241.9481,46.1822 241.9481,45.3488 L 241.9481,43.7082 L 240.6059,43.7082" />
              <path
                 id="path2636"
                 style="fill:#ffffff;fill-opacity:1;fill-rule:nonzero;stroke:none"
                 d="M 245.3907,45.2214 L 247.4112,45.2214 L 247.4112,46.2061 L 245.3907,46.2061 L 245.3907,45.2214 z" />
              <path
                 id="path2638"
                 style="fill:#ffffff;fill-opacity:1;fill-rule:nonzero;stroke:none"
                 d="M 247.9843,44.7808 C 248.2959,44.6466 248.7587,44.5132 249.2439,44.5132 C 249.5204,44.5132 249.7865,44.5572 249.7865,44.8263 C 249.7865,45.4815 247.88,45.0193 247.88,46.4207 C 247.88,47.3152 248.7587,47.6812 249.5345,47.6812 C 249.9959,47.6812 250.4662,47.6282 250.8985,47.4576 L 250.7941,46.5258 C 250.5101,46.6965 250.0853,46.7859 249.7485,46.7859 C 249.4608,46.7859 249.1313,46.7338 249.1313,46.5191 C 249.1313,45.9138 251.1302,46.3924 251.1302,44.9172 C 251.1302,43.8796 250.1986,43.618 249.3177,43.618 C 248.7155,43.618 248.3048,43.6776 247.909,43.8043" />
              <path
                 id="path2640"
                 style="fill:#ffffff;fill-opacity:1;fill-rule:nonzero;stroke:none"
                 d="M 253.858,43.618 C 255.1392,43.618 256.1155,44.3634 256.1155,45.647 C 256.1155,46.9358 255.1392,47.6812 253.858,47.6812 C 252.5754,47.6812 251.599,46.9358 251.599,45.647 C 251.599,44.3634 252.5754,43.618 253.858,43.618 z M 253.858,44.5572 C 253.2379,44.5572 252.9845,45.0723 252.9845,45.647 C 252.9845,46.2269 253.2379,46.7412 253.858,46.7412 C 254.4751,46.7412 254.7285,46.2269 254.7285,45.647 C 254.7285,45.0723 254.4751,44.5572 253.858,44.5572" />
              <path
                 id="path2642"
                 style="fill:#ffffff;fill-opacity:1;fill-rule:nonzero;stroke:none"
                 d="M 256.5411,44.7808 L 258.3142,46.607 L 256.5791,46.607 L 256.5791,47.591 L 259.848,47.591 L 259.848,46.5191 L 258.075,44.6914 L 259.8786,44.6914 L 259.8786,43.7082 L 256.5411,43.7082" />
              <path
                 id="path2644"
                 style="fill:#ffffff;fill-opacity:1;fill-rule:nonzero;stroke:none"
                 d="M 261.9878,48.2246 L 260.6462,48.2246 L 260.6462,49.2085 L 261.9878,49.2085 L 261.9878,48.2246 z M 260.6462,47.591 L 261.9878,47.591 L 261.9878,43.7082 L 260.6462,43.7082" />
              <path
                 id="path2646"
                 style="fill:#ffffff;fill-opacity:1;fill-rule:nonzero;stroke:none"
                 d="M 266.6027,43.7082 C 266.54,44.0138 266.5281,44.3187 266.5281,44.625 L 266.5281,46.0704 C 266.5281,47.2555 265.671,47.6812 264.6768,47.6812 C 264.1059,47.6812 263.6051,47.5992 263.1281,47.4046 L 263.1512,46.496 C 263.5238,46.7054 263.9561,46.7859 264.3884,46.7859 C 264.8728,46.7859 265.2678,46.6443 265.2745,46.1158 C 265.1046,46.1464 264.8631,46.168 264.6492,46.168 C 263.9315,46.168 262.6429,46.0256 262.6429,44.8419 C 262.6429,43.9982 263.3286,43.618 264.0955,43.618 C 264.6492,43.618 265.0219,43.8342 265.3275,44.3187 L 265.3416,44.3187 C 265.3416,44.1182 265.364,43.9169 265.3722,43.7082 L 266.6027,43.7082 z M 263.8965,44.9388 C 263.8965,45.3115 264.2542,45.4517 264.7089,45.4517 C 264.9094,45.4517 265.1046,45.4368 265.2745,45.4293 C 265.2745,44.9761 264.9548,44.5132 264.4465,44.5132 C 264.1335,44.5132 263.8965,44.669 263.8965,44.9388" />
              <path
                 id="path2648"
                 style="fill:#ffffff;fill-opacity:1;fill-rule:nonzero;stroke:none"
                 d="M 267.3912,43.7082 L 268.732,43.7082 L 268.732,49.2987 L 267.3912,49.2987 L 267.3912,43.7082 z" />
              <path
                 id="path2650"
                 style="fill:#ffffff;fill-opacity:1;fill-rule:nonzero;stroke:none"
                 d="M 273.5764,45.2586 L 273.5764,45.5046 C 273.5764,46.6592 273.0555,47.6812 271.617,47.6812 C 270.4089,47.6812 269.5369,46.9358 269.5369,45.6529 C 269.5369,44.3708 270.5155,43.618 271.7959,43.618 C 272.2938,43.618 272.7879,43.6933 273.2202,43.864 L 273.2202,44.8114 C 272.817,44.5945 272.4004,44.5132 272.0352,44.5132 C 271.3785,44.5132 270.9679,44.7212 270.8941,45.2586 L 273.5764,45.2586 z M 270.8807,46.0197 C 270.9098,46.4669 271.14,46.8307 271.626,46.8307 C 272.1619,46.8307 272.3713,46.4669 272.3713,46.0197" />
              <path
                 id="path2652"
                 style="fill:#ffffff;fill-opacity:1;fill-rule:nonzero;stroke:none"
                 d="M 276.5517,43.7082 L 277.9379,43.7082 L 277.9379,45.5262 L 278.4745,45.5262 C 279.7691,45.5262 280.539,46.1531 280.539,47.2034 C 280.539,48.3736 279.7937,48.9111 278.2055,48.9111 L 276.5517,48.9111 L 276.5517,43.7082 z M 277.9379,47.9272 L 278.2942,47.9272 C 278.7734,47.9272 279.152,47.7557 279.152,47.2265 C 279.152,46.6823 278.7734,46.5101 278.2942,46.5101 L 277.9379,46.5101" />
              <path
                 id="path2654"
                 style="fill:#ffffff;fill-opacity:1;fill-rule:nonzero;stroke:none"
                 d="M 284.586,43.7082 C 284.5264,44.0138 284.5115,44.3187 284.5115,44.625 L 284.5115,46.0704 C 284.5115,47.2555 283.6544,47.6812 282.6631,47.6812 C 282.0893,47.6812 281.5884,47.5992 281.1122,47.4046 L 281.136,46.496 C 281.5087,46.7054 281.9409,46.7859 282.3717,46.7859 C 282.8562,46.7859 283.2512,46.6443 283.2594,46.1158 C 283.0865,46.1464 282.8495,46.168 282.6326,46.168 C 281.9178,46.168 280.6277,46.0256 280.6277,44.8419 C 280.6277,43.9982 281.3134,43.618 282.0818,43.618 C 282.6326,43.618 283.0052,43.8342 283.3093,44.3187 L 283.325,44.3187 C 283.325,44.1182 283.3481,43.9169 283.3555,43.7082 L 284.586,43.7082 z M 281.8813,44.9388 C 281.8813,45.3115 282.2375,45.4517 282.6922,45.4517 C 282.8927,45.4517 283.0865,45.4368 283.2594,45.4293 C 283.2594,44.9761 282.9366,44.5132 282.4313,44.5132 C 282.1183,44.5132 281.8813,44.669 281.8813,44.9388" />
              <path
                 id="path2656"
                 style="fill:#ffffff;fill-opacity:1;fill-rule:nonzero;stroke:none"
                 d="M 288.1418,46.5191 C 287.992,46.5631 287.8437,46.5631 287.6865,46.5631 C 287.0604,46.5631 286.7094,46.1084 286.7094,45.3488 L 286.7094,43.7082 L 285.3686,43.7082 L 285.3686,47.591 L 286.5901,47.591 L 286.5901,46.8761 L 286.605,46.8761 C 286.8376,47.3681 287.1707,47.6812 287.7535,47.6812 C 287.9093,47.6812 288.0733,47.6588 288.2074,47.6372" />
              <path
                 id="path2658"
                 style="fill:#ffffff;fill-opacity:1;fill-rule:nonzero;stroke:none"
                 d="M 288.6323,47.591 L 289.4215,47.591 L 289.4215,48.4631 L 290.74,48.8738 L 290.74,47.591 L 291.6805,47.591 L 291.6805,46.6533 L 290.74,46.6533 L 290.74,45.2214 C 290.74,44.7525 290.8525,44.5132 291.2773,44.5132 C 291.4115,44.5132 291.5538,44.5445 291.688,44.5661 L 291.7327,43.6933 C 291.48,43.6627 291.2252,43.618 290.8905,43.618 C 289.6906,43.618 289.3999,44.1472 289.3999,45.0723 L 289.3999,46.6533 L 288.6323,46.6533" />
              <path
                 id="path2660"
                 style="fill:#ffffff;fill-opacity:1;fill-rule:nonzero;stroke:none"
                 d="M 295.9891,45.2586 L 295.9891,45.5046 C 295.9891,46.6592 295.4666,47.6812 294.029,47.6812 C 292.8216,47.6812 291.9488,46.9358 291.9488,45.6529 C 291.9488,44.3708 292.9252,43.618 294.2064,43.618 C 294.7072,43.618 295.1976,43.6933 295.6313,43.864 L 295.6313,44.8114 C 295.2281,44.5945 294.8101,44.5132 294.4448,44.5132 C 293.7897,44.5132 293.3806,44.7212 293.3068,45.2586 L 295.9891,45.2586 z M 293.2904,46.0197 C 293.3195,46.4669 293.5512,46.8307 294.0357,46.8307 C 294.573,46.8307 294.781,46.4669 294.781,46.0197" />
              <path
                 id="path2662"
                 style="fill:#ffffff;fill-opacity:1;fill-rule:nonzero;stroke:none"
                 d="M 298.0387,48.2246 L 296.6971,48.2246 L 296.6971,49.2085 L 298.0387,49.2085 L 298.0387,48.2246 z M 296.6971,47.591 L 298.0387,47.591 L 298.0387,43.7082 L 296.6971,43.7082" />
              <path
                 id="path2664"
                 style="fill:#ffffff;fill-opacity:1;fill-rule:nonzero;stroke:none"
                 d="M 129.1889,60.9503 L 126.4471,60.531 L 121.6183,59.7754 C 105.284,57.1264 94.5699,54.682 92.675,54.222 C 130.7512,58.7191 187.732,60.8534 208.0109,60.975 C 206.8177,62.8123 205.3189,65.2989 204.2002,67.1864 C 175.7208,66.8443 149.2319,63.9348 129.1889,60.9503" />
              <path
                 id="path2666"
                 style="fill:#7cced1;fill-opacity:1;fill-rule:nonzero;stroke:none"
                 d="M 217.4643,118.5622 C 216.6631,118.2056 216.2196,117.3626 215.4199,117.0067 C 215.1099,116.4745 214.2215,115.8973 214.6225,115.2305 C 214.3124,114.7857 214.5315,114.1211 214.0881,113.72 C 214.1783,113.4536 214.0441,113.1428 214.3124,112.9659 C 214.7984,113.1872 215.4639,113.0991 215.7755,113.6764 C 217.0633,114.9634 217.4188,116.7402 217.6402,118.5171 L 217.4643,118.5622 z M 218.2618,123.5355 C 218.2618,122.9138 218.0419,122.2485 218.4406,121.5817 C 218.7961,121.7593 218.4406,122.3817 218.7522,122.5593 C 219.1062,122.2922 218.8394,121.8044 219.1494,121.4922 C 219.2836,121.4922 219.3737,121.5817 219.4624,121.538 C 219.5951,121.2709 219.4624,120.7831 219.818,120.6492 C 220.3508,120.7831 220.5714,120.2052 220.9255,119.9824 C 220.8398,119.8048 221.0596,119.716 221.0596,119.5384 C 220.5267,119.4503 220.5714,118.8287 220.0393,118.8731 C 219.818,118.2056 220.128,117.5839 220.0393,116.9185 C 220.2614,115.7641 220.128,114.6525 219.6391,113.5868 C 218.7961,112.6988 218.4861,111.4548 217.2415,110.9663 C 217.0201,109.8569 215.6428,110.5681 214.8878,110.301 C 214.3996,110.4342 213.8667,110.3891 213.4225,110.5681 C 213.0663,110.9663 212.4894,111.0995 212.046,111.3222 C 210.893,112.2991 209.8704,113.6313 210.0478,115.141 C 210.2692,117.407 211.0249,119.6279 212.312,121.4922 C 212.9336,121.5817 213.1565,122.825 213.9554,122.3366 C 215.1539,122.2033 216.3083,121.9821 217.4643,121.7149 C 217.553,121.5817 217.6849,121.538 217.8645,121.538 C 217.9517,122.5142 217.9077,123.7131 217.7743,124.6907 C 218.2618,124.6011 218.1746,123.9358 218.2618,123.5355" />
              <path
                 id="path2668"
                 style="fill:#7cced1;fill-opacity:1;fill-rule:nonzero;stroke:none"
                 d="M 226.8759,112.3879 C 227.7204,112.1215 228.5208,111.8107 229.2311,111.4103 C 229.764,111.0995 229.9399,110.5223 229.9399,109.8569 C 230.03,109.4121 230.074,108.7905 229.9399,108.3464 C 229.1424,103.8158 228.3882,99.3311 227.2329,94.9773 C 227.0556,93.8679 226.6114,92.8459 226.1672,91.8247 C 226.1672,91.3362 225.6767,91.0254 225.8124,90.5362 C 225.591,90.2254 225.0127,89.8265 225.3227,89.381 C 225.0567,89.116 225.234,88.538 224.8353,88.4048 C 224.4805,88.538 225.1893,88.937 224.7027,88.9821 C 224.169,88.8925 224.2137,88.228 223.6808,88.094 C 223.6808,87.7832 223.2791,87.8268 223.3693,87.4723 C 223.1919,87.1164 222.3915,87.2059 222.6158,86.6279 C 222.5718,86.0944 221.6812,86.0507 221.9473,85.5172 C 222.4362,85.8731 222.7477,86.5829 223.4587,86.5384 C 223.9022,86.7619 223.5034,87.3391 224.0349,87.3828 C 224.169,87.6055 224.3464,87.9164 224.4805,88.0489 C 224.5692,88.094 224.6579,88.0045 224.6125,87.9164 C 223.5034,85.9612 221.7274,84.541 220.5267,82.6746 C 220.3508,82.4082 220.2152,82.7641 220.0393,82.7641 L 219.9066,83.1186 C 219.7292,82.9854 219.4177,83.0298 219.329,83.2525 C 219.016,83.519 219.7292,84.0074 219.2836,84.0969 C 219.2396,83.9201 219.2396,83.6966 219.016,83.6085 C 218.8848,83.5634 218.8394,83.6529 218.7522,83.741 C 219.1062,84.4078 218.352,84.8067 218.7522,85.4727 C 218.9296,85.4727 219.0622,85.429 219.1494,85.6067 L 219.1062,86.2276 C 219.329,86.3179 219.5064,86.0944 219.6391,86.3179 C 220.0393,86.6724 220.1712,87.2059 220.3508,87.6936 C 220.2614,87.8713 219.9938,87.7832 219.818,87.9164 C 219.7292,87.8713 219.6838,87.7381 219.5951,87.7832 C 219.5497,87.9608 219.771,87.9164 219.818,88.0489 L 220.0393,88.0045 C 219.9938,88.2709 220.0393,88.672 220.2614,88.8044 L 220.5267,88.3153 C 221.1498,88.672 221.3697,89.381 221.6372,90.0478 C 222.0814,91.5138 222.7045,92.934 222.9691,94.4889 C 223.1032,96.3989 223.7673,98.2639 224.125,100.0859 C 224.3009,101.3729 224.6579,102.7065 224.5692,103.9935 C 224.2137,104.3938 224.6125,104.8378 224.5692,105.2819 C 224.5253,105.9486 224.7906,106.8811 224.2577,107.4133 C 223.7673,106.9692 223.0593,106.7916 222.7477,106.17 C 222.2588,105.9931 221.9473,105.4151 221.4159,105.1487 L 221.4159,105.0147 C 220.6624,104.7046 220.4828,103.7721 219.9066,103.283 C 219.1062,102.5282 218.308,101.0621 217.0633,101.1516 C 216.8859,100.7964 216.4417,100.8845 216.1317,100.974 C 215.9983,101.0621 215.7755,101.1072 215.6428,101.2848 C 215.6428,101.418 215.6428,101.5061 215.5541,101.5957 L 215.4639,101.5957 C 215.3312,101.2848 215.6428,100.84 215.2426,100.6632 C 215.0667,101.2411 214.3996,101.5957 214.0009,102.0834 C 213.8213,102.1285 213.3793,102.0834 213.5537,101.7289 C 213.5537,101.5957 213.7341,101.5061 213.6439,101.3729 C 213.2899,101.1072 213.2899,101.7289 213.0238,101.817 L 213.3338,101.996 C 213.0238,102.5718 212.7123,101.7289 212.2681,101.9502 C 212.2248,102.3942 212.4462,102.6614 212.7562,102.8841 C 212.8896,103.061 213.0238,102.7065 213.1565,102.9278 C 213.0663,103.1054 213.1565,103.3281 213.2899,103.4613 C 213.3793,103.505 213.5537,103.4613 213.5537,103.6389 C 213.5999,103.9053 213.3793,104.1267 213.5105,104.3501 C 213.9114,104.3501 214.1783,104.7483 214.5315,104.4375 L 214.6225,104.2162 C 215.4199,104.8378 215.9096,105.7703 216.6631,106.5252 C 217.8176,107.7692 219.4177,108.9681 220.5714,110.167 C 220.7496,110.2114 220.8398,110.3891 221.0156,110.3446 C 221.0596,110.0782 220.6624,109.9901 220.5714,109.723 L 220.128,109.2353 C 220.3508,109.1902 220.6154,108.9681 220.7496,109.2789 C 221.8146,110.167 223.0593,111.0121 224.2577,111.6331 C 224.6579,111.6331 224.9225,111.588 225.1468,111.9439 C 225.1021,112.0771 225.0567,112.3442 224.8353,112.3442 C 223.9022,111.9439 223.1487,111.588 222.3043,111.0121 C 221.904,110.8331 221.6372,110.2565 221.1498,110.3891 L 221.193,110.5223 C 222.2588,111.4999 223.5907,112.0334 224.7027,112.6988 C 225.0127,112.6988 225.2795,112.7883 225.6343,112.7883 C 225.7669,112.9215 225.9898,112.9215 226.1672,112.7883 C 226.3453,112.6107 226.5227,112.1666 226.8759,112.3879" />
              <path
                 id="path2670"
                 style="fill:#7cced1;fill-opacity:1;fill-rule:nonzero;stroke:none"
                 d="M 219.771,108.5241 C 219.6391,108.214 219.2396,108.3013 219.1494,107.8573 C 217.9517,106.836 217.0201,105.549 215.9096,104.4375 C 215.8641,104.3938 215.7755,104.2162 215.6868,104.3043 C 215.5541,104.3043 215.6868,104.527 215.6868,104.5707 C 216.087,104.7483 215.8202,105.549 216.4417,105.549 C 216.5759,105.7259 216.7086,105.9035 216.7086,106.17 C 217.4188,106.614 217.8645,107.2356 218.5733,107.7241 C 218.7961,108.1681 219.1964,108.5241 219.6838,108.7017" />
              <path
                 id="path2672"
                 style="fill:#7cced1;fill-opacity:1;fill-rule:nonzero;stroke:none"
                 d="M 214.8423,103.5494 C 214.7551,103.283 214.6664,103.061 214.4443,102.8841 C 214.3124,102.8841 214.3124,103.1054 214.3557,103.1949 C 214.7551,103.283 213.9554,104.0386 214.6664,103.7721" />
              <path
                 id="path2674"
                 style="fill:#7cced1;fill-opacity:1;fill-rule:nonzero;stroke:none"
                 d="M 219.818,88.6261 C 219.6838,88.0045 218.7961,87.9164 219.0622,87.1164 C 218.9296,86.9832 218.7522,87.1615 218.7522,87.294 C 218.662,87.7832 219.0622,88.094 219.1964,88.4929 C 219.4624,88.228 219.5951,88.672 219.818,88.6261" />
              <path
                 id="path2676"
                 style="fill:#7cced1;fill-opacity:1;fill-rule:nonzero;stroke:none"
                 d="M 224.2577,88.2709 L 224.169,88.1377 L 224.125,88.3153 C 224.2137,88.3153 224.2137,88.2709 224.2577,88.2709" />
              <path
                 id="path2678"
                 style="fill:#7cced1;fill-opacity:1;fill-rule:nonzero;stroke:none"
                 d="M 223.8575,87.6055 L 223.7673,87.6055 L 224.0349,87.9164 C 224.0349,87.8268 223.9477,87.6936 223.8575,87.6055" />
              <path
                 id="path2680"
                 style="fill:#7cced1;fill-opacity:1;fill-rule:nonzero;stroke:none"
                 d="M 199.08,86.6724 C 199.8782,84.0969 200.6786,81.4757 201.6542,78.9883 L 201.6103,78.8551 C 201.0334,79.4768 201.0766,80.6342 200.4118,81.2093 C 200.4551,80.5439 200.7658,79.9208 201.0334,79.2992 C 201.7444,77.5681 202.7655,75.9238 203.2969,74.1032 C 203.4765,74.0588 203.5205,73.8819 203.5205,73.748 L 203.4765,73.7029 C 202.9429,74.5028 202.7193,75.1245 202.2318,75.9238 C 202.1879,76.0126 202.0984,76.0126 202.0984,75.9689 C 202.1879,75.6129 202.0984,75.0357 202.5426,74.8581 C 202.7193,73.8819 203.5637,73.2588 203.7411,72.2819 C 203.5637,72.4151 203.4765,72.9036 203.2537,73.1707 C 202.9429,73.5697 202.8095,74.0137 202.4987,74.3696 C 201.699,76.057 200.8553,77.6562 200.2784,79.345 C 200.0116,79.4324 200.0548,79.7876 200.0116,79.9208 C 199.7448,80.7208 199.4787,81.6089 199.2566,82.3637 C 199.2566,82.719 199.346,83.0749 198.9898,83.2089 C 198.8564,84.3183 198.5016,85.429 198.3682,86.5384 C 198.2355,86.85 198.0574,87.4272 198.4122,87.7832 C 198.8124,87.65 198.9019,87.072 199.08,86.6724" />
              <path
                 id="path2682"
                 style="fill:#7cced1;fill-opacity:1;fill-rule:nonzero;stroke:none"
                 d="M 217.7743,86.5384 L 217.7304,85.9612 L 217.5075,86.007 C 217.4643,86.4503 217.0201,86.85 217.1528,87.3391 C 217.5962,87.2059 217.4643,86.716 217.7743,86.5384" />
              <path
                 id="path2684"
                 style="fill:#7cced1;fill-opacity:1;fill-rule:nonzero;stroke:none"
                 d="M 218.5278,87.1615 C 218.5278,87.1164 218.4861,87.1164 218.4406,87.1164 L 218.4406,87.3391 C 218.5278,87.3391 218.5733,87.294 218.5278,87.1615" />
              <path
                 id="path2686"
                 style="fill:#7cced1;fill-opacity:1;fill-rule:nonzero;stroke:none"
                 d="M 218.1291,87.1164 C 218.1291,87.072 218.1291,86.9388 218.0419,86.9832 L 218.0419,87.1164" />
              <path
                 id="path2688"
                 style="fill:#7cced1;fill-opacity:1;fill-rule:nonzero;stroke:none"
                 d="M 198.9898,85.5172 L 198.9898,85.1175 C 198.5903,85.6504 198.4122,86.4052 198.5903,87.072 C 198.679,86.5829 198.9019,86.0507 198.9898,85.5172" />
              <path
                 id="path2690"
                 style="fill:#7cced1;fill-opacity:1;fill-rule:nonzero;stroke:none"
                 d="M 223.2374,86.6724 L 223.1487,86.6724 C 223.0593,86.8056 223.1487,86.9388 223.2374,87.0283 C 223.4133,86.9832 223.2374,86.8056 223.2374,86.6724" />
              <path
                 id="path2692"
                 style="fill:#7cced1;fill-opacity:1;fill-rule:nonzero;stroke:none"
                 d="M 218.308,85.1175 C 218.2178,85.1175 218.1291,84.985 218.0419,85.1175 C 217.9964,85.3395 218.0419,85.6067 218.2618,85.6504 C 218.5278,85.563 218.308,85.2958 218.308,85.1175" />
              <path
                 id="path2694"
                 style="fill:#7cced1;fill-opacity:1;fill-rule:nonzero;stroke:none"
                 d="M 222.1246,85.3395 C 222.2156,85.2958 222.1246,85.2063 222.0814,85.1619 L 221.9927,85.1619 C 221.9927,85.2063 222.0374,85.3395 222.1246,85.3395" />
              <path
                 id="path2696"
                 style="fill:#7cced1;fill-opacity:1;fill-rule:nonzero;stroke:none"
                 d="M 199.6114,84.0074 C 199.5674,83.9201 199.4787,83.9201 199.434,83.963 L 199.4787,84.1406 C 199.5674,84.1406 199.5674,84.0525 199.6114,84.0074" />
              <path
                 id="path2698"
                 style="fill:#7cced1;fill-opacity:1;fill-rule:nonzero;stroke:none"
                 d="M 199.7903,83.6085 C 199.9222,82.9417 200.1882,82.2305 200.4551,81.5659 L 200.3679,81.2093 C 200.101,81.2988 200.2784,81.6977 200.145,81.876 C 199.8342,82.4082 199.6568,83.0298 199.6568,83.6529" />
              <path
                 id="path2700"
                 style="fill:#7cced1;fill-opacity:1;fill-rule:nonzero;stroke:none"
                 d="M 198.3242,82.7641 C 198.2788,82.6746 198.1014,82.5414 198.1908,82.4082 C 198.6358,82.0973 198.9466,81.3869 198.7692,80.7652 C 198.8124,80.5439 198.9466,80.7208 199.0352,80.6342 C 198.9466,80.3219 199.346,79.8764 199.08,79.6559 C 198.679,79.9659 198.679,80.6342 198.4584,81.0761 L 197.8801,82.7641 C 198.0142,82.8522 198.0142,83.1186 198.1908,83.1186" />
              <path
                 id="path2702"
                 style="fill:#7cced1;fill-opacity:1;fill-rule:nonzero;stroke:none"
                 d="M 199.3908,79.5656 L 199.47874,79.5656 L 199.47874,79.6995 L 199.3908,79.6995 L 199.3908,79.5656 z" />
              <path
                 id="path2704"
                 style="fill:#7cced1;fill-opacity:1;fill-rule:nonzero;stroke:none"
                 d="M 199.2566,79.4324 C 199.2126,79.3887 199.2126,79.2992 199.1672,79.2555 C 199.08,79.2555 199.0352,79.2992 198.9898,79.345 L 199.08,79.5219 C 199.1232,79.4768 199.2126,79.4768 199.2566,79.4324" />
              <path
                 id="path2706"
                 style="fill:#7cced1;fill-opacity:1;fill-rule:nonzero;stroke:none"
                 d="M 200.5445,79.2992 L 200.4998,79.3887 L 200.5445,79.3887" />
              <path
                 id="path2708"
                 style="fill:#7cced1;fill-opacity:1;fill-rule:nonzero;stroke:none"
                 d="M 200.9432,78.4111 C 200.6786,78.323 200.6786,78.7219 200.6332,78.8551 L 200.7226,79.0779 C 200.9432,78.901 200.8553,78.6338 200.9432,78.4111" />
              <path
                 id="path2710"
                 style="fill:#7cced1;fill-opacity:1;fill-rule:nonzero;stroke:none"
                 d="M 199.434,78.6775 C 199.3006,78.6338 199.1672,78.901 199.2126,78.9883 C 199.3006,78.9447 199.4787,78.8551 199.434,78.6775" />
              <path
                 id="path2712"
                 style="fill:#7cced1;fill-opacity:1;fill-rule:nonzero;stroke:none"
                 d="M 199.7016,78.1898 C 199.6568,78.1003 199.5674,78.1447 199.5234,78.1447 L 199.5674,78.323" />
              <path
                 id="path2714"
                 style="fill:#7cced1;fill-opacity:1;fill-rule:nonzero;stroke:none"
                 d="M 199.8342,78.0122 L 199.8342,77.9671 L 199.7448,78.0558 C 199.7903,78.0558 199.8342,78.0558 199.8342,78.0122" />
              <path
                 id="path2716"
                 style="fill:#7cced1;fill-opacity:1;fill-rule:nonzero;stroke:none"
                 d="M 200.1882,77.0783 C 199.9676,77.2122 199.7448,77.3898 199.8342,77.6562 C 200.0548,77.5681 200.145,77.301 200.1882,77.0783" />
              <path
                 id="path2718"
                 style="fill:#7cced1;fill-opacity:1;fill-rule:nonzero;stroke:none"
                 d="M 202.0552,76.236 C 201.7877,76.1021 201.7877,76.3678 201.6542,76.5032 C 201.5663,76.6786 201.5663,76.9006 201.5663,77.1241 L 201.6542,77.1678" />
              <path
                 id="path2720"
                 style="fill:#7cced1;fill-opacity:1;fill-rule:nonzero;stroke:none"
                 d="M 200.2784,76.9451 C 200.2784,76.9006 200.1882,76.9006 200.233,76.814 L 200.145,76.814 L 200.1882,76.9909" />
              <path
                 id="path2722"
                 style="fill:#7cced1;fill-opacity:1;fill-rule:nonzero;stroke:none"
                 d="M 200.4998,76.7237 C 200.3224,76.5905 200.9432,76.236 200.4998,76.1902 C 200.5892,76.4566 200.101,76.6786 200.4998,76.7237" />
              <path
                 id="path2724"
                 style="fill:#7cced1;fill-opacity:1;fill-rule:nonzero;stroke:none"
                 d="M 200.9887,75.5685 C 201.0334,75.4797 200.9432,75.4353 200.8993,75.3909 C 200.812,75.4353 200.6786,75.6581 200.8553,75.7017 C 200.9432,75.7017 201.0334,75.6129 200.9887,75.5685" />
              <path
                 id="path2726"
                 style="fill:#7cced1;fill-opacity:1;fill-rule:nonzero;stroke:none"
                 d="M 201.3874,74.6805 C 201.4314,74.5472 201.2563,74.6368 201.2101,74.5917 C 201.0766,74.77 200.9432,74.9913 200.9887,75.214 C 201.2995,75.214 201.2995,74.8137 201.3874,74.6805" />
              <path
                 id="path2728"
                 style="fill:#7cced1;fill-opacity:1;fill-rule:nonzero;stroke:none"
                 d="M 208.4052,74.192 C 208.2725,74.3259 208.2725,74.5028 208.2725,74.6368" />
              <path
                 id="path2730"
                 style="fill:#7cced1;fill-opacity:1;fill-rule:nonzero;stroke:none"
                 d="M 201.9211,73.748 L 201.8771,73.5697 C 201.699,73.7916 201.3874,74.0588 201.5208,74.414 C 201.7877,74.3259 201.6542,73.8819 201.9211,73.748" />
              <path
                 id="path2732"
                 style="fill:#7cced1;fill-opacity:1;fill-rule:nonzero;stroke:none"
                 d="M 202.1424,73.3039 C 202.1424,73.2144 202.0984,73.2144 202.0552,73.1707 C 201.8771,73.1256 201.9211,73.392 201.965,73.4816 C 202.0552,73.4379 202.1424,73.392 202.1424,73.3039" />
              <path
                 id="path2734"
                 style="fill:#7cced1;fill-opacity:1;fill-rule:nonzero;stroke:none"
                 d="M 202.5426,72.7267 C 202.4987,72.504 202.4987,72.239 202.7655,72.1487 C 202.3653,71.9718 202.4085,72.6372 202.1424,72.8148 C 202.1424,73.1256 202.4987,72.8599 202.5426,72.7267" />
              <path
                 id="path2736"
                 style="fill:#7cced1;fill-opacity:1;fill-rule:nonzero;stroke:none"
                 d="M 204.8531,71.3938 C 205.0737,70.5495 205.4739,69.7946 205.8741,69.0397 C 205.6505,69.2173 205.3845,69.4401 205.4299,69.7509 C 205.0737,70.1949 204.8531,70.7271 204.6749,71.3051 C 204.3642,71.7949 204.0079,72.2819 203.9639,72.8599 C 204.4961,72.5927 204.4529,71.8379 204.8531,71.3938" />
              <path
                 id="path2738"
                 style="fill:#7cced1;fill-opacity:1;fill-rule:nonzero;stroke:none"
                 d="M 209.2936,72.3263 C 209.1602,72.4151 209.07,72.5927 209.07,72.7267 C 209.2474,72.6372 209.2041,72.4595 209.2936,72.3263" />
              <path
                 id="path2740"
                 style="fill:#7cced1;fill-opacity:1;fill-rule:nonzero;stroke:none"
                 d="M 210.1812,70.8166 C 210.1812,70.5939 210.4018,70.4607 210.536,70.283 C 210.6247,69.9722 210.7588,69.6614 210.893,69.395 L 210.846,69.395 C 210.5815,70.1498 209.737,70.4162 209.5142,71.2169 C 209.5596,71.5278 209.1154,71.7047 209.3808,72.0155 C 209.6908,71.7047 209.8272,71.1719 210.1812,70.8166" />
              <path
                 id="path2742"
                 style="fill:#7cced1;fill-opacity:1;fill-rule:nonzero;stroke:none"
                 d="M 202.8989,71.7498 C 202.8989,71.7047 202.8989,71.661 202.8527,71.661 C 202.7655,71.6159 202.6761,71.7949 202.7655,71.8379 C 202.8095,71.8823 202.8527,71.7949 202.8989,71.7498" />
              <path
                 id="path2744"
                 style="fill:#7cced1;fill-opacity:1;fill-rule:nonzero;stroke:none"
                 d="M 203.9639,71.7949 L 204.2747,71.2169" />
              <path
                 id="path2746"
                 style="fill:#7cced1;fill-opacity:1;fill-rule:nonzero;stroke:none"
                 d="M 206.3176,70.1054 C 206.8065,69.13 207.3401,68.108 207.6942,67.1296 C 207.4728,67.4849 206.8065,67.53 206.9392,68.1516 C 206.4957,68.3737 206.6284,68.996 206.2281,69.3069 C 206.2281,69.574 206.0955,69.7058 205.8741,69.7946 C 205.8279,70.283 205.6505,70.7729 205.2063,71.0837 L 205.2063,71.4827 C 205.7407,71.2169 205.8279,70.4607 206.3176,70.1054" />
              <path
                 id="path2748"
                 style="fill:#7cced1;fill-opacity:1;fill-rule:nonzero;stroke:none"
                 d="M 203.1635,71.2169 C 203.2097,71.1719 203.1195,71.1274 203.1195,71.1274 C 203.0301,71.1274 202.9429,71.2606 203.0763,71.3502 C 203.1635,71.3938 203.1195,71.2606 203.1635,71.2169" />
              <path
                 id="path2750"
                 style="fill:#7cced1;fill-opacity:1;fill-rule:nonzero;stroke:none"
                 d="M 204.7189,70.283 L 204.3642,70.9047 L 204.7189,70.3726" />
              <path
                 id="path2752"
                 style="fill:#7cced1;fill-opacity:1;fill-rule:nonzero;stroke:none"
                 d="M 203.5637,70.4162 C 203.6084,70.2386 203.3416,70.3289 203.2537,70.2386 C 203.0301,70.4607 203.3416,70.639 203.3416,70.9047 C 203.5205,70.8166 203.5205,70.5939 203.5637,70.4162" />
              <path
                 id="path2754"
                 style="fill:#7cced1;fill-opacity:1;fill-rule:nonzero;stroke:none"
                 d="M 203.9639,69.574 L 203.8313,69.574 L 203.9207,69.7509 C 203.9639,69.7058 203.9639,69.6614 203.9639,69.574" />
              <path
                 id="path2756"
                 style="fill:#7cced1;fill-opacity:1;fill-rule:nonzero;stroke:none"
                 d="M 203.9207,69.1737 L 203.7411,69.4401" />
              <path
                 id="path2758"
                 style="fill:#7cced1;fill-opacity:1;fill-rule:nonzero;stroke:none"
                 d="M 204.6749,68.4188 C 204.54,68.2849 204.4081,68.5069 204.2747,68.5069 C 204.0526,68.6401 204.0526,68.9509 204.2747,69.0841 C 204.54,68.9065 204.6295,68.6859 204.6749,68.4188" />
              <path
                 id="path2760"
                 style="fill:#7cced1;fill-opacity:1;fill-rule:nonzero;stroke:none"
                 d="M 206.0955,68.5069 L 205.8741,68.9509 L 206.0955,68.552" />
              <path
                 id="path2762"
                 style="fill:#7cced1;fill-opacity:1;fill-rule:nonzero;stroke:none"
                 d="M 204.8531,67.6181 C 204.7189,67.6181 204.6295,67.8408 204.5855,68.0184 C 204.6295,67.8852 204.8963,67.7971 204.8531,67.6181" />
              <path
                 id="path2764"
                 style="fill:#7cced1;fill-opacity:1;fill-rule:nonzero;stroke:none"
                 d="M 205.0737,67.3073 L 204.9395,67.3073 L 204.8963,67.53 C 204.9857,67.4849 205.0737,67.4405 205.0737,67.3073" />
              <path
                 id="path2766"
                 style="fill:#7cced1;fill-opacity:1;fill-rule:nonzero;stroke:none"
                 d="M 206.0955,66.1528 C 206.1387,66.0196 206.0515,65.887 205.9613,65.7975 C 205.6945,65.7975 205.8741,66.1084 205.6945,66.1979 C 205.3845,66.4636 205.2063,66.7759 205.1639,67.086 C 205.6945,66.9527 205.8279,66.5087 206.0955,66.1528" />
              <path
                 id="path2768"
                 style="fill:#7cced1;fill-opacity:1;fill-rule:nonzero;stroke:none"
                 d="M 206.4503,65.5311 C 206.0515,65.2203 206.7186,65.1759 206.5389,64.8658 C 206.1849,64.8658 206.3176,65.3098 206.0955,65.443 C 206.1387,65.577 206.3623,65.7087 206.4503,65.5311" />
              <path
                 id="path2770"
                 style="fill:#7cced1;fill-opacity:1;fill-rule:nonzero;stroke:none"
                 d="M 210.4458,64.9065 L 210.4928,64.7733" />
              <path
                 id="path2772"
                 style="fill:#7cced1;fill-opacity:1;fill-rule:nonzero;stroke:none"
                 d="M 206.9831,64.1983 C 206.8065,64.2427 206.5822,64.4654 206.6284,64.7318 C 206.7186,64.5091 207.3834,64.5986 206.9831,64.1983" />
              <path
                 id="path2774"
                 style="fill:#7cced1;fill-opacity:1;fill-rule:nonzero;stroke:none"
                 d="M 207.3834,63.49 C 207.2939,63.6669 207.0294,63.8438 207.1165,64.0214 C 207.1613,63.8001 207.6942,63.8001 207.3834,63.49" />
              <path
                 id="path2776"
                 style="fill:#7cced1;fill-opacity:1;fill-rule:nonzero;stroke:none"
                 d="M 208.0482,63.0889 L 208.0049,62.8662 C 207.8708,62.9557 207.5607,63.1777 207.7381,63.3997 C 207.917,63.3997 207.961,63.2228 208.0482,63.0889" />
              <path
                 id="path2778"
                 style="fill:#7cced1;fill-opacity:1;fill-rule:nonzero;stroke:none"
                 d="M 214.9765,57.2233 L 214.8878,57.1788 L 214.8878,57.2684 C 214.8878,57.2684 214.9325,57.2684 214.9765,57.2233" />
              <path
                 id="path2780"
                 style="fill:#7cced1;fill-opacity:1;fill-rule:nonzero;stroke:none"
                 d="M 206.5389,110.745 C 207.0294,110.7887 207.6047,110.4778 208.0944,110.3891 C 209.4262,110.2114 210.6694,109.5898 211.8678,109.0576 C 212.7562,108.7454 213.5999,108.3013 214.489,107.9468 C 214.7082,107.5465 214.1783,107.3252 214.3124,106.9248 C 213.6908,106.5252 213.1997,106.2144 212.356,106.2144 C 211.1143,106.2144 209.1602,107.1024 208.4924,105.5032 C 208.5826,104.7046 207.6502,105.1487 207.5607,104.4819 C 207.4273,103.6826 206.8497,103.1505 206.6723,102.3942 C 205.7847,99.7751 205.3405,96.8874 205.3845,93.8679 C 204.9857,90.4481 205.8279,87.2496 206.0515,83.7861 C 206.4503,82.9417 206.4503,81.9197 206.6723,80.9443 C 206.6284,80.6342 206.5822,80.2317 206.8937,80.0999 C 206.8065,79.5219 207.206,79.0328 207.206,78.4111 C 207.3834,78.2779 207.25,78.0122 207.3401,77.7894 C 207.5607,77.2122 207.5168,76.5032 208.0049,76.057 L 208.0049,75.9238 L 207.7836,75.9238 C 207.7381,75.7462 207.8276,75.7017 207.917,75.5685 C 208.0482,75.7462 208.1816,75.7017 208.315,75.6129 C 208.1816,75.0357 208.8494,74.6805 208.8494,74.1032 C 209.2041,73.3476 209.4702,72.8148 209.8704,72.0155 C 209.8704,71.7047 210.0918,71.4383 210.3586,71.3051 C 210.9802,70.1498 211.601,68.9509 212.2681,67.9311 C 212.6683,67.3073 213.3778,65.8405 214.0009,65.4401 C 214.4443,64.8629 214.7984,64.108 215.3767,63.5744 C 215.3312,63.1763 215.7755,63.1304 215.9096,62.8196 C 216.5759,61.6199 217.6849,60.8651 217.7743,59.4893 C 217.4643,59.311 218.2178,58.7344 217.553,58.9113 C 217.5075,58.8662 217.5075,58.8218 217.553,58.8218 C 217.6849,58.7344 217.7289,58.8218 217.7743,58.6886 C 217.7743,58.5554 217.5962,58.5109 217.5075,58.5554 L 217.196,58.9994 L 217.4188,59.0452 C 217.3734,59.1784 217.2847,59.311 217.1528,59.3561 C 217.1058,59.3561 217.1058,59.311 217.1058,59.2665 C 216.6184,59.3561 216.7086,60.0673 216.1317,59.9333 C 216.0415,60.0673 215.9096,60.3323 215.6868,60.2441 C 215.5101,60.1102 215.8641,59.977 215.6428,59.8438 C 215.5541,59.8882 215.4199,59.9333 215.4199,60.0673 C 215.5981,60.1546 215.5101,60.421 215.4639,60.5987 L 215.0667,60.8651 C 215.1539,60.7319 215.2865,60.5113 215.2865,60.2878 C 215.0667,60.421 214.9765,60.6882 214.7984,60.8651 L 214.9325,60.9553 C 214.577,61.4867 214.1343,61.9308 213.6439,62.2874 C 213.5105,62.5532 213.2899,62.7315 213.0238,62.8196 C 212.9791,62.6864 213.0663,62.5087 212.8464,62.4214 C 212.002,63.086 211.601,64.3293 210.6694,64.9961 C 210.536,65.1293 210.3586,65.1293 210.2252,65.1293 C 209.737,65.973 208.8039,67.4405 208.0944,68.108 C 207.961,68.1961 207.8276,68.108 207.7381,68.0184 C 208.4924,66.5087 209.825,64.3752 210.846,62.9091 C 211.1591,62.7315 211.3804,62.3755 211.6905,62.1084 L 211.8246,62.2416 C 211.5131,63.1304 210.7126,63.7521 210.4928,64.6852 C 211.5131,63.7521 211.9118,62.3755 212.8896,61.3098 C 213.0238,61.2662 213.1997,61.1759 213.1565,60.9553 C 213.6908,60.421 214.0881,59.5774 214.7082,59.1326 C 214.9765,59.0452 214.7984,58.5109 215.2426,58.5554 C 215.2865,59.1784 214.8878,59.8438 214.3109,60.1546 C 214.0441,60.6882 213.5105,61.1322 213.3338,61.6643 C 214.1343,61.3535 214.4443,60.1546 215.3312,59.9333 C 215.3312,59.6232 215.5541,59.311 215.8202,59.1326 C 215.9983,59.0452 215.9983,59.2665 216.1317,59.3561 C 216.4417,59.2221 216.6184,59.0889 216.7086,58.7781 C 217.1528,58.2445 217.7743,57.7561 218.4861,57.4897 C 218.5733,57.4009 218.618,57.312 218.4861,57.2233 C 217.9964,57.1344 217.6849,57.6229 217.2847,57.7131 C 217.1528,57.446 217.553,57.5792 217.5075,57.3565 C 217.3301,57.1788 217.0201,57.446 216.9299,57.1344 C 217.0201,57.0456 217.3734,57.1788 217.3301,56.9583 C 216.7086,56.8236 216.087,56.9583 215.4639,57.1788 C 215.3312,56.6911 216.087,56.9124 216.1317,56.5142 C 215.9096,56.5572 215.5541,56.7348 215.5541,56.3352 C 215.2426,56.1576 214.8878,56.424 214.621,56.5572 C 214.6664,56.2908 214.4443,56.1576 214.1783,56.1576 C 214.0441,56.202 213.9554,56.2471 213.8213,56.1576 C 213.6908,56.0695 213.7341,55.8467 213.5105,55.9799 C 213.2437,56.2471 213.5105,56.5572 213.2899,56.8236 C 212.002,58.2904 210.3146,60.0236 209.07,61.4459 C 208.8933,61.89 208.4924,62.2445 208.1816,62.5553 C 208.5826,62.5998 208.8039,62.1557 209.07,61.89 C 209.6044,61.1351 210.4458,59.8001 211.2008,59.2665 L 210.9802,59.755 L 207.7836,64.0651 C 206.3176,66.286 205.2511,68.7733 203.5637,70.861 C 203.7411,71.3051 203.6084,71.8379 203.2537,72.1487 L 203.2097,72.1487 C 203.1635,72.0155 203.3871,71.7949 203.2537,71.661 C 203.0301,71.661 202.9429,71.9267 202.8527,72.0621 C 202.8095,72.239 202.9868,72.239 203.1195,72.3263 C 202.8989,72.948 202.7655,73.6148 202.2318,74.0588 L 202.1879,73.8819 C 202.0552,73.8819 202.0105,74.0137 201.965,74.1032 L 202.1879,74.3696 C 201.699,75.1245 201.4769,75.9238 200.9887,76.5905 C 201.0334,77.0346 200.4998,77.1678 200.6332,77.5681 C 200.101,78.2779 200.0548,79.2111 199.5674,79.9208 C 199.1672,81.2988 198.5903,82.5858 198.4584,84.0074 C 198.1476,84.3183 198.4584,84.7623 198.1908,85.0731 C 198.1014,85.2958 197.9248,85.563 197.7914,85.7836 C 197.3472,85.1619 197.9248,84.4959 198.0142,83.7861 L 197.9248,83.5634 C 197.3911,84.5847 197.3911,85.828 196.9469,86.9388 C 196.6816,88.2709 196.3701,89.6918 196.0146,91.0254 C 195.9266,91.9134 195.8819,92.934 195.9266,93.8235 C 195.5711,94.0448 195.9266,94.3557 195.8379,94.6665 L 195.6605,95.5546 C 195.7932,96.7098 195.7932,97.9982 195.9266,99.0639 C 196.2374,99.3747 196.104,99.952 196.5929,100.2191 C 196.9924,101.1516 196.9924,102.261 197.4806,103.1949 C 197.4806,103.9053 197.7034,104.6602 198.4122,105.0147 C 198.5456,105.7703 198.5456,106.7479 199.3908,107.1024 C 200.0116,107.636 199.9676,108.7454 200.9432,108.8793 C 201.4769,109.1902 202.0552,109.3234 202.4547,109.8125 C 203.2097,110.2114 203.5205,111.1439 204.4529,111.0558 C 205.1191,110.8782 205.9181,111.0558 206.5389,110.745" />
              <path
                 id="path2782"
                 style="fill:#7cced1;fill-opacity:1;fill-rule:nonzero;stroke:none"
                 d="M 129.4935,84.7331 C 131.3695,84.7331 132.4157,83.1223 132.4157,81.2711 C 132.4157,79.0444 131.3163,77.5157 129.4935,77.5157 C 127.8824,77.5157 126.5417,79.0444 126.5417,81.084 C 126.5417,83.1776 127.723,84.7331 129.4935,84.7331 z M 126.5417,60.4902 L 126.5417,76.0934 L 126.5963,76.0934 C 127.5076,74.4293 129.3323,73.8135 131.0216,73.8135 C 135.1793,73.8135 137.4061,77.2486 137.4061,81.3796 C 137.4061,84.7594 135.2881,88.4354 131.4251,88.4354 C 129.2242,88.4354 127.1862,87.5502 126.2204,85.5914 L 126.1654,85.5914 L 126.1654,88.1129 L 121.7119,88.1129 L 121.7119,59.7332" />
              <path
                 id="path2784"
                 style="fill:#7cced1;fill-opacity:1;fill-rule:nonzero;stroke:none"
                 d="M 290.3994,77.5157 C 288.788,77.5157 287.4472,79.0444 287.4472,81.084 C 287.4472,83.1776 288.6278,84.7331 290.3994,84.7331 C 292.276,84.7331 293.3224,83.1223 293.3224,81.2711 C 293.3224,79.0444 292.2238,77.5157 290.3994,77.5157 z M 292.3312,88.4354 C 290.1303,88.4354 288.0927,87.5502 287.1275,85.5914 L 287.0709,85.5914 L 287.0709,88.1129 L 282.6177,88.1129 L 282.6177,62.0458 L 287.4435,61.3681 L 287.4472,61.3666 L 287.4472,76.0934 L 287.5031,76.0934 C 288.4124,74.4293 290.2384,73.8135 291.928,73.8135 C 296.0853,73.8135 298.3129,77.2486 298.3129,81.3796 C 298.3129,84.7594 296.1933,88.4354 292.3312,88.4354" />
              <path
                 id="path2786"
                 style="fill:#ffffff;fill-opacity:1;fill-rule:nonzero;stroke:none"
                 d="M 326.8363,54.222 C 324.6586,54.7505 310.837,57.8995 290.219,60.9663 L 287.4435,61.3681 L 282.6147,62.0458 C 263.3226,64.6649 239.3202,66.9753 213.784,67.1988 C 215.5034,64.6328 217.6141,61.8201 218.3244,60.884 C 242.5697,60.421 292.4213,58.2853 326.8363,54.222" />
            </g>
          </g>
        </g>
      </g>
    </g>
  </g>
</svg>
