<?xml version="1.0" encoding="UTF-8" standalone="no"?>
<!DOCTYPE svg PUBLIC "-//W3C//DTD SVG 1.1//EN" "http://www.w3.org/Graphics/SVG/1.1/DTD/svg11.dtd">
<!-- Created with Vectornator (http://vectornator.io/) -->
<svg height="100%" stroke-miterlimit="10" style="fill-rule:nonzero;clip-rule:evenodd;stroke-linecap:round;stroke-linejoin:round;" version="1.1" viewBox="0 0 2560 1440" width="100%" xml:space="preserve" xmlns="http://www.w3.org/2000/svg" xmlns:vectornator="http://vectornator.io" xmlns:xlink="http://www.w3.org/1999/xlink">
<defs>
<linearGradient gradientTransform="matrix(1494.67 0 0 1494.67 532.663 720)" gradientUnits="userSpaceOnUse" id="LinearGradient" x1="0" x2="1" y1="0" y2="0">
<stop offset="0.608333" stop-color="#9cfab8"/>
<stop offset="0.645833" stop-color="#ff7171"/>
</linearGradient>
</defs>
<path d="M0 0L2560 0L2560 1440L0 1440L0 0Z" fill="#ffffff" fill-rule="nonzero" opacity="1" stroke="none" vectornator:artboardBackground="true"/>
<g id="Calque-1" vectornator:layerName="Calque 1">
<path d="M599.413 926.711C584.426 933.997 594.508 965.887 584.2 973.618C573.908 981.337 539.399 975.324 533.489 990.099C529.796 999.332 539.598 1001.63 541.096 1009.12C542.469 1015.98 532.648 1026.45 534.757 1030.67C536.759 1034.67 560.841 1030.67 565.183 1030.67C575.206 1030.67 586.25 1039.41 593.074 1038.27C600.33 1037.06 613.814 1027.47 619.697 1023.06C627.226 1017.41 629.539 1007.4 634.91 1000.24C639.257 994.446 647.743 993.747 652.659 988.831C653.995 987.495 655.195 985.65 655.195 983.76C655.195 979.198 642.508 975.719 639.981 972.35C636.073 967.14 635.542 932.417 639.981 927.978C642.405 925.555 650.024 928.078 653.927 924.175C682.247 895.855 723.458 877.736 765.49 886.142C771.605 887.365 774.549 892.723 780.703 893.749C784.952 894.457 794.695 893.138 798.452 895.017C816.489 904.035 792.172 931.899 799.72 946.995C807.217 961.99 829.646 946.461 822.54 974.886C819.874 985.547 789.127 1015 800.988 1026.86C808.907 1034.78 824.758 1024.01 832.682 1031.94C842.549 1041.8 827.138 1069.5 836.485 1078.84C843.129 1085.49 857.463 1051.69 866.912 1067.43C870.42 1073.28 869.452 1082.66 871.983 1088.98C878.846 1106.14 892.703 1117.31 904.944 1129.55C911.258 1135.87 902.494 1147.84 913.819 1152.37C938.367 1162.19 955.814 1147.58 977.207 1142.23C990.084 1139.01 1004.75 1150.01 1017.78 1143.5C1035.46 1134.66 1042.68 1117.22 1063.42 1113.07C1098.45 1106.07 1125.51 1139.19 1161.03 1132.09C1169.21 1130.45 1166.9 1112.24 1173.71 1110.54C1211.99 1100.97 1204.08 1077.61 1229.49 1058.56C1242.29 1048.96 1262.86 1046.8 1267.53 1028.13C1269.36 1020.78 1270.63 993.203 1264.99 987.563C1259.14 981.715 1237.09 981.872 1240.9 972.35C1249.64 950.502 1263.04 967.959 1273.86 957.137C1285.42 945.578 1295.29 930.641 1306.83 919.104C1312.25 913.682 1324.14 915.735 1329.65 910.23C1335.74 904.137 1313.62 901.33 1322.04 895.017C1328.72 890.01 1350.6 890.841 1358.8 892.481C1376.16 895.952 1336.33 973.244 1358.8 990.099C1366.25 995.682 1376.78 989.828 1382.89 993.902C1397.41 1003.58 1391.97 1031.98 1423.46 1038.27C1437.31 1041.04 1446.36 1026.6 1457.69 1024.33C1464.11 1023.05 1468.56 1031.57 1477.97 1026.86C1482.53 1024.59 1483.03 1015.45 1488.12 1015.45C1494.74 1015.45 1485.4 1034.29 1484.31 1035.74C1479.25 1042.49 1441.79 1065.48 1447.55 1071.24C1455.82 1079.5 1479.32 1051.43 1488.12 1057.29C1503.25 1067.38 1470.8 1086.88 1472.9 1088.98C1476.89 1092.97 1495.44 1088.21 1502.06 1091.52C1521.5 1101.24 1508.35 1153.57 1513.47 1161.25C1516.71 1166.1 1562.4 1171.49 1569.25 1170.12C1578.35 1168.3 1580.05 1146.1 1578.13 1138.43C1575.56 1128.17 1559.6 1134.03 1557.84 1127.02C1555.79 1118.8 1564.17 1111.9 1565.45 1104.2C1567.58 1091.43 1556.03 1081.58 1559.11 1066.16C1560.45 1059.49 1568.79 1059.03 1573.06 1054.76C1578.92 1048.89 1574.4 1040.69 1578.13 1034.47C1581.65 1028.59 1591.26 1026.68 1595.88 1020.53C1607.81 1004.61 1626.55 977.717 1631.37 958.405C1632.21 955.05 1638.18 927.638 1637.71 926.711C1635.19 921.654 1623.97 922.657 1622.5 915.301C1619.67 901.175 1634.55 896.24 1636.45 888.678C1639.81 875.216 1620.95 861.35 1642.78 856.984C1678.89 849.762 1646.55 888.938 1660.53 886.142C1667.27 884.796 1690.73 845.349 1694.76 849.377C1702.68 857.293 1687.96 882.09 1689.69 892.481C1690.85 899.457 1690.63 927.324 1692.23 930.514C1694.49 935.045 1712.06 926.256 1715.05 929.246C1726.04 940.238 1734.71 962.12 1753.08 964.744C1779.66 968.541 1776.76 931.985 1779.7 930.514C1791.35 924.691 1805.91 938.824 1817.74 936.853C1831.9 934.492 1842.28 911.728 1859.57 920.372C1870.4 925.787 1859.98 941.27 1864.64 948.263C1869.23 955.136 1882.89 947.879 1888.73 950.798C1892.32 952.59 1883.29 962.921 1886.2 967.279C1888.82 971.21 1904.87 964.744 1900.14 964.744C1896.12 964.744 1885.23 974.662 1891.27 978.689C1899.71 984.317 1917.34 973.733 1920.43 966.011C1931.46 938.415 1912.17 940.622 1902.68 921.64C1896.75 909.796 1926.16 910.07 1917.89 896.284C1904.08 873.273 1849.15 890.739 1888.73 837.967C1895.02 829.584 1918.27 793.241 1931.84 798.666C1938.93 801.503 1938.59 811.758 1943.24 816.415C1956.28 829.451 1998.2 849.365 2016.78 835.432C2054.53 807.116 1978.63 790.375 1982.55 770.775C1984.56 760.708 2003.45 763.794 1998.59 751.663C1995.27 743.35 2011.12 751.663 2009.08 743.37C2005.75 729.826 2014.04 744.274 2011.07 729.426C2009.89 723.493 2000.29 726.115 2000.29 720.065C2000.29 716.417 2025.98 696.976 2024.38 692.174C2020.94 681.835 2021.38 666.579 2019.31 654.141C2015.9 633.67 1995.87 648.882 1991.42 641.463C1986.64 633.497 1997.01 617.584 1983.81 612.305C1950.27 598.887 1961.05 641.409 1949.58 652.873C1943.81 658.646 1933.3 653.042 1926.76 657.944C1918.59 664.073 1930.76 671.513 1928.03 676.961C1923.82 685.377 1893.27 692.297 1884.93 690.906C1880.68 690.199 1840.31 668.613 1839.29 665.551C1838.13 662.069 1841.98 653.348 1836.75 651.605C1829.94 649.334 1817.74 661.748 1817.74 661.748C1817.74 661.748 1818.58 657.522 1819 655.409C1821.2 644.437 1836.77 616.11 1816.47 613.572C1803.37 611.936 1792.23 622.21 1778.44 619.911C1772.33 618.893 1772.1 608.501 1767.03 605.966C1757.81 601.357 1739.31 595.824 1728.99 595.824C1723.48 595.824 1708.72 601.537 1704.9 599.627C1702.41 598.38 1695.91 585.771 1690.96 589.485C1689.35 590.689 1678.98 608.625 1675.75 602.163C1671.07 592.819 1694.29 571.587 1696.03 562.862C1698.02 552.9 1698.93 505.448 1704.9 499.474C1716.18 488.196 1739.59 478.2 1742.94 461.441C1745.56 448.312 1708.62 397.629 1699.83 386.642C1676.86 357.929 1643.84 353.597 1612.36 341.003C1594.04 333.675 1583.82 318.921 1564.18 315.647C1541 311.784 1523.05 310.222 1502.06 320.719C1500.13 321.683 1495.4 324.728 1493.19 323.254C1486.42 318.742 1483.9 302.97 1472.9 302.97C1465.68 302.97 1456.78 310.648 1450.08 309.309C1444.04 308.1 1443.6 272.842 1420.93 270.008C1394.34 266.684 1331.63 287.51 1338.52 321.986C1341.34 336.106 1366.41 338.966 1366.41 349.877C1366.41 356.193 1353.05 366.01 1347.39 367.626C1339.75 369.81 1321.94 375.184 1314.43 371.429C1302.57 365.5 1295.61 342.627 1277.67 348.609C1271.11 350.796 1266.67 358.669 1259.92 360.019C1250.09 361.986 1239.03 357.472 1229.49 361.287C1214.88 367.131 1209.43 376.252 1192.73 379.036C1175.47 381.912 1171.94 355.15 1153.43 362.555C1143.92 366.358 1120.64 376.322 1112.86 384.107C1106.9 390.064 1118.88 392.032 1114.13 396.784C1111.95 398.956 1101.38 399.284 1098.91 398.052C1095.2 396.198 1099.39 393.971 1100.18 392.981C1112.24 377.909 1115.57 357.458 1088.77 361.287C1073.23 363.506 1044.13 385.646 1032.99 396.784C1028.51 401.264 1045.52 409.984 1040.6 413.265C1033.39 418.071 1018.65 409.462 1013.97 409.462C1008.99 409.462 1013.08 428.105 1011.44 429.746C1006.2 434.981 991.745 438.958 984.814 442.424C982.603 443.53 967.751 448.181 965.797 446.227C961.42 441.85 971.763 428.105 970.868 427.211C968.843 425.185 958.568 437.182 956.923 436.085C949.713 431.279 961.602 417.814 958.191 413.265C949.031 401.052 877.539 407.952 864.376 414.533C854.124 419.659 869.447 432.975 869.447 438.621C869.447 446.835 833.163 446.948 840.288 457.637C842.203 460.509 852.071 461.29 852.966 463.976C854.452 468.433 823.099 474.678 830.146 481.725C842.193 493.772 891.004 452.54 885.928 477.922C883.87 488.21 867.809 492.608 863.108 502.009C860.312 507.601 863.795 516.429 861.84 522.293C857.957 533.943 788.867 586.393 776.9 598.359C767.147 608.112 781.517 620.252 771.829 627.518C746.597 646.442 714.575 640.948 691.96 668.086C678.664 684.041 707.011 707.343 698.299 727.671C690.551 745.749 648.48 763.842 632.375 774.579C619.961 782.855 586.664 814.307 584.2 829.093C583.041 836.044 592.096 846.261 589.271 851.913C584.391 861.673 565.79 862.108 560.112 873.465C553.394 886.9 564.576 914.198 579.129 917.836C583.908 919.031 600.946 914.298 603.216 916.569C603.986 917.338 604.426 924.273 599.413 926.711Z" fill="url(#LinearGradient)" fill-rule="nonzero" opacity="1" stroke="#000000" stroke-linecap="round" stroke-linejoin="round" stroke-width="10" vectornator:layerName="Courbe 1"/>
<g fill="#000000" opacity="1" stroke="none" vectornator:layerName="Texte 1">
<path d="M1040.55 676.055L1052.95 679.033C1058.39 680.335 1062.49 682.077 1065.26 684.258C1069.55 687.643 1071.7 692.542 1071.7 698.955C1071.7 705.531 1069.19 710.991 1064.16 715.337C1059.13 719.683 1052.02 721.855 1042.84 721.855C1033.47 721.855 1026.1 719.715 1020.73 715.435C1015.35 711.154 1012.67 705.27 1012.67 697.783L1027.02 697.783C1027.48 701.071 1028.38 703.529 1029.71 705.156C1032.15 708.118 1036.33 709.6 1042.26 709.6C1045.81 709.6 1048.69 709.209 1050.9 708.428C1055.1 706.93 1057.2 704.147 1057.2 700.078C1057.2 697.702 1056.16 695.863 1054.08 694.561C1051.99 693.291 1048.72 692.168 1044.26 691.191L1036.64 689.482C1029.16 687.79 1023.98 685.951 1021.12 683.965C1016.27 680.645 1013.84 675.452 1013.84 668.389C1013.84 661.943 1016.18 656.589 1020.87 652.324C1025.56 648.06 1032.44 645.928 1041.53 645.928C1049.11 645.928 1055.58 647.938 1060.94 651.958C1066.29 655.978 1069.1 661.813 1069.36 669.463L1054.91 669.463C1054.64 665.133 1052.76 662.057 1049.24 660.234C1046.9 659.03 1043.98 658.428 1040.5 658.428C1036.63 658.428 1033.53 659.209 1031.22 660.771C1028.91 662.334 1027.76 664.515 1027.76 667.314C1027.76 669.886 1028.9 671.807 1031.17 673.076C1032.64 673.923 1035.76 674.915 1040.55 676.055Z"/>
<path d="M1098.26 709.355C1098.82 709.909 1100.51 710.186 1103.34 710.186C1103.77 710.186 1104.21 710.177 1104.69 710.161C1105.16 710.145 1105.62 710.12 1106.08 710.088L1106.08 720.488L1099.49 720.732C1092.91 720.96 1088.42 719.821 1086.01 717.314C1084.45 715.719 1083.66 713.262 1083.66 709.941L1083.66 677.178L1076.24 677.178L1076.24 667.266L1083.66 667.266L1083.66 652.422L1097.43 652.422L1097.43 667.266L1106.08 667.266L1106.08 677.178L1097.43 677.178L1097.43 705.303C1097.43 707.484 1097.71 708.835 1098.26 709.355Z"/>
<path d="M1118.97 691.631C1121.73 690.036 1125.8 688.896 1131.17 688.213L1135.91 687.627C1138.48 687.301 1140.32 686.895 1141.43 686.406C1143.41 685.56 1144.41 684.242 1144.41 682.451C1144.41 680.27 1143.65 678.765 1142.14 677.935C1140.62 677.104 1138.4 676.689 1135.47 676.689C1132.18 676.689 1129.86 677.503 1128.49 679.131C1127.51 680.335 1126.86 681.963 1126.54 684.014L1113.11 684.014C1113.4 679.359 1114.7 675.534 1117.01 672.539C1120.69 667.852 1127.01 665.508 1135.96 665.508C1141.79 665.508 1146.96 666.663 1151.49 668.975C1156.01 671.286 1158.27 675.648 1158.27 682.061L1158.27 706.475C1158.27 708.167 1158.31 710.218 1158.37 712.627C1158.47 714.45 1158.75 715.687 1159.2 716.338C1159.66 716.989 1160.34 717.526 1161.25 717.949L1161.25 720L1146.12 720C1145.69 718.926 1145.4 717.917 1145.24 716.973C1145.07 716.029 1144.94 714.954 1144.85 713.75C1142.93 715.833 1140.71 717.607 1138.21 719.072C1135.21 720.798 1131.83 721.66 1128.05 721.66C1123.23 721.66 1119.25 720.285 1116.11 717.534C1112.97 714.784 1111.4 710.885 1111.4 705.84C1111.4 699.297 1113.92 694.561 1118.97 691.631ZM1140.45 708.916C1142.96 707.158 1144.26 703.952 1144.36 699.297L1144.36 694.121C1143.48 694.674 1142.59 695.122 1141.7 695.464C1140.8 695.806 1139.57 696.123 1138.01 696.416L1134.89 697.002C1131.96 697.523 1129.86 698.158 1128.59 698.906C1126.44 700.176 1125.36 702.145 1125.36 704.814C1125.36 707.191 1126.02 708.908 1127.34 709.966C1128.66 711.024 1130.26 711.553 1132.15 711.553C1135.15 711.553 1137.91 710.674 1140.45 708.916Z"/>
<path d="M1187.18 709.355C1187.73 709.909 1189.43 710.186 1192.26 710.186C1192.68 710.186 1193.13 710.177 1193.6 710.161C1194.07 710.145 1194.54 710.12 1194.99 710.088L1194.99 720.488L1188.4 720.732C1181.83 720.96 1177.33 719.821 1174.92 717.314C1173.36 715.719 1172.58 713.262 1172.58 709.941L1172.58 677.178L1165.16 677.178L1165.16 667.266L1172.58 667.266L1172.58 652.422L1186.35 652.422L1186.35 667.266L1194.99 667.266L1194.99 677.178L1186.35 677.178L1186.35 705.303C1186.35 707.484 1186.63 708.835 1187.18 709.355Z"/>
<path d="M1218.24 666.777L1218.24 720L1204.12 720L1204.12 666.777L1218.24 666.777ZM1218.24 647.588L1218.24 660.43L1204.12 660.43L1204.12 647.588L1218.24 647.588Z"/>
<path d="M1245.87 677.324C1244.57 678.268 1243.92 679.375 1243.92 680.645C1243.92 682.24 1244.6 683.395 1245.97 684.111C1247.34 684.86 1252.17 686.146 1260.47 687.969C1266.01 689.271 1270.16 691.24 1272.92 693.877C1275.66 696.546 1277.02 699.883 1277.02 703.887C1277.02 709.16 1275.06 713.465 1271.14 716.802C1267.22 720.138 1261.16 721.807 1252.95 721.807C1244.59 721.807 1238.41 720.041 1234.42 716.509C1230.43 712.977 1228.44 708.477 1228.44 703.008L1242.55 703.008C1242.84 705.482 1243.48 707.24 1244.46 708.281C1246.18 710.137 1249.37 711.064 1254.03 711.064C1256.76 711.064 1258.93 710.658 1260.54 709.844C1262.16 709.03 1262.96 707.809 1262.96 706.182C1262.96 704.619 1262.31 703.431 1261.01 702.617C1259.71 701.803 1254.87 700.404 1246.51 698.418C1240.48 696.921 1236.24 695.049 1233.76 692.803C1231.29 690.589 1230.05 687.399 1230.05 683.232C1230.05 678.317 1231.98 674.093 1235.84 670.562C1239.7 667.03 1245.12 665.264 1252.12 665.264C1258.76 665.264 1264.17 666.59 1268.36 669.243C1272.54 671.896 1274.94 676.478 1275.56 682.988L1261.64 682.988C1261.45 681.198 1260.94 679.782 1260.13 678.74C1258.6 676.852 1256 675.908 1252.32 675.908C1249.29 675.908 1247.14 676.38 1245.87 677.324Z"/>
<path d="M1310.91 720L1296.46 720L1281.52 666.777L1296.46 666.777L1304.76 704.961L1312.42 666.777L1326.54 666.777L1334.64 705.107L1342.94 666.777L1357.44 666.777L1342.01 720L1327.71 720L1319.36 681.23L1310.91 720Z"/>
<path d="M1379.42 666.777L1379.42 720L1365.31 720L1365.31 666.777L1379.42 666.777ZM1379.42 647.588L1379.42 660.43L1365.31 660.43L1365.31 647.588L1379.42 647.588Z"/>
<path d="M1407.05 677.324C1405.75 678.268 1405.1 679.375 1405.1 680.645C1405.1 682.24 1405.78 683.395 1407.15 684.111C1408.52 684.86 1413.35 686.146 1421.65 687.969C1427.19 689.271 1431.34 691.24 1434.1 693.877C1436.84 696.546 1438.21 699.883 1438.21 703.887C1438.21 709.16 1436.24 713.465 1432.32 716.802C1428.4 720.138 1422.34 721.807 1414.13 721.807C1405.77 721.807 1399.59 720.041 1395.6 716.509C1391.62 712.977 1389.62 708.477 1389.62 703.008L1403.73 703.008C1404.03 705.482 1404.66 707.24 1405.64 708.281C1407.36 710.137 1410.55 711.064 1415.21 711.064C1417.94 711.064 1420.12 710.658 1421.73 709.844C1423.34 709.03 1424.14 707.809 1424.14 706.182C1424.14 704.619 1423.49 703.431 1422.19 702.617C1420.89 701.803 1416.05 700.404 1407.69 698.418C1401.67 696.921 1397.42 695.049 1394.94 692.803C1392.47 690.589 1391.23 687.399 1391.23 683.232C1391.23 678.317 1393.16 674.093 1397.02 670.562C1400.88 667.03 1406.3 665.264 1413.3 665.264C1419.94 665.264 1425.36 666.59 1429.54 669.243C1433.72 671.896 1436.12 676.478 1436.74 682.988L1422.83 682.988C1422.63 681.198 1422.13 679.782 1421.31 678.74C1419.78 676.852 1417.18 675.908 1413.5 675.908C1410.47 675.908 1408.32 676.38 1407.05 677.324Z"/>
<path d="M1462.67 677.324C1461.37 678.268 1460.72 679.375 1460.72 680.645C1460.72 682.24 1461.4 683.395 1462.77 684.111C1464.13 684.86 1468.97 686.146 1477.27 687.969C1482.8 689.271 1486.95 691.24 1489.72 693.877C1492.45 696.546 1493.82 699.883 1493.82 703.887C1493.82 709.16 1491.86 713.465 1487.94 716.802C1484.01 720.138 1477.95 721.807 1469.75 721.807C1461.38 721.807 1455.21 720.041 1451.22 716.509C1447.23 712.977 1445.24 708.477 1445.24 703.008L1459.35 703.008C1459.64 705.482 1460.28 707.24 1461.25 708.281C1462.98 710.137 1466.17 711.064 1470.82 711.064C1473.56 711.064 1475.73 710.658 1477.34 709.844C1478.95 709.03 1479.76 707.809 1479.76 706.182C1479.76 704.619 1479.11 703.431 1477.81 702.617C1476.5 701.803 1471.67 700.404 1463.3 698.418C1457.28 696.921 1453.03 695.049 1450.56 692.803C1448.09 690.589 1446.85 687.399 1446.85 683.232C1446.85 678.317 1448.78 674.093 1452.63 670.562C1456.49 667.03 1461.92 665.264 1468.92 665.264C1475.56 665.264 1480.97 666.59 1485.15 669.243C1489.34 671.896 1491.74 676.478 1492.36 682.988L1478.44 682.988C1478.25 681.198 1477.74 679.782 1476.93 678.74C1475.4 676.852 1472.79 675.908 1469.11 675.908C1466.09 675.908 1463.94 676.38 1462.67 677.324Z"/>
</g>
</g>
<g id="Calque-2" vectornator:layerName="Calque 2">
<path d="M1467.96 260.704C1465.77 271.637 1467.61 281.765 1468.85 292.936C1468.93 293.645 1469.28 299.767 1471.54 299.203C1473.19 298.79 1476.33 289.039 1478.7 286.669C1484.76 280.608 1494.95 278.822 1501.98 274.134" fill="none" opacity="1" stroke="#9baff6" stroke-linecap="round" stroke-linejoin="round" stroke-width="10" vectornator:layerName="Courbe 1"/>
<path d="M1475.12 283.088C1475.12 272.634 1482.21 264.42 1486.76 255.332C1491.84 245.178 1497.46 233.977 1504.66 224.891C1513.36 213.925 1522.33 206.928 1533.32 198.032C1551.79 183.076 1569.99 169.659 1591.51 159.533" fill="none" opacity="1" stroke="#9baff6" stroke-linecap="round" stroke-linejoin="round" stroke-width="10" vectornator:layerName="Courbe 2"/>
<g fill="#9baff6" opacity="1" stroke="none" vectornator:layerName="Texte 1">
<path d="M1627.83 160.333C1623.69 160.333 1620.43 159.005 1618.06 156.349C1615.69 153.68 1614.51 150.021 1614.51 145.372C1614.51 140.346 1615.85 136.473 1618.55 133.751C1620.89 131.381 1623.87 130.197 1627.49 130.197C1632.34 130.197 1635.88 131.785 1638.12 134.962C1639.36 136.746 1640.02 138.536 1640.11 140.333L1634.1 140.333C1633.7 138.953 1633.2 137.911 1632.59 137.208C1631.5 135.958 1629.88 135.333 1627.73 135.333C1625.54 135.333 1623.82 136.215 1622.55 137.98C1621.29 139.744 1620.66 142.241 1620.66 145.47C1620.66 148.699 1621.33 151.118 1622.66 152.726C1623.99 154.334 1625.69 155.138 1627.75 155.138C1629.86 155.138 1631.47 154.448 1632.57 153.068C1633.18 152.325 1633.69 151.212 1634.1 149.728L1640.05 149.728C1639.53 152.866 1638.2 155.418 1636.06 157.384C1633.92 159.35 1631.17 160.333 1627.83 160.333Z"/>
<path d="M1645.78 148.185C1646.88 147.547 1648.51 147.091 1650.66 146.818L1652.55 146.583C1653.58 146.453 1654.32 146.29 1654.76 146.095C1655.55 145.756 1655.95 145.229 1655.95 144.513C1655.95 143.641 1655.65 143.038 1655.04 142.706C1654.44 142.374 1653.55 142.208 1652.38 142.208C1651.06 142.208 1650.13 142.534 1649.58 143.185C1649.19 143.667 1648.93 144.318 1648.8 145.138L1643.43 145.138C1643.55 143.276 1644.07 141.746 1644.99 140.548C1646.47 138.673 1648.99 137.736 1652.57 137.736C1654.9 137.736 1656.97 138.198 1658.78 139.122C1660.59 140.047 1661.5 141.792 1661.5 144.357L1661.5 154.122C1661.5 154.799 1661.51 155.62 1661.54 156.583C1661.58 157.312 1661.69 157.807 1661.87 158.068C1662.05 158.328 1662.32 158.543 1662.69 158.712L1662.69 159.533L1656.63 159.533C1656.47 159.103 1656.35 158.699 1656.28 158.322C1656.22 157.944 1656.17 157.514 1656.13 157.033C1655.36 157.866 1654.47 158.575 1653.47 159.161C1652.27 159.852 1650.92 160.197 1649.41 160.197C1647.48 160.197 1645.89 159.646 1644.63 158.546C1643.38 157.446 1642.75 155.887 1642.75 153.868C1642.75 151.251 1643.76 149.357 1645.78 148.185ZM1654.37 155.099C1655.37 154.396 1655.89 153.113 1655.93 151.251L1655.93 149.181C1655.58 149.402 1655.22 149.581 1654.87 149.718C1654.51 149.855 1654.02 149.982 1653.39 150.099L1652.14 150.333C1650.97 150.542 1650.13 150.796 1649.62 151.095C1648.76 151.603 1648.33 152.391 1648.33 153.458C1648.33 154.409 1648.6 155.096 1649.12 155.519C1649.65 155.942 1650.29 156.154 1651.05 156.154C1652.25 156.154 1653.35 155.802 1654.37 155.099Z"/>
<path d="M1683.65 139.454C1685.04 140.613 1685.74 142.527 1685.74 145.197L1685.74 159.533L1680.03 159.533L1680.03 146.583C1680.03 145.463 1679.88 144.604 1679.58 144.005C1679.04 142.911 1678 142.365 1676.46 142.365C1674.57 142.365 1673.28 143.165 1672.57 144.767C1672.21 145.613 1672.03 146.694 1672.03 148.009L1672.03 159.533L1666.48 159.533L1666.48 138.283L1671.85 138.283L1671.85 141.388C1672.57 140.294 1673.24 139.506 1673.88 139.025C1675.03 138.165 1676.48 137.736 1678.24 137.736C1680.44 137.736 1682.24 138.309 1683.65 139.454Z"/>
<path d="M1713.94 144.103C1713.47 143.074 1712.55 142.56 1711.19 142.56C1709.6 142.56 1708.53 143.074 1707.98 144.103C1707.68 144.689 1707.53 145.561 1707.53 146.72L1707.53 159.533L1701.89 159.533L1701.89 138.283L1707.3 138.283L1707.3 141.388C1707.99 140.281 1708.64 139.493 1709.25 139.025C1710.33 138.191 1711.73 137.775 1713.45 137.775C1715.08 137.775 1716.39 138.133 1717.4 138.849C1718.2 139.513 1718.82 140.366 1719.23 141.408C1719.96 140.158 1720.87 139.24 1721.95 138.654C1723.09 138.068 1724.37 137.775 1725.78 137.775C1726.71 137.775 1727.64 137.957 1728.55 138.322C1729.46 138.686 1730.29 139.324 1731.03 140.236C1731.63 140.978 1732.03 141.889 1732.24 142.97C1732.37 143.686 1732.44 144.734 1732.44 146.115L1732.4 159.533L1726.69 159.533L1726.69 145.978C1726.69 145.171 1726.56 144.506 1726.3 143.986C1725.81 142.996 1724.9 142.501 1723.57 142.501C1722.03 142.501 1720.97 143.139 1720.38 144.415C1720.09 145.092 1719.94 145.906 1719.94 146.857L1719.94 159.533L1714.33 159.533L1714.33 146.857C1714.33 145.594 1714.2 144.676 1713.94 144.103Z"/>
<path d="M1755.31 140.939C1757.1 143.191 1758 145.854 1758 148.927C1758 152.052 1757.1 154.725 1755.31 156.945C1753.51 159.165 1750.78 160.275 1747.12 160.275C1743.46 160.275 1740.74 159.165 1738.94 156.945C1737.14 154.725 1736.24 152.052 1736.24 148.927C1736.24 145.854 1737.14 143.191 1738.94 140.939C1740.74 138.686 1743.46 137.56 1747.12 137.56C1750.78 137.56 1753.51 138.686 1755.31 140.939ZM1750.85 143.986C1749.98 142.84 1748.73 142.267 1747.1 142.267C1745.48 142.267 1744.22 142.843 1743.34 143.995C1742.46 145.148 1742.03 146.792 1742.03 148.927C1742.03 151.062 1742.46 152.71 1743.34 153.868C1744.22 155.027 1745.48 155.607 1747.1 155.607C1748.73 155.607 1749.98 155.027 1750.85 153.868C1751.73 152.71 1752.16 151.062 1752.16 148.927C1752.16 146.792 1751.73 145.144 1750.85 143.986Z"/>
<path d="M1767.53 159.533L1759.9 138.243L1766.15 138.243L1770.58 153.947L1775.11 138.243L1781.09 138.243L1773.41 159.533L1767.53 159.533Z"/>
<path d="M1792.83 160.236C1790.12 160.236 1787.73 159.363 1785.66 157.618C1783.59 155.874 1782.55 153.035 1782.55 149.103C1782.55 145.418 1783.49 142.592 1785.36 140.626C1787.22 138.66 1789.65 137.677 1792.63 137.677C1794.4 137.677 1796 138.009 1797.42 138.673C1798.84 139.337 1800.01 140.385 1800.93 141.818C1801.76 143.081 1802.31 144.546 1802.55 146.212C1802.7 147.189 1802.75 148.595 1802.73 150.431L1788.16 150.431C1788.24 152.566 1788.91 154.064 1790.17 154.923C1790.94 155.457 1791.86 155.724 1792.94 155.724C1794.09 155.724 1795.02 155.398 1795.74 154.747C1796.13 154.396 1796.47 153.908 1796.77 153.283L1802.45 153.283C1802.31 154.546 1801.65 155.828 1800.48 157.13C1798.66 159.2 1796.11 160.236 1792.83 160.236ZM1792.63 142.267C1791.34 142.267 1790.34 142.671 1789.63 143.478C1788.92 144.285 1788.48 145.379 1788.29 146.759L1796.95 146.759C1796.86 145.288 1796.41 144.171 1795.61 143.409C1794.81 142.648 1793.82 142.267 1792.63 142.267Z"/>
<path d="M1824.21 155.275C1824.43 155.496 1825.11 155.607 1826.24 155.607C1826.41 155.607 1826.59 155.603 1826.78 155.597C1826.97 155.59 1827.16 155.581 1827.34 155.568L1827.34 159.728L1824.7 159.825C1822.07 159.917 1820.27 159.461 1819.31 158.458C1818.69 157.82 1818.37 156.837 1818.37 155.509L1818.37 142.404L1815.4 142.404L1815.4 138.439L1818.37 138.439L1818.37 132.501L1823.88 132.501L1823.88 138.439L1827.34 138.439L1827.34 142.404L1823.88 142.404L1823.88 153.654C1823.88 154.526 1823.99 155.066 1824.21 155.275Z"/>
<path d="M1843.88 143.81C1843.37 142.82 1842.41 142.325 1840.99 142.325C1839.52 142.325 1838.4 142.817 1837.64 143.8C1836.88 144.783 1836.5 146.186 1836.5 148.009L1836.5 159.533L1830.95 159.533L1830.95 130.841L1836.5 130.841L1836.5 141.017C1837.31 139.78 1838.24 138.917 1839.3 138.429C1840.36 137.941 1841.48 137.697 1842.65 137.697C1843.97 137.697 1845.16 137.924 1846.23 138.38C1847.31 138.836 1848.19 139.533 1848.88 140.47C1849.47 141.264 1849.82 142.081 1849.95 142.921C1850.09 143.761 1850.15 145.131 1850.15 147.033L1850.15 159.533L1844.47 159.533L1844.47 146.583C1844.47 145.437 1844.27 144.513 1843.88 143.81Z"/>
<path d="M1863.94 160.236C1861.23 160.236 1858.84 159.363 1856.77 157.618C1854.7 155.874 1853.67 153.035 1853.67 149.103C1853.67 145.418 1854.6 142.592 1856.47 140.626C1858.34 138.66 1860.76 137.677 1863.74 137.677C1865.51 137.677 1867.11 138.009 1868.53 138.673C1869.95 139.337 1871.12 140.385 1872.04 141.818C1872.88 143.081 1873.42 144.546 1873.67 146.212C1873.81 147.189 1873.87 148.595 1873.84 150.431L1859.27 150.431C1859.35 152.566 1860.02 154.064 1861.28 154.923C1862.05 155.457 1862.98 155.724 1864.06 155.724C1865.2 155.724 1866.13 155.398 1866.85 154.747C1867.24 154.396 1867.59 153.908 1867.88 153.283L1873.57 153.283C1873.42 154.546 1872.77 155.828 1871.6 157.13C1869.77 159.2 1867.22 160.236 1863.94 160.236ZM1863.74 142.267C1862.45 142.267 1861.46 142.671 1860.75 143.478C1860.04 144.285 1859.59 145.379 1859.41 146.759L1868.06 146.759C1867.97 145.288 1867.52 144.171 1866.72 143.409C1865.92 142.648 1864.93 142.267 1863.74 142.267Z"/>
<path d="M1888.82 130.743L1894.39 130.743L1894.39 159.533L1888.82 159.533L1888.82 130.743Z"/>
<path d="M1905.54 138.243L1905.54 159.533L1899.9 159.533L1899.9 138.243L1905.54 138.243ZM1905.54 130.568L1905.54 135.704L1899.9 135.704L1899.9 130.568L1905.54 130.568Z"/>
<path d="M1928.14 139.454C1929.53 140.613 1930.23 142.527 1930.23 145.197L1930.23 159.533L1924.53 159.533L1924.53 146.583C1924.53 145.463 1924.38 144.604 1924.08 144.005C1923.53 142.911 1922.49 142.365 1920.95 142.365C1919.06 142.365 1917.77 143.165 1917.06 144.767C1916.7 145.613 1916.52 146.694 1916.52 148.009L1916.52 159.533L1910.97 159.533L1910.97 138.283L1916.34 138.283L1916.34 141.388C1917.06 140.294 1917.73 139.506 1918.37 139.025C1919.52 138.165 1920.97 137.736 1922.73 137.736C1924.93 137.736 1926.73 138.309 1928.14 139.454Z"/>
<path d="M1943.96 160.236C1941.25 160.236 1938.86 159.363 1936.79 157.618C1934.72 155.874 1933.69 153.035 1933.69 149.103C1933.69 145.418 1934.62 142.592 1936.49 140.626C1938.36 138.66 1940.78 137.677 1943.76 137.677C1945.53 137.677 1947.13 138.009 1948.55 138.673C1949.97 139.337 1951.14 140.385 1952.06 141.818C1952.9 143.081 1953.44 144.546 1953.69 146.212C1953.83 147.189 1953.89 148.595 1953.86 150.431L1939.29 150.431C1939.37 152.566 1940.04 154.064 1941.3 154.923C1942.07 155.457 1943 155.724 1944.08 155.724C1945.22 155.724 1946.15 155.398 1946.87 154.747C1947.26 154.396 1947.6 153.908 1947.9 153.283L1953.59 153.283C1953.44 154.546 1952.79 155.828 1951.61 157.13C1949.79 159.2 1947.24 160.236 1943.96 160.236ZM1943.76 142.267C1942.47 142.267 1941.47 142.671 1940.77 143.478C1940.06 144.285 1939.61 145.379 1939.43 146.759L1948.08 146.759C1947.99 145.288 1947.54 144.171 1946.74 143.409C1945.94 142.648 1944.95 142.267 1943.76 142.267Z"/>
</g>
</g>
</svg>
