<svg xmlns="http://www.w3.org/2000/svg" width="500" height="253.88" version="1.0">
  <path style="fill:#fff;fill-opacity:1;fill-rule:nonzero;stroke:none" d="M439.253 291.593v4.099h-4.571v4.782h-4.099v-4.782h-4.565v-4.099h4.565v-4.562h4.099v4.562h4.571z" transform="translate(-1250.75030922 -915.48440249) scale(3.46758)"/>
  <path style="fill:#e60005;fill-opacity:1;fill-rule:nonzero;stroke:none" d="M439.253 295.692v8.184h-13.235v-8.184h4.565v4.782h4.099v-4.782h4.571zm-13.235-28.796h13.235v24.697h-4.571v-4.562h-4.099v4.562h-4.565v-24.697z" transform="translate(-1250.75030922 -915.48440249) scale(3.46758)"/>
  <path style="fill:#1b1c20;fill-opacity:1;fill-rule:nonzero;stroke:none" d="M363.582 303.534h15.07v-2.769h-11.847v-4.358h9.964v-2.769h-9.964v-3.836h11.575v-2.769h-14.798v16.501zM385.999 300.765v-10.963h3.268c5.402 0 7.626 1.385 7.626 5.425 0 3.858-2.134 5.538-7.626 5.538h-3.268zm-3.223 2.769h8.08c5.447 0 9.26-2.723 9.26-8.352 0-5.947-4.176-8.149-9.396-8.149h-7.944v16.501zM421.457 287.033h-3.223v9.192c0 2.724-.976 4.948-5.538 4.948s-5.538-2.224-5.538-4.948v-9.192h-3.223v9.419c0 5.312 3.382 7.49 8.761 7.49 5.38 0 8.761-2.178 8.761-7.49v-9.419zM461.34 287.033h-3.224v9.192c0 2.724-.976 4.948-5.537 4.948-4.563 0-5.539-2.224-5.539-4.948v-9.192h-3.223v9.419c0 5.312 3.382 7.49 8.762 7.49 5.378 0 8.761-2.178 8.761-7.49v-9.419zM469.126 300.765v-10.963h3.269c5.402 0 7.626 1.385 7.626 5.425 0 3.858-2.134 5.538-7.626 5.538h-3.269zm-3.222 2.769h8.08c5.447 0 9.261-2.723 9.261-8.352 0-5.947-4.178-8.149-9.397-8.149h-7.944v16.501zM486.823 303.532h3.223v-7.127h10.281v-2.769h-10.281V289.8h11.961v-2.769h-15.184v16.501zM368.244 329.725h-.546v2.653c0 1.036-.663 1.507-1.773 1.507-1.11 0-1.773-.471-1.773-1.507v-2.653h-.545v2.653c0 1.631 1.271 1.966 2.318 1.966 1.048 0 2.319-.335 2.319-1.966v-2.653zM369.47 334.232h.502v-2.263c.292-.31.75-.651 1.302-.651.354 0 .911.106.899.875v2.039h.502v-2.139c0-1.11-.936-1.203-1.339-1.203-.576 0-1.023.273-1.364.571v-.471h-.502v3.242zM374.05 334.232h.502v-3.242h-.502v3.242zm-.043-4.507v.577h.576v-.577h-.576zM377.52 334.331c1.103 0 1.866-.632 1.866-1.779 0-.924-.725-1.662-1.866-1.662s-1.872.738-1.872 1.662c0 1.147.768 1.779 1.872 1.779zm0-.427c-.85 0-1.37-.515-1.37-1.29 0-.589.39-1.296 1.37-1.296.979 0 1.364.707 1.364 1.296 0 .775-.514 1.29-1.364 1.29zM380.513 334.232h.502v-2.263c.292-.31.75-.651 1.302-.651.353 0 .911.106.899.875v2.039h.502v-2.139c0-1.11-.936-1.203-1.339-1.203-.576 0-1.022.273-1.364.571v-.471h-.502v3.242zM388.051 333.271c-.205.254-.484.633-1.321.633-.843 0-1.333-.583-1.382-1.191h3.186c.025-1.283-.88-1.823-1.915-1.823-.998 0-1.773.676-1.773 1.705 0 .993.743 1.736 1.834 1.736 1.104 0 1.426-.422 1.761-.775l-.39-.285zm-2.685-.986c.143-.594.558-.967 1.296-.967.769 0 1.227.434 1.327.967h-2.623zM392.535 334.232h2.052c1.191 0 2.585-.459 2.585-2.294 0-1.476-1.01-2.213-2.411-2.213h-2.226v4.507zm.545-4.024h1.681c.917 0 1.853.391 1.853 1.712 0 1.773-1.494 1.829-1.94 1.829h-1.594v-3.541zM401.262 333.271c-.204.254-.483.633-1.32.633-.843 0-1.333-.583-1.383-1.191h3.187c.025-1.283-.88-1.823-1.916-1.823-.998 0-1.773.676-1.773 1.705 0 .993.744 1.736 1.835 1.736 1.104 0 1.426-.422 1.761-.775l-.391-.285zm-2.684-.986c.143-.594.558-.967 1.296-.967.768 0 1.227.434 1.326.967h-2.622zM402.898 334.232h.502v-2.343c.211-.198.626-.571 1.203-.571.7 0 .7.558.7.757v2.157h.502v-2.343c.211-.198.626-.571 1.191-.571.712 0 .712.558.712.757v2.157h.503v-2.343c0-.936-.893-.999-1.191-.999-.477 0-.812.149-1.32.577-.13-.235-.322-.577-1.029-.577-.533 0-.918.236-1.29.552v-.452h-.483v3.242zM411.183 334.331c1.104 0 1.866-.632 1.866-1.779 0-.924-.725-1.662-1.866-1.662s-1.872.738-1.872 1.662c0 1.147.769 1.779 1.872 1.779zm0-.427c-.849 0-1.37-.515-1.37-1.29 0-.589.391-1.296 1.37-1.296.98 0 1.364.707 1.364 1.296 0 .775-.514 1.29-1.364 1.29zM417.338 331.777c-.247-.422-.712-.887-1.692-.887-1.004 0-1.86.596-1.86 1.712 0 .973.725 1.729 1.891 1.729 1.01 0 1.482-.434 1.767-.93l-.434-.241c-.341.589-.794.744-1.321.744-.793 0-1.401-.54-1.401-1.253 0-.949.688-1.333 1.358-1.333.812 0 1.116.478 1.258.707l.434-.248zM418.652 334.232h.502v-1.94c.018-.093.533-.918 1.246-.918.217 0 .341.037.403.044v-.502c-.093-.019-.186-.026-.298-.026-.651 0-1.06.446-1.351.775v-.675h-.502v3.242zM425.048 331.938c0-.83-.843-1.048-1.581-1.048-1.128 0-1.481.465-1.668.695l.379.261c.161-.187.464-.547 1.326-.547.515 0 1.042.168 1.042.608v.124c-1.265.149-2.945.192-2.945 1.314 0 .837.787.986 1.32.986.62 0 1.148-.186 1.618-.489 0 .129.038.291.063.39h.502c-.031-.173-.056-.31-.056-.502v-1.792zm-.502 1.476c-.322.174-.949.508-1.649.508-.248 0-.819-.068-.819-.577 0-.625.992-.762 2.468-.905v.974zM428.556 330.99h-1.29v-1.079h-.502v1.079h-.688v.428h.688v2.008c0 .261 0 .905 1.06.905.205 0 .459-.037.819-.093v-.434c-.273.056-.472.1-.713.1-.509 0-.664-.174-.664-.527v-1.959h1.29v-.428zM429.664 334.232h.502v-3.242h-.502v3.242zm-.043-4.507v.577h.576v-.577h-.576zM434.814 331.777c-.248-.422-.713-.887-1.693-.887-1.004 0-1.86.596-1.86 1.712 0 .973.726 1.729 1.891 1.729 1.011 0 1.482-.434 1.767-.93l-.434-.241c-.341.589-.794.744-1.32.744-.794 0-1.402-.54-1.402-1.253 0-.949.689-1.333 1.358-1.333.812 0 1.116.478 1.258.707l.435-.248zM439.307 331.938c0-.83-.843-1.048-1.581-1.048-1.128 0-1.481.465-1.668.695l.379.261c.161-.187.465-.547 1.326-.547.515 0 1.042.168 1.042.608v.124c-1.265.149-2.945.192-2.945 1.314 0 .837.788.986 1.32.986.62 0 1.148-.186 1.619-.489 0 .129.037.291.062.39h.502c-.031-.173-.056-.31-.056-.502v-1.792zm-.502 1.476c-.322.174-.949.508-1.649.508-.248 0-.818-.068-.818-.577 0-.625.992-.762 2.467-.905v.974zM443.549 334.232h.546v-2.114h3.013v-.483h-3.013v-1.427h3.572v-.483h-4.118v4.507zM451.162 333.271c-.205.254-.484.633-1.321.633-.843 0-1.333-.583-1.383-1.191h3.187c.025-1.283-.88-1.823-1.916-1.823-.998 0-1.773.676-1.773 1.705 0 .993.744 1.736 1.835 1.736 1.104 0 1.426-.422 1.761-.775l-.39-.285zm-2.685-.986c.142-.594.558-.967 1.296-.967.769 0 1.227.434 1.326.967h-2.622zM455.866 333.215c-.31.335-.868.689-1.408.689-.88 0-1.401-.583-1.401-1.253 0-.986.72-1.333 1.389-1.333.701 0 1.122.329 1.42.638v1.259zm0-3.49v1.711c-.447-.328-.781-.546-1.451-.546-1.389 0-1.86.999-1.86 1.749 0 .738.521 1.692 1.773 1.692.744 0 1.073-.211 1.562-.607l.062.508h.453c-.007-.099-.037-.521-.037-.607v-3.9h-.502zM460.701 333.271c-.205.254-.484.633-1.321.633-.843 0-1.332-.583-1.382-1.191h3.186c.025-1.283-.88-1.823-1.915-1.823-.999 0-1.774.676-1.774 1.705 0 .993.745 1.736 1.836 1.736 1.103 0 1.426-.422 1.76-.775l-.39-.285zm-2.685-.986c.142-.594.558-.967 1.296-.967.769 0 1.227.434 1.327.967h-2.623zM462.361 334.232h.503v-1.94c.018-.093.532-.918 1.245-.918.217 0 .341.037.403.044v-.502c-.093-.019-.186-.026-.298-.026-.65 0-1.059.446-1.35.775v-.675h-.503v3.242zM468.634 331.938c0-.83-.844-1.048-1.582-1.048-1.128 0-1.481.465-1.667.695l.379.261c.16-.187.464-.547 1.326-.547.515 0 1.041.168 1.041.608v.124c-1.264.149-2.944.192-2.944 1.314 0 .837.787.986 1.32.986.62 0 1.147-.186 1.618-.489 0 .129.037.291.062.39h.502c-.031-.173-.055-.31-.055-.502v-1.792zm-.503 1.476c-.322.174-.948.508-1.649.508-.248 0-.818-.068-.818-.577 0-.625.992-.762 2.467-.905v.974zM470.027 334.232h.502v-4.507h-.502v4.507zM474.836 333.271c-.205.254-.484.633-1.321.633-.843 0-1.333-.583-1.382-1.191h3.186c.025-1.283-.88-1.823-1.916-1.823-.997 0-1.772.676-1.772 1.705 0 .993.744 1.736 1.835 1.736 1.103 0 1.426-.422 1.76-.775l-.39-.285zm-2.684-.986c.142-.594.557-.967 1.295-.967.769 0 1.228.434 1.327.967h-2.622zM368.244 320.797h-.546v2.654c0 1.036-.663 1.506-1.773 1.506-1.11 0-1.773-.47-1.773-1.506v-2.654h-.545v2.654c0 1.63 1.271 1.966 2.318 1.966 1.048 0 2.319-.336 2.319-1.966v-2.654zM369.47 325.305h.502v-2.263c.292-.31.75-.651 1.302-.651.354 0 .911.105.899.874v2.04h.502v-2.139c0-1.11-.936-1.203-1.339-1.203-.576 0-1.023.273-1.364.571v-.471h-.502v3.242zM374.05 325.305h.502v-3.242h-.502v3.242zm-.043-4.508v.577h.576v-.577h-.576zM377.52 325.404c1.103 0 1.866-.632 1.866-1.78 0-.923-.725-1.661-1.866-1.661s-1.872.738-1.872 1.661c0 1.148.768 1.78 1.872 1.78zm0-.428c-.85 0-1.37-.514-1.37-1.289 0-.589.39-1.296 1.37-1.296.979 0 1.364.707 1.364 1.296 0 .775-.514 1.289-1.364 1.289zM380.513 325.305h.502v-2.263c.292-.31.75-.651 1.302-.651.353 0 .911.105.899.874v2.04h.502v-2.139c0-1.11-.936-1.203-1.339-1.203-.576 0-1.022.273-1.364.571v-.471h-.502v3.242zM387.936 325.305h2.052c1.19 0 2.585-.459 2.585-2.294 0-1.475-1.01-2.214-2.411-2.214h-2.226v4.508zm.546-4.024h1.68c.918 0 1.854.391 1.854 1.712 0 1.772-1.495 1.828-1.941 1.828h-1.593v-3.54zM394.884 321.598h.453l.917-.881h-.706l-.664.881zm1.779 2.745c-.204.255-.483.633-1.32.633-.843 0-1.333-.583-1.383-1.19h3.187c.025-1.284-.88-1.823-1.916-1.823-.998 0-1.773.676-1.773 1.705 0 .992.744 1.736 1.835 1.736 1.104 0 1.426-.422 1.761-.775l-.391-.286zm-2.684-.985c.143-.595.558-.967 1.295-.967.77 0 1.228.434 1.327.967h-2.622zM398.299 325.305h.502v-2.344c.211-.198.627-.57 1.203-.57.7 0 .7.558.7.757v2.157h.502v-2.344c.211-.198.627-.57 1.191-.57.713 0 .713.558.713.757v2.157h.502v-2.344c0-.936-.893-.998-1.19-.998-.478 0-.812.149-1.321.577-.13-.236-.322-.577-1.029-.577-.533 0-.918.236-1.29.552v-.452h-.483v3.242zM406.585 325.404c1.103 0 1.865-.632 1.865-1.78 0-.923-.725-1.661-1.865-1.661-1.141 0-1.873.738-1.873 1.661 0 1.148.769 1.78 1.873 1.78zm0-.428c-.85 0-1.371-.514-1.371-1.289 0-.589.391-1.296 1.371-1.296.979 0 1.363.707 1.363 1.296 0 .775-.514 1.289-1.363 1.289zM412.801 322.85c-.247-.421-.712-.887-1.692-.887-1.004 0-1.86.595-1.86 1.711 0 .973.725 1.73 1.891 1.73 1.01 0 1.482-.434 1.767-.93l-.434-.241c-.341.588-.794.743-1.321.743-.793 0-1.401-.539-1.401-1.252 0-.949.688-1.333 1.358-1.333.812 0 1.116.477 1.258.707l.434-.248zM414.115 325.305h.502v-1.941c.018-.093.533-.917 1.246-.917.217 0 .341.037.403.044v-.503c-.093-.018-.186-.025-.298-.025-.651 0-1.06.447-1.351.775v-.675h-.502v3.242zM420.511 323.011c0-.831-.843-1.048-1.581-1.048-1.128 0-1.482.466-1.668.694l.378.261c.162-.186.465-.545 1.327-.545.515 0 1.042.167 1.042.607v.124c-1.265.149-2.945.192-2.945 1.314 0 .837.787.986 1.321.986.62 0 1.147-.186 1.618-.49 0 .131.037.292.062.391h.502c-.032-.174-.056-.31-.056-.502v-1.792zm-.502 1.476c-.322.173-.949.508-1.649.508-.248 0-.819-.068-.819-.577 0-.626.992-.762 2.468-.905v.974zM424.019 322.063h-1.29v-1.079h-.502v1.079h-.688v.428h.688v2.008c0 .26 0 .905 1.06.905.205 0 .459-.038.818-.093v-.434c-.272.056-.47.099-.712.099-.509 0-.664-.173-.664-.527v-1.958h1.29v-.428zM425.127 325.305h.502v-3.242h-.502v3.242zm-.044-4.508v.577h.577v-.577h-.577zM430.035 324.337c-.298.31-.719.639-1.42.639-.669 0-1.388-.347-1.388-1.333 0-.669.521-1.252 1.401-1.252.539 0 1.097.354 1.407.688v1.258zm.502-2.274h-.372l-.118.508c-.477-.397-.806-.608-1.55-.608-1.252 0-1.773.955-1.773 1.693 0 .75.472 1.748 1.86 1.748.67 0 1.005-.217 1.451-.546v1.588h.502v-4.383zM434.826 322.063h-.502v2.262c-.291.31-.749.651-1.302.651-.353 0-.911-.105-.898-.874v-2.039h-.503v2.138c0 1.11.937 1.203 1.339 1.203.577 0 1.024-.273 1.364-.57v.471h.502v-3.242zM439.159 324.343c-.204.255-.484.633-1.321.633-.843 0-1.333-.583-1.382-1.19h3.186c.025-1.284-.88-1.823-1.916-1.823-.997 0-1.772.676-1.772 1.705 0 .992.744 1.736 1.835 1.736 1.103 0 1.425-.422 1.76-.775l-.39-.286zm-2.684-.985c.142-.595.557-.967 1.295-.967.769 0 1.228.434 1.327.967h-2.622zM443.643 325.305h.546v-2.114h3.013v-.484h-3.013v-1.426h3.571v-.484h-4.117v4.508zM449.531 321.598h.454l.917-.881h-.707l-.664.881zm1.78 2.745c-.204.255-.484.633-1.321.633-.843 0-1.333-.583-1.382-1.19h3.186c.025-1.284-.88-1.823-1.916-1.823-.997 0-1.772.676-1.772 1.705 0 .992.743 1.736 1.835 1.736 1.103 0 1.425-.422 1.76-.775l-.39-.286zm-2.684-.985c.142-.595.557-.967 1.295-.967.769 0 1.228.434 1.327.967h-2.622zM456.015 324.288c-.31.335-.868.688-1.407.688-.881 0-1.402-.583-1.402-1.252 0-.986.72-1.333 1.389-1.333.701 0 1.123.329 1.42.639v1.258zm0-3.491v1.712c-.447-.329-.781-.546-1.451-.546-1.388 0-1.86.998-1.86 1.749 0 .737.521 1.692 1.773 1.692.744 0 1.073-.211 1.563-.607l.062.508h.452c-.006-.099-.037-.521-.037-.607v-3.901h-.502zM459.07 321.598h.454l.917-.881h-.707l-.664.881zm1.78 2.745c-.204.255-.484.633-1.32.633-.844 0-1.334-.583-1.382-1.19h3.185c.025-1.284-.879-1.823-1.915-1.823-.998 0-1.773.676-1.773 1.705 0 .992.744 1.736 1.835 1.736 1.103 0 1.426-.422 1.76-.775l-.39-.286zm-2.684-.985c.142-.595.557-.967 1.295-.967.769 0 1.228.434 1.327.967h-2.622zM462.51 325.305h.502v-1.941c.019-.093.534-.917 1.246-.917.218 0 .342.037.403.044v-.503c-.093-.018-.185-.025-.297-.025-.651 0-1.06.447-1.352.775v-.675h-.502v3.242zM468.659 323.011c0-.831-.843-1.048-1.581-1.048-1.128 0-1.482.466-1.668.694l.379.261c.161-.186.465-.545 1.326-.545.515 0 1.042.167 1.042.607v.124c-1.265.149-2.945.192-2.945 1.314 0 .837.788.986 1.32.986.62 0 1.147-.186 1.619-.49 0 .131.037.292.062.391h.502c-.032-.174-.056-.31-.056-.502v-1.792zm-.502 1.476c-.323.173-.949.508-1.649.508-.249 0-.819-.068-.819-.577 0-.626.992-.762 2.468-.905v.974zM470.052 325.305h.503v-4.508h-.503v4.508zM474.861 324.343c-.204.255-.484.633-1.32.633-.843 0-1.334-.583-1.382-1.19h3.186c.024-1.284-.88-1.823-1.916-1.823-.998 0-1.773.676-1.773 1.705 0 .992.744 1.736 1.835 1.736 1.104 0 1.426-.422 1.761-.775l-.391-.286zm-2.684-.985c.143-.595.558-.967 1.296-.967.768 0 1.227.434 1.326.967h-2.622zM363.591 316.377h4.111v-.485h-3.563v-1.626h2.915v-.486h-2.915v-1.445h3.488v-.486h-4.036v4.528zM368.697 316.377h.504v-3.257h-.504v3.257zm-.044-4.528v.579h.579v-.579h-.579zM373.628 315.356c-.312.336-.872.692-1.414.692-.885 0-1.408-.586-1.408-1.259 0-.99.723-1.339 1.395-1.339.704 0 1.128.33 1.427.642v1.264zm0-3.507v1.719c-.449-.33-.785-.548-1.458-.548-1.395 0-1.868 1.003-1.868 1.757 0 .741.523 1.7 1.781 1.7.748 0 1.078-.211 1.57-.61l.062.51h.455c-.007-.099-.038-.523-.038-.61v-3.918h-.504zM379.015 312.996c-.436 0-.573.111-.841.329-.361-.23-.666-.305-1.221-.305-.809 0-1.557.318-1.557 1.146 0 .374.174.579.442.823-.168.1-.448.267-.448.566 0 .262.174.356.355.455-.43.149-.554.361-.554.598 0 .791 1.071.916 1.743.916.873 0 2.1-.131 2.1-1.004 0-.697-.642-.79-1.869-.803-1.146-.012-1.271-.049-1.271-.267 0-.125.075-.212.231-.269.299.113.461.156.94.156 1.153 0 1.52-.703 1.52-1.115 0-.348-.099-.504-.181-.629.1-.056.237-.137.611-.137v-.46zm-2.087 4.116c-.585 0-1.251-.118-1.251-.498 0-.218.192-.342.535-.467.399.019.791.031 1.19.044.916.031 1.146.093 1.146.38 0 .411-.773.541-1.62.541zm.056-3.68c.468 0 1.115.111 1.115.741 0 .591-.61.753-1.102.753-.355 0-1.115-.112-1.115-.753 0-.605.642-.741 1.102-.741zM383.106 315.412c-.205.256-.486.636-1.327.636-.847 0-1.339-.586-1.389-1.196h3.202c.025-1.29-.885-1.832-1.925-1.832-1.003 0-1.781.679-1.781 1.713 0 .997.747 1.744 1.844 1.744 1.108 0 1.432-.423 1.769-.779l-.393-.286zm-2.697-.99c.143-.599.561-.972 1.302-.972.772 0 1.233.436 1.333.972h-2.635zM384.774 316.377h.505v-2.273c.293-.311.753-.654 1.308-.654.355 0 .916.106.903.879v2.048h.505v-2.148c0-1.115-.941-1.209-1.346-1.209-.579 0-1.028.275-1.37.573v-.473h-.505v3.257zM390.161 312.484h.561v-.635h-.561v.635zm1.134 0h.56v-.635h-.56v.635zm-.287 3.993c1.109 0 1.875-.635 1.875-1.787 0-.929-.729-1.67-1.875-1.67s-1.881.741-1.881 1.67c0 1.152.772 1.787 1.881 1.787zm0-.429c-.853 0-1.376-.517-1.376-1.296 0-.592.392-1.302 1.376-1.302.984 0 1.37.71 1.37 1.302 0 .779-.517 1.296-1.37 1.296zM393.717 315.705c.485.567 1.083.772 1.806.772.834 0 1.569-.274 1.569-1.022 0-1.397-2.709-.636-2.709-1.478 0-.341.336-.527.934-.527.642 0 1.059.242 1.327.583l.343-.31c-.169-.236-.567-.703-1.663-.703-.686 0-1.446.249-1.446.988 0 1.348 2.71.56 2.71 1.485 0 .386-.486.555-1.022.555-.685 0-1.158-.288-1.476-.686l-.373.343zM397.987 315.705c.485.567 1.083.772 1.806.772.835 0 1.57-.274 1.57-1.022 0-1.397-2.71-.636-2.71-1.478 0-.341.337-.527.935-.527.641 0 1.059.242 1.326.583l.343-.31c-.169-.236-.567-.703-1.663-.703-.685 0-1.445.249-1.445.988 0 1.348 2.709.56 2.709 1.485 0 .386-.486.555-1.021.555-.686 0-1.159-.288-1.476-.686l-.374.343zM402.537 316.377h.505v-3.257h-.505v3.257zm-.043-4.528v.579h.579v-.579h-.579zM404.111 315.705c.486.567 1.084.772 1.806.772.835 0 1.57-.274 1.57-1.022 0-1.397-2.71-.636-2.71-1.478 0-.341.337-.527.935-.527.641 0 1.058.242 1.326.583l.343-.31c-.168-.236-.567-.703-1.663-.703-.685 0-1.445.249-1.445.988 0 1.348 2.709.56 2.709 1.485 0 .386-.486.555-1.021.555-.685 0-1.159-.288-1.476-.686l-.374.343zM411.981 313.911c-.249-.424-.716-.891-1.7-.891-1.009 0-1.869.598-1.869 1.719 0 .978.729 1.738 1.9 1.738 1.015 0 1.489-.436 1.775-.934l-.436-.243c-.342.592-.797.748-1.326.748-.798 0-1.408-.542-1.408-1.259 0-.953.691-1.339 1.364-1.339.816 0 1.121.48 1.264.71l.436-.249zM413.301 316.377h.504v-2.273c.293-.311.754-.654 1.308-.654.356 0 .916.106.904.879v2.048h.504v-2.148c0-1.115-.941-1.209-1.345-1.209-.58 0-1.028.275-1.371.573v-1.744h-.504v4.528zM417.647 314.484v.461h1.688v-.461h-1.688zM420.583 316.377h2.062c1.196 0 2.597-.461 2.597-2.304 0-1.483-1.015-2.224-2.422-2.224h-2.237v4.528zm.548-4.042h1.689c.922 0 1.862.392 1.862 1.719 0 1.781-1.501 1.838-1.949 1.838h-1.602v-3.557zM429.289 315.412c-.205.256-.485.636-1.326.636-.847 0-1.339-.586-1.389-1.196h3.201c.025-1.29-.884-1.832-1.924-1.832-1.003 0-1.782.679-1.782 1.713 0 .997.748 1.744 1.844 1.744 1.109 0 1.433-.423 1.769-.779l-.393-.286zm-2.696-.99c.143-.599.56-.972 1.301-.972.773 0 1.234.436 1.333.972h-2.634zM430.933 316.377h.504v-2.354c.212-.2.63-.573 1.209-.573.704 0 .704.561.704.76v2.167h.504v-2.354c.211-.2.629-.573 1.196-.573.717 0 .717.561.717.76v2.167h.504v-2.354c0-.941-.897-1.003-1.196-1.003-.48 0-.816.15-1.327.58-.131-.237-.324-.58-1.034-.58-.536 0-.922.237-1.295.555v-.455h-.486v3.257zM439.258 316.477c1.108 0 1.874-.635 1.874-1.787 0-.929-.728-1.67-1.874-1.67-1.147 0-1.882.741-1.882 1.67 0 1.152.773 1.787 1.882 1.787zm0-.429c-.854 0-1.377-.517-1.377-1.296 0-.592.392-1.302 1.377-1.302.984 0 1.369.71 1.369 1.302 0 .779-.517 1.296-1.369 1.296zM442.265 316.377h.504v-1.064l.941-.723 1.476 1.787h.641l-1.731-2.074 1.532-1.183h-.779l-2.08 1.613v-2.884h-.504v4.528zM446.885 316.377h.505v-1.949c.019-.093.536-.922 1.251-.922.218 0 .344.037.406.044v-.505c-.094-.019-.188-.025-.299-.025-.654 0-1.066.449-1.358.779v-.679h-.505v3.257zM453.188 314.073c0-.835-.848-1.053-1.589-1.053-1.134 0-1.489.467-1.676.698l.38.261c.162-.186.468-.547 1.333-.547.517 0 1.047.168 1.047.61v.124c-1.271.15-2.959.193-2.959 1.321 0 .841.792.99 1.327.99.623 0 1.152-.187 1.626-.492 0 .131.037.293.062.392h.504c-.031-.174-.055-.311-.055-.504v-1.8zm-.505 1.482c-.324.175-.953.511-1.658.511-.248 0-.821-.069-.821-.579 0-.629.996-.767 2.479-.91v.978zM456.712 313.12h-1.296v-1.084h-.505v1.084h-.691v.43h.691v2.018c0 .262 0 .909 1.066.909.205 0 .461-.038.822-.093v-.436c-.274.056-.474.1-.717.1-.51 0-.666-.175-.666-.53v-1.968h1.296v-.43zM457.825 316.377h.504v-3.257h-.504v3.257zm-.043-4.528v.579h.579v-.579h-.579zM459.398 315.705c.487.567 1.085.772 1.807.772.835 0 1.57-.274 1.57-1.022 0-1.397-2.71-.636-2.71-1.478 0-.341.337-.527.935-.527.641 0 1.059.242 1.326.583l.342-.31c-.167-.236-.566-.703-1.662-.703-.685 0-1.445.249-1.445.988 0 1.348 2.709.56 2.709 1.485 0 .386-.486.555-1.021.555-.685 0-1.159-.288-1.477-.686l-.374.343zM467.27 313.911c-.25-.424-.717-.891-1.702-.891-1.008 0-1.868.598-1.868 1.719 0 .978.729 1.738 1.9 1.738 1.015 0 1.489-.436 1.775-.934l-.436-.243c-.342.592-.797.748-1.326.748-.798 0-1.408-.542-1.408-1.259 0-.953.691-1.339 1.363-1.339.816 0 1.122.48 1.265.71l.437-.249zM468.588 316.377h.505v-2.273c.293-.311.754-.654 1.308-.654.355 0 .916.106.903.879v2.048h.505v-2.148c0-1.115-.941-1.209-1.346-1.209-.579 0-1.027.275-1.37.573v-1.744h-.505v4.528zM476.162 315.412c-.206.256-.486.636-1.327.636-.848 0-1.34-.586-1.389-1.196h3.201c.025-1.29-.884-1.832-1.924-1.832-1.003 0-1.781.679-1.781 1.713 0 .997.747 1.744 1.843 1.744 1.109 0 1.433-.423 1.769-.779l-.392-.286zm-2.697-.99c.143-.599.56-.972 1.301-.972.773 0 1.234.436 1.333.972h-2.634zM485.345 311.849h-.548v2.666c0 1.04-.667 1.514-1.781 1.514-1.115 0-1.782-.474-1.782-1.514v-2.666h-.548v2.666c0 1.638 1.277 1.975 2.33 1.975 1.052 0 2.329-.337 2.329-1.975v-2.666zM486.577 316.377h.505v-2.273c.292-.311.753-.654 1.307-.654.356 0 .916.106.904.879v2.048h.504v-2.148c0-1.115-.94-1.209-1.345-1.209-.58 0-1.028.275-1.37.573v-.473h-.505v3.257zM491.179 316.377h.505v-3.257h-.505v3.257zm-.044-4.528v.579h.58v-.579h-.58zM494.665 316.477c1.108 0 1.875-.635 1.875-1.787 0-.929-.729-1.67-1.875-1.67-1.147 0-1.881.741-1.881 1.67 0 1.152.772 1.787 1.881 1.787zm0-.429c-.853 0-1.376-.517-1.376-1.296 0-.592.391-1.302 1.376-1.302.984 0 1.37.71 1.37 1.302 0 .779-.517 1.296-1.37 1.296zM497.673 316.377h.504v-2.273c.293-.311.753-.654 1.308-.654.354 0 .915.106.903.879v2.048h.504v-2.148c0-1.115-.94-1.209-1.345-1.209-.579 0-1.028.275-1.37.573v-.473h-.504v3.257z" transform="translate(-1250.75030922 -915.48440249) scale(3.46758)"/>
</svg>
