<?xml version="1.0" encoding="UTF-8" standalone="no"?>
<!-- Created with Inkscape (http://www.inkscape.org/) -->
<svg
   xmlns:svg="http://www.w3.org/2000/svg"
   xmlns="http://www.w3.org/2000/svg"
   version="1.0"
   width="500"
   height="204.78999"
   id="svg2"
   xml:space="preserve"><defs
     id="defs5"><clipPath
       id="clipPath25"><path
         d="M 0,595.276 L 841.89,595.276 L 841.89,0 L 0,0 L 0,595.276 z"
         id="path27" /></clipPath></defs><g
     transform="matrix(1.25,0,0,-1.25,-446.45626,555.75595)"
     id="g11"><g
       transform="matrix(3.0103481,0,0,3.0103481,-710.02597,-604.61465)"
       id="g2482"><path
         d="M 484.725,296.772 L 357.165,296.772 L 357.165,300.819 L 484.725,300.819 L 484.725,296.772 z"
         id="path15"
         style="fill:#009fda;fill-opacity:1;fill-rule:nonzero;stroke:none" /><g
         transform="translate(363.0034,310.6396)"
         id="g17"><path
           d="M 0,0 L 0,8.838 L 1.848,8.838 L 1.848,1.469 L 4.614,1.469 L 4.614,0 L 0,0 z"
           id="path19"
           style="fill:#104fa0;fill-opacity:1;fill-rule:nonzero;stroke:none" /></g><g
         id="g21"><g
           clip-path="url(#clipPath25)"
           id="g23"><g
             transform="translate(371.5103,314.4229)"
             id="g29"><path
               d="M 0,0 C 0,0.6 0.023,1.455 -0.797,1.455 C -1.592,1.455 -1.58,0.525 -1.58,0 L 0,0 z M -1.58,-0.967 C -1.58,-1.701 -1.555,-2.803 -0.797,-2.803 C -0.185,-2.803 -0.063,-2.217 -0.063,-1.701 L 1.688,-1.701 C 1.664,-2.375 1.443,-2.926 1.027,-3.305 C 0.623,-3.686 0.012,-3.904 -0.797,-3.904 C -3.023,-3.904 -3.318,-2.547 -3.318,-0.613 C -3.318,1.076 -3.072,2.521 -0.797,2.521 C 1.529,2.521 1.787,1.016 1.725,-0.967 L -1.58,-0.967 z"
               id="path31"
               style="fill:#104fa0;fill-opacity:1;fill-rule:nonzero;stroke:none" /></g><g
             transform="translate(375.8188,312.624)"
             id="g33"><path
               d="M 0,0 C -0.013,-0.283 0,-0.553 0.085,-0.748 C 0.183,-0.943 0.366,-1.041 0.709,-1.041 C 1.052,-1.041 1.346,-0.82 1.346,-0.404 C 1.346,0.904 -1.689,0.611 -1.689,2.582 C -1.689,3.916 -0.367,4.32 0.746,4.32 C 1.921,4.32 2.986,3.756 2.888,2.422 L 1.199,2.422 C 1.199,2.852 1.149,3.107 1.027,3.219 C 0.918,3.328 0.771,3.354 0.586,3.354 C 0.207,3.354 0,3.107 0,2.691 C 0,1.713 3.035,1.762 3.035,-0.221 C 3.035,-1.299 2.153,-2.105 0.722,-2.105 C -0.784,-2.105 -1.787,-1.727 -1.689,0 L 0,0 z"
               id="path35"
               style="fill:#104fa0;fill-opacity:1;fill-rule:nonzero;stroke:none" /></g><g
             transform="translate(382.7095,310.6396)"
             id="g37"><path
               d="M 0,0 L 0,8.838 L 1.848,8.838 L 1.848,1.469 L 4.613,1.469 L 4.613,0 L 0,0 z"
               id="path39"
               style="fill:#104fa0;fill-opacity:1;fill-rule:nonzero;stroke:none" /></g><path
             d="M 389.917,310.64 L 388.191,310.64 L 388.191,316.822 L 389.917,316.822 L 389.917,310.64 z M 389.917,318.118 L 388.191,318.118 L 388.191,319.477 L 389.917,319.477 L 389.917,318.118 z"
             id="path41"
             style="fill:#104fa0;fill-opacity:1;fill-rule:nonzero;stroke:none" /><g
             transform="translate(394.606,313.7861)"
             id="g43"><path
               d="M 0,0 C 0,1.236 0.012,2.092 -0.734,2.092 C -1.445,2.092 -1.433,1.236 -1.433,0 C -1.433,-1.555 -1.322,-2.203 -0.734,-2.203 C -0.11,-2.203 0,-1.555 0,0 M -3.158,5.691 L -1.433,5.691 L -1.433,2.447 L -1.408,2.447 C -1.053,2.975 -0.625,3.158 0,3.158 C 1.737,3.158 1.688,1.236 1.688,-0.014 C 1.688,-1.285 1.75,-3.268 -0.037,-3.268 C -0.698,-3.268 -1.176,-3.061 -1.494,-2.461 L -1.519,-2.461 L -1.519,-3.146 L -3.158,-3.146 L -3.158,5.691 z"
               id="path45"
               style="fill:#104fa0;fill-opacity:1;fill-rule:nonzero;stroke:none" /></g><g
             transform="translate(400.7368,314.4229)"
             id="g47"><path
               d="M 0,0 C 0,0.6 0.025,1.455 -0.795,1.455 C -1.591,1.455 -1.578,0.525 -1.578,0 L 0,0 z M 0.906,5.055 L -1.053,3.305 L -1.848,3.305 L -0.746,5.055 L 0.906,5.055 z M -1.578,-0.967 C -1.578,-1.701 -1.555,-2.803 -0.795,-2.803 C -0.184,-2.803 -0.061,-2.217 -0.061,-1.701 L 1.689,-1.701 C 1.665,-2.375 1.445,-2.926 1.028,-3.305 C 0.625,-3.686 0.013,-3.904 -0.795,-3.904 C -3.023,-3.904 -3.316,-2.547 -3.316,-0.613 C -3.316,1.076 -3.072,2.521 -0.795,2.521 C 1.53,2.521 1.787,1.016 1.727,-0.967 L -1.578,-0.967 z"
               id="path49"
               style="fill:#104fa0;fill-opacity:1;fill-rule:nonzero;stroke:none" /></g><g
             transform="translate(405.3267,316.8213)"
             id="g51"><path
               d="M 0,0 L 0,-0.795 L 0.025,-0.795 C 0.344,-0.086 0.931,0.123 1.629,0.123 L 1.629,-1.42 C 0.111,-1.322 0.086,-2.203 0.086,-2.816 L 0.086,-6.182 L -1.639,-6.182 L -1.639,0 L 0,0 z"
               id="path53"
               style="fill:#104fa0;fill-opacity:1;fill-rule:nonzero;stroke:none" /></g><g
             transform="translate(409.2681,312.5615)"
             id="g55"><path
               d="M 0,0 C 0,-0.441 0.074,-0.979 0.637,-0.979 C 1.652,-0.979 1.494,0.393 1.494,1.064 C 0.637,1.029 0,1.102 0,0 M 3.183,-0.771 C 3.183,-1.15 3.232,-1.541 3.268,-1.922 L 1.665,-1.922 L 1.592,-1.102 L 1.566,-1.102 C 1.199,-1.738 0.697,-2.043 -0.049,-2.043 C -1.248,-2.043 -1.688,-1.15 -1.688,-0.074 C -1.688,1.971 -0.109,2.057 1.494,2.031 L 1.494,2.51 C 1.494,3.035 1.42,3.416 0.797,3.416 C 0.196,3.416 0.147,2.963 0.147,2.473 L -1.541,2.473 C -1.541,3.219 -1.309,3.697 -0.904,3.979 C -0.514,4.271 0.049,4.383 0.711,4.383 C 2.901,4.383 3.183,3.439 3.183,2.313 L 3.183,-0.771 z"
               id="path57"
               style="fill:#104fa0;fill-opacity:1;fill-rule:nonzero;stroke:none" /></g><g
             transform="translate(416.9067,311.2646)"
             id="g59"><path
               d="M 0,0 L -0.025,0 C -0.367,-0.551 -0.833,-0.746 -1.482,-0.746 C -2.302,-0.746 -3.023,-0.258 -3.023,0.6 L -3.023,5.557 L -1.299,5.557 L -1.299,1.273 C -1.299,0.723 -1.199,0.318 -0.649,0.318 C -0.099,0.318 0,0.723 0,1.273 L 0,5.557 L 1.725,5.557 L 1.725,0.6 C 1.725,0.195 1.75,-0.221 1.786,-0.625 L 0,-0.625 L 0,0 z"
               id="path61"
               style="fill:#104fa0;fill-opacity:1;fill-rule:nonzero;stroke:none" /></g><g
             transform="translate(421.0923,310.6396)"
             id="g63"><path
               d="M 0,0 L -1.714,0 L 0.109,3.244 L -1.566,6.182 L 0.367,6.182 L 1.273,4.309 L 2.314,6.182 L 4.041,6.182 L 2.388,3.219 L 4.162,0 L 2.216,0 L 1.138,2.166 L 0,0 z"
               id="path65"
               style="fill:#104fa0;fill-opacity:1;fill-rule:nonzero;stroke:none" /></g><path
             d="M 428.975,313.321 L 425.977,313.321 L 425.977,314.569 L 428.975,314.569 L 428.975,313.321 z"
             id="path67"
             style="fill:#104fa0;fill-opacity:1;fill-rule:nonzero;stroke:none" /><g
             transform="translate(432.0957,315.6592)"
             id="g69"><path
               d="M 0,0 L 0.82,0 C 1.555,0 1.764,0.734 1.764,1.297 C 1.764,2.141 1.408,2.459 0.82,2.459 L 0,2.459 L 0,0 z M 0,-5.02 L -1.848,-5.02 L -1.848,3.818 L 1.566,3.818 C 2.828,3.818 3.635,3.01 3.635,1.504 C 3.635,0.379 3.195,-0.465 1.996,-0.662 L 1.996,-0.686 C 2.398,-0.736 3.6,-0.834 3.6,-2.424 C 3.6,-2.986 3.635,-4.652 3.807,-5.02 L 1.996,-5.02 C 1.75,-4.48 1.799,-3.881 1.799,-3.307 C 1.799,-2.252 1.898,-1.359 0.477,-1.359 L 0,-1.359 L 0,-5.02 z"
               id="path71"
               style="fill:#104fa0;fill-opacity:1;fill-rule:nonzero;stroke:none" /></g><g
             transform="translate(438.5098,312.5615)"
             id="g73"><path
               d="M 0,0 C 0,-0.441 0.074,-0.979 0.637,-0.979 C 1.652,-0.979 1.494,0.393 1.494,1.064 C 0.637,1.029 0,1.102 0,0 M 3.182,-0.771 C 3.182,-1.15 3.232,-1.541 3.268,-1.922 L 1.664,-1.922 L 1.592,-1.102 L 1.566,-1.102 C 1.199,-1.738 0.697,-2.043 -0.049,-2.043 C -1.248,-2.043 -1.689,-1.15 -1.689,-0.074 C -1.689,1.971 -0.109,2.057 1.494,2.031 L 1.494,2.51 C 1.494,3.035 1.42,3.416 0.795,3.416 C 0.195,3.416 0.146,2.963 0.146,2.473 L -1.543,2.473 C -1.543,3.219 -1.311,3.697 -0.906,3.979 C -0.514,4.271 0.049,4.383 0.711,4.383 C 2.9,4.383 3.182,3.439 3.182,2.313 L 3.182,-0.771 z"
               id="path75"
               style="fill:#104fa0;fill-opacity:1;fill-rule:nonzero;stroke:none" /></g><g
             transform="translate(446.123,313.7861)"
             id="g77"><path
               d="M 0,0 C 0,1.236 0.012,2.092 -0.697,2.092 C -1.445,2.092 -1.432,1.236 -1.432,0 C -1.432,-1.555 -1.322,-2.203 -0.697,-2.203 C -0.109,-2.203 0,-1.555 0,0 M 0.086,-3.146 L 0.086,-2.461 L 0.061,-2.461 C -0.258,-3.061 -0.734,-3.268 -1.395,-3.268 C -3.182,-3.268 -3.121,-1.285 -3.121,-0.014 C -3.121,1.236 -3.17,3.158 -1.432,3.158 C -0.809,3.158 -0.379,2.975 -0.025,2.447 L 0,2.447 L 0,5.691 L 1.727,5.691 L 1.727,-3.146 L 0.086,-3.146 z"
               id="path79"
               style="fill:#104fa0;fill-opacity:1;fill-rule:nonzero;stroke:none" /></g><path
             d="M 451.117,310.64 L 449.39,310.64 L 449.39,316.822 L 451.117,316.822 L 451.117,310.64 z M 451.117,318.118 L 449.39,318.118 L 449.39,319.477 L 451.117,319.477 L 451.117,318.118 z"
             id="path81"
             style="fill:#104fa0;fill-opacity:1;fill-rule:nonzero;stroke:none" /><g
             transform="translate(455.793,314.6182)"
             id="g83"><path
               d="M 0,0 C 0,0.918 -0.232,1.225 -0.771,1.225 C -1.506,1.225 -1.566,0.576 -1.566,-0.711 C -1.566,-2.596 -1.408,-2.998 -0.771,-2.998 C -0.232,-2.998 0.023,-2.51 0.023,-1.701 L 1.75,-1.701 C 1.75,-3.379 0.844,-4.1 -0.771,-4.1 C -3,-4.1 -3.293,-2.742 -3.293,-0.809 C -3.293,0.881 -3.049,2.326 -0.771,2.326 C 0.82,2.326 1.725,1.615 1.725,0 L 0,0 z"
               id="path85"
               style="fill:#104fa0;fill-opacity:1;fill-rule:nonzero;stroke:none" /></g><g
             transform="translate(460.2715,312.5615)"
             id="g87"><path
               d="M 0,0 C 0,-0.441 0.074,-0.979 0.637,-0.979 C 1.652,-0.979 1.494,0.393 1.494,1.064 C 0.637,1.029 0,1.102 0,0 M 3.184,-0.771 C 3.184,-1.15 3.232,-1.541 3.268,-1.922 L 1.666,-1.922 L 1.592,-1.102 L 1.566,-1.102 C 1.201,-1.738 0.697,-2.043 -0.049,-2.043 C -1.248,-2.043 -1.688,-1.15 -1.688,-0.074 C -1.688,1.971 -0.109,2.057 1.494,2.031 L 1.494,2.51 C 1.494,3.035 1.42,3.416 0.797,3.416 C 0.197,3.416 0.148,2.963 0.148,2.473 L -1.541,2.473 C -1.541,3.219 -1.309,3.697 -0.904,3.979 C -0.514,4.271 0.049,4.383 0.711,4.383 C 2.902,4.383 3.184,3.439 3.184,2.313 L 3.184,-0.771 z"
               id="path89"
               style="fill:#104fa0;fill-opacity:1;fill-rule:nonzero;stroke:none" /></g><g
             transform="translate(467.9102,311.2646)"
             id="g91"><path
               d="M 0,0 L -0.025,0 C -0.367,-0.551 -0.832,-0.746 -1.48,-0.746 C -2.301,-0.746 -3.023,-0.258 -3.023,0.6 L -3.023,5.557 L -1.299,5.557 L -1.299,1.273 C -1.299,0.723 -1.199,0.318 -0.648,0.318 C -0.098,0.318 0,0.723 0,1.273 L 0,5.557 L 1.725,5.557 L 1.725,0.6 C 1.725,0.195 1.75,-0.221 1.787,-0.625 L 0,-0.625 L 0,0 z"
               id="path93"
               style="fill:#104fa0;fill-opacity:1;fill-rule:nonzero;stroke:none" /></g><g
             transform="translate(472.0957,310.6396)"
             id="g95"><path
               d="M 0,0 L -1.713,0 L 0.109,3.244 L -1.566,6.182 L 0.367,6.182 L 1.273,4.309 L 2.314,6.182 L 4.039,6.182 L 2.387,3.219 L 4.162,0 L 2.215,0 L 1.139,2.166 L 0,0 z"
               id="path97"
               style="fill:#104fa0;fill-opacity:1;fill-rule:nonzero;stroke:none" /></g><g
             transform="translate(369.7622,336.5771)"
             id="g99"><path
               d="M 0,0 C 3.513,0 3.541,2.811 3.541,3.738 C 3.541,7.7 1.012,7.7 0.028,7.7 C -0.843,7.7 -1.04,7.7 -1.04,7.055 C -1.096,4.92 -1.124,2.192 -1.068,0.086 C -0.759,0.029 -0.449,0 0,0 M -1.04,-5.283 C -1.04,-7.08 -0.646,-7.193 0.814,-7.193 C 1.742,-7.193 1.799,-7.249 1.799,-7.755 C 1.799,-8.57 1.77,-8.654 1.209,-8.654 C -0.253,-8.654 -1.686,-8.57 -3.147,-8.57 C -4.749,-8.57 -6.379,-8.654 -7.98,-8.654 C -8.515,-8.654 -8.543,-8.598 -8.543,-8.036 C -8.543,-7.39 -8.543,-7.333 -7.869,-7.222 C -6.885,-7.108 -6.267,-7.024 -6.182,-5.563 C -6.07,-3.596 -6.07,-1.095 -6.07,3.289 L -6.07,5.425 C -6.07,7.447 -6.322,7.757 -7.56,7.813 C -8.459,7.869 -8.515,7.869 -8.515,8.516 C -8.515,9.19 -8.515,9.303 -7.98,9.303 C -7.053,9.303 -5.704,9.275 -2.473,9.275 C 3.063,9.275 4.89,9.275 6.772,8.15 C 8.374,7.195 8.908,5.537 8.908,4.132 C 8.908,0.17 5.255,-1.686 1.545,-1.686 C 0.674,-1.686 -0.112,-1.629 -1.068,-1.572 L -1.04,-5.283 z"
               id="path101"
               style="fill:#104fa0;fill-opacity:1;fill-rule:nonzero;stroke:none" /></g><g
             transform="translate(388.1216,330.5088)"
             id="g103"><path
               d="M 0,0 C 0.057,-0.311 0.197,-0.449 2.136,-0.449 C 6.127,-0.449 6.463,0.309 6.969,1.938 C 7.195,2.641 7.391,3.316 7.615,3.316 C 7.841,3.316 8.121,3.231 8.543,3.063 C 8.824,2.95 8.992,2.781 8.965,2.529 C 8.965,2.078 8.6,0.365 8.15,-1.658 C 7.981,-2.474 7.841,-2.586 7.363,-2.586 C 6.857,-2.586 5.396,-2.445 1.377,-2.445 C -3.372,-2.445 -5.789,-2.586 -7.166,-2.586 C -7.615,-2.586 -7.643,-2.361 -7.643,-1.968 C -7.643,-1.603 -7.643,-1.181 -7.082,-1.181 C -5.283,-1.181 -5.17,-0.563 -5.17,3.766 C -5.17,6.379 -5.143,12 -5.255,12.869 C -5.395,13.881 -5.9,13.881 -6.941,13.91 C -7.475,13.91 -7.615,13.91 -7.615,14.584 C -7.615,15.119 -7.615,15.344 -7.082,15.344 C -6.407,15.344 -3.372,15.287 -2.754,15.287 C -1.994,15.287 1.293,15.344 1.967,15.344 C 2.558,15.344 2.586,15.314 2.586,14.752 C 2.586,14.219 2.502,14.022 1.854,13.938 C -0.027,13.713 -0.027,13.376 -0.056,8.458 C -0.056,7.193 -0.084,0.701 0,0"
               id="path105"
               style="fill:#104fa0;fill-opacity:1;fill-rule:nonzero;stroke:none" /></g><g
             transform="translate(408.4673,337.5342)"
             id="g107"><path
               d="M 0,0 C 1.265,0 3.204,0.027 3.204,3.315 C 3.204,6.716 0.703,6.716 -0.057,6.716 C -1.545,6.716 -1.573,6.49 -1.629,6.098 C -1.714,5.62 -1.714,1.039 -1.742,0.084 C -1.236,0.027 -0.898,0 0,0 M -6.631,4.468 C -6.66,6.828 -6.885,6.828 -8.543,6.912 C -8.852,6.912 -8.992,6.997 -8.992,7.559 C -8.965,8.233 -8.965,8.346 -8.459,8.346 C -7.868,8.346 -6.463,8.289 -4.834,8.289 C -2.585,8.289 -0.842,8.346 1.068,8.346 C 3.711,8.346 5.537,8.177 6.97,6.94 C 8.348,5.789 8.543,4.328 8.543,3.4 C 8.543,1.377 7.335,-0.45 4.412,-1.012 C 5.957,-3.878 8.318,-7.756 10.146,-8.206 C 10.707,-8.347 11.578,-8.318 11.578,-8.543 C 11.578,-8.993 11.578,-9.499 11.354,-9.641 C 11.017,-9.865 9.724,-10.09 8.516,-10.09 C 3.906,-10.09 2.221,-7.447 -0.365,-1.658 C -0.786,-1.715 -0.982,-1.715 -1.742,-1.658 C -1.742,-6.492 -1.742,-7.025 -1.518,-7.561 C -1.32,-8.094 -0.898,-8.121 0.141,-8.15 C 0.787,-8.179 0.9,-8.179 0.9,-8.797 C 0.9,-9.443 0.9,-9.611 0.395,-9.611 C -1.208,-9.611 -2.81,-9.527 -4.412,-9.527 C -5.846,-9.527 -7.25,-9.611 -8.684,-9.611 C -8.936,-9.611 -9.104,-9.555 -9.104,-8.993 C -9.104,-8.402 -9.104,-8.263 -8.459,-8.234 C -6.631,-8.094 -6.631,-7.504 -6.631,-0.365 L -6.631,4.468 z"
               id="path109"
               style="fill:#104fa0;fill-opacity:1;fill-rule:nonzero;stroke:none" /></g></g></g></g></g></svg>