<svg id="Ebene_1" data-name="Ebene 1" xmlns="http://www.w3.org/2000/svg" viewBox="0 0 202.92 128.77">
  <defs>
    <style>
      .cls-1 {
        fill: #ffec00;
      }

      .cls-1, .cls-5 {
        isolation: isolate;
      }

      .cls-2 {
        fill: #95c11f;
      }

      .cls-3 {
        fill: #009453;
      }

      .cls-4 {
        fill: #e63329;
      }

      .cls-5, .cls-6 {
        fill: #fff;
      }

      .cls-7 {
        fill: #1d1d1b;
      }
    </style>
  </defs>
  <g>
    <path class="cls-1" d="M68.72,30.1h-.34a6.37,6.37,0,0,0-1.59,3.81l-1.06,0A7.77,7.77,0,0,1,67,30.15a29,29,0,0,0-27.27,28.9c0,.86,0,1.71.12,2.55,3.33-.28,5.78-.51,5.78-.51,14.32-1.69,41.75-2.45,52-2.69A29,29,0,0,0,68.72,30.1Zm7.44,9-1,1.13,1.45.72L73,40.76Zm-6.32.49a.94.94,0,1,1-.93.93A.93.93,0,0,1,69.84,39.6Zm-1.86,9a2.45,2.45,0,0,0,2,.4,2.24,2.24,0,0,0,1.18-1.2l1,.38A3.32,3.32,0,0,1,70.36,50a3.41,3.41,0,0,1-2.92-.49ZM62.18,44a.93.93,0,1,1-.93.93A.93.93,0,0,1,62.18,44Zm-11.5,0-1-.2a7.62,7.62,0,0,1,3.15-5.13,10,10,0,0,1,6.84-1.23l-.2,1a9,9,0,0,0-6,1.08A6.54,6.54,0,0,0,50.68,44Zm5.88,5,3.37-1.65-1.85,3.17.26-1.71ZM79,47.2h-.08c-2.16,9.21-9.53,9.34-9.53,9.34a9.41,9.41,0,0,1-6.85-2,1.79,1.79,0,0,1-.26.2c-.9.6-2.16.49-3.75-.33L59,53.5c.84.43,2,.85,2.68.39s.81-1.9.78-2.39l1.05-.09a5.25,5.25,0,0,1-.4,2.33c5.57,2.34,8.58.75,8.58.75,4.61-1.34,5.82-6.34,6-7.48a4.21,4.21,0,0,1-1.53-1.14l.78-.71a2.36,2.36,0,0,0,1.9,1,3.06,3.06,0,0,0,1.87-1.43l.91.53A4,4,0,0,1,79,47.2Z"/>
    <path d="M69.6,29.06a9.72,9.72,0,0,1,5.63-1.36V26.64c-3.65-.05-5.9,1.06-7.29,2.42a30,30,0,0,0-29.24,30c0,.89,0,1.77.13,2.64l.52,0,.53,0c-.07-.84-.12-1.69-.12-2.55A29,29,0,0,1,67,30.15a7.77,7.77,0,0,0-1.31,3.74l1.06,0a6.37,6.37,0,0,1,1.59-3.81h.34A29,29,0,0,1,97.65,58.4h1.06A30,30,0,0,0,69.6,29.06Z"/>
    <path d="M59.43,38.51l.2-1a10,10,0,0,0-6.84,1.23,7.62,7.62,0,0,0-3.15,5.13l1,.2a6.54,6.54,0,0,1,2.7-4.44A9,9,0,0,1,59.43,38.51Z"/>
    <path d="M70.36,50a3.32,3.32,0,0,0,1.81-1.81l-1-.38A2.24,2.24,0,0,1,70,49a2.45,2.45,0,0,1-2-.4l-.54.9A3.41,3.41,0,0,0,70.36,50Z"/>
    <path d="M78.85,46.15a2.36,2.36,0,0,1-1.9-1l-.78.71A4.21,4.21,0,0,0,77.7,47c-.21,1.14-1.42,6.14-6,7.48,0,0-3,1.59-8.58-.75a5.25,5.25,0,0,0,.4-2.33l-1.05.09c0,.49,0,1.89-.78,2.39s-1.84,0-2.68-.39l-.48.93c1.59.82,2.85.93,3.75.33a1.79,1.79,0,0,0,.26-.2,9.41,9.41,0,0,0,6.85,2s7.37-.13,9.53-9.34H79a4,4,0,0,0,2.66-2l-.91-.53A3.06,3.06,0,0,1,78.85,46.15Z"/>
    <polygon points="75.17 40.24 76.16 39.11 72.99 40.77 76.62 40.96 75.17 40.24"/>
    <polygon points="59.93 47.36 56.56 49.02 58.34 48.81 58.08 50.53 59.93 47.36"/>
    <path d="M62.18,45.87a.93.93,0,1,0-.93-.93A.94.94,0,0,0,62.18,45.87Z"/>
    <path d="M69.84,41.47a.94.94,0,1,0-.93-.94A.93.93,0,0,0,69.84,41.47Z"/>
    <g>
      <path class="cls-2" d="M18,77.66c7-.13,31.29-1.32,31.29-1.32,25.35-1.19,61.92.53,61.92.53,14.53,0,48.85,3.7,48.85,3.7,10.43,1.58,22.31,2.5,22.31,2.5a50.5,50.5,0,0,1,9.54,1c.87-2.54,2.36-7.81,1.69-12.33,0,0,.26-4.62-10.83-6.73,0,0-41.19-7.93-81.19-6.74,0,0-38.16.67-56,2.78,0,0-13.07,1.18-19.81,1.58,0,0-12.67.92-15.58,5.55,0,0-2.17,1.84.52,9.56A27.35,27.35,0,0,1,18,77.66Z"/>
      <path class="cls-3" d="M197.07,85.32A48.9,48.9,0,0,0,192,84.05a50.5,50.5,0,0,0-9.54-1s-11.88-.92-22.31-2.5c0,0-34.32-3.7-48.85-3.7,0,0-36.57-1.72-61.92-.53,0,0-24.29,1.19-31.29,1.32a27.35,27.35,0,0,0-7.27.06c-2.78.44-5.72,1.47-7.52,3.77,0,0-4.75,5.81-2.77,12.15,0,0,2.64,7.79,7.13,12.54a17.11,17.11,0,0,0,17.56,5.68s2.64-1.72,22.31-.53c0,0,51.63.79,67.73,0,0,0,31.56-1.32,62.06.53,0,0,15.71,2.37,20.85-4.89a15.25,15.25,0,0,0,4.76-11.22S203.8,88.09,197.07,85.32Z"/>
    </g>
    <g>
      <rect x="91.75" y="30.37" width="20.96" height="0.59" transform="translate(-2.67 50.36) rotate(-27.33)"/>
      <polygon points="91.31 33.92 91.64 34.41 104.7 25.7 104.38 25.2 91.31 33.92"/>
      <rect x="76.12" y="20.07" width="23.05" height="0.59" transform="translate(11.05 67.59) rotate(-44.74)"/>
      <rect x="74.61" y="18.89" width="19.08" height="0.59" transform="translate(22.1 79.18) rotate(-56.88)"/>
      <rect x="98.35" y="44.56" width="22.4" height="0.59" transform="translate(-8.81 42.92) rotate(-21.33)"/>
      <rect x="101.09" y="46.6" width="26.56" height="0.59" transform="translate(-8.61 34.41) rotate(-16.5)"/>
      <polygon points="43.99 22.74 52.18 32.24 52.63 31.86 44.44 22.36 43.99 22.74"/>
      <rect x="43.52" y="21.48" width="0.59" height="13.36" transform="translate(-6.66 41.01) rotate(-47)"/>
      <polygon points="26.89 32.69 39.56 41.14 39.89 40.65 27.22 32.2 26.89 32.69"/>
      <rect x="29.2" y="28.32" width="0.59" height="21.2" transform="translate(-17.62 51.74) rotate(-68.07)"/>
      <rect x="27.35" y="36.07" width="0.59" height="22.33" transform="translate(-25.79 59.03) rotate(-72.1)"/>
      <rect x="22.67" y="38.7" width="0.59" height="24.72" transform="translate(-30.44 67.87) rotate(-83.25)"/>
      <rect x="58.97" y="6.81" width="0.59" height="21.58" transform="translate(-2.52 19.76) rotate(-18.54)"/>
      <rect x="63.13" y="10.68" width="0.59" height="15.82" transform="translate(-2.28 11.4) rotate(-10.09)"/>
    </g>
    <path d="M38.94,31.06,38,32.78a12.17,12.17,0,0,0-2.11-3.3s-9-8.85-18.55-16.63c0,0-.72-1.52.47-.53,0,0,11.09,8.71,19.2,16A19.08,19.08,0,0,1,38.94,31.06Z"/>
    <path class="cls-4" d="M19.73,12.71s10.23,6,13.93,10c0,0,3.76-.07,7.32-5.41,0,0,2.05,3,4.16,1.58a4.27,4.27,0,0,0,1.32-1.65s2.71-2.84,6-3.1c0,0-2.11.33-4.43-2.18C48,12,38.61,2,35.44.7a2.85,2.85,0,0,0-2-.39S29.3.64,25.67,6.05C25.67,6.05,22.63,11,19.73,12.71Z"/>
    <path d="M33.35,0c-.15,0-4.24.4-7.9,5.86,0,.06-3,4.93-5.85,6.59l-.39.22.39.23c.1.06,10.24,6,13.86,10l.08.09h.12c.16,0,3.8-.16,7.33-5.25.86,1.09,2.6,2.49,4.3,1.38a4.64,4.64,0,0,0,1.4-1.74s2.64-2.72,5.8-3h0l-.06-.53h0s-2,.26-4.19-2.1c-.39-.41-9.45-10-12.67-11.33A3,3,0,0,0,33.35,0ZM25.9,6.19C29.4,1,33.37.57,33.41.57a2.62,2.62,0,0,1,1.87.34l0,0,0,0c3.08,1.22,12.42,11.12,12.51,11.22a7.07,7.07,0,0,0,3,2.05,12.08,12.08,0,0,0-4.62,2.87A4.51,4.51,0,0,1,45,18.68c-1.9,1.24-3.74-1.38-3.82-1.5L41,16.86l-.22.33c-3.17,4.76-6.48,5.23-7,5.28C30.35,18.83,22,13.76,20.21,12.69,23,10.81,25.77,6.38,25.9,6.19Z"/>
    <path class="cls-5" d="M40.65,17.07l-8-1.58-2,1.58-2.71-2.84,4-2.44a16.81,16.81,0,0,0-3-3.37,15.93,15.93,0,0,1,3.1-2.64l2.91,3,3.3-2.77a16.55,16.55,0,0,1,2.51,3l-2.71,3.56S39.93,16.08,40.65,17.07Z"/>
    <path d="M31.8,5.67a16.18,16.18,0,0,0-3.13,2.67l-.09.1.12.09a16.34,16.34,0,0,1,2.92,3.22l-4,2.46,2.9,3,2.09-1.62L41,17.26l-.2-.27c-.67-.91-2.49-3.94-2.72-4.33l2.7-3.56,0-.07A15.94,15.94,0,0,0,38.17,6l-.09-.08L34.79,8.64l-2.89-3Zm.06.29,2.91,3,3.3-2.77a16,16,0,0,1,2.36,2.85l-2.71,3.56.05.08c.07.13,1.77,3,2.59,4.16l-7.79-1.54-2,1.55-2.51-2.63L32,11.83l-.07-.11a17.15,17.15,0,0,0-3-3.31A15.29,15.29,0,0,1,31.86,6Z"/>
    <g>
      <path class="cls-6" d="M141.64,64.35c.73.08,1.24.15,1.84.24,1.12.16,2.72.53,2.72.5a13.52,13.52,0,0,1,1.7.67l0,0a12.25,12.25,0,0,1,1.24.53c.05.11,1.73,1,1.84,1.15a10.93,10.93,0,0,1,2.05,1.77,6.2,6.2,0,0,1,1.34,1.63,5.27,5.27,0,0,1,1,1.65s.44,1,.53,1.24c.24.68.47,1.37.57,1.58a12.58,12.58,0,0,1,.53,3c0,.71-.06,2.27-.06,2.27H144.75s-.05-.84-.2-1.86a3.33,3.33,0,0,0-.4-1.44c-.19-.34-.33-.59-.5-.91-.13,0-.4-.67-.63-.81a11.82,11.82,0,0,0-1.38-1,5.57,5.57,0,0,0-2.42-.56,7.45,7.45,0,0,0-3.78.86,8,8,0,0,0-2.68,1.94c-.16.13-1.6,2.12-1.68,2.25a9.3,9.3,0,0,0-.57,1.14,18.64,18.64,0,0,0-.86,2.18,16,16,0,0,0-.74,2.35c-.17.57-.46,2.22-.46,2.22a20.87,20.87,0,0,0,0,4.47,5.6,5.6,0,0,0,.29,1.07,6.83,6.83,0,0,0,.61,1.3,9.83,9.83,0,0,0,1.4,1.41l1.34.77a7,7,0,0,0,1.34.41,7.45,7.45,0,0,0,3.49-.24c.78-.24,1.08-.41,1.67-.6.2-.14,1-.64,1.18-.84s.71-.47.9-.84h.06A15.27,15.27,0,0,0,142,92a14.8,14.8,0,0,0,.83-1.48,1.64,1.64,0,0,0,.24-.78l12.8.07s-.34,1.51-.41,1.75a13.57,13.57,0,0,1-.74,1.94,7.37,7.37,0,0,1-.86,1.61c-.31.58-.66,1.13-1,1.64s-.61.9-.91,1.34a14,14,0,0,1-1.1,1.39,18.14,18.14,0,0,1-2.73,2.52,13.63,13.63,0,0,1-2.22,1.41,6.93,6.93,0,0,0-.75.43,13,13,0,0,1-1.27.5c-.75.37-2.21.8-2.91,1.08a4.18,4.18,0,0,1-.84.16c-.72.15-1.12.2-1.94.31a15.31,15.31,0,0,1-1.55.17,32.61,32.61,0,0,1-3.45,0c-.22,0-1.25-.08-2.51-.27-.11,0-1.2-.23-2.37-.5-.13-.06-1.26-.45-1.67-.64a9.36,9.36,0,0,1-1.42-.53l-1-.64a23.25,23.25,0,0,1-2.37-1.54,19.8,19.8,0,0,1-2.92-3.15,8,8,0,0,1-1.2-2.14,26.81,26.81,0,0,1-1-2.72,13.88,13.88,0,0,1-.4-1.9,25.15,25.15,0,0,1,0-6.07,7.87,7.87,0,0,1,.26-1.32,7.22,7.22,0,0,1,.27-1.29c.13-.46.31-1.54.46-2s.32-1.29.69-2.2c0-.24.31-.65.3-.8.14-.31.36-.93.36-.93a12.55,12.55,0,0,0,.68-1.29c.15-.22,1.09-1.74,1.17-1.87s.4-.62.64-1,.62-.89,1-1.25a17.4,17.4,0,0,1,2.25-2.2c.39-.32.74-.57,1.1-.84a7.88,7.88,0,0,1,2-1.33,21,21,0,0,1,2.68-1.39c.92-.39,1.92-.67,1.95-.72a8,8,0,0,1,1.57-.41c.46-.2,2-.33,2.12-.47,1-.15,1.42-.16,2.13-.24h0v-.06h0v.06A23.49,23.49,0,0,1,141.64,64.35Z"/>
      <path class="cls-6" d="M50.71,65.16s-5.57,25.72-5.52,26.25A3.51,3.51,0,0,0,45.32,93a2.39,2.39,0,0,0,.31.76,3.93,3.93,0,0,0,2.14,1.71c0,.11.09.07.16.13a7.09,7.09,0,0,0,3.43.41,6.82,6.82,0,0,0,4.37-2,8.91,8.91,0,0,0,1.89-3.18,25.32,25.32,0,0,0,.7-2.65c0-.31,5.12-23,5.12-23H76s-6.07,28.37-7,30.31a13.38,13.38,0,0,1-.63,1.74A12.7,12.7,0,0,1,65,101.79c-.38.33-.93.67-1.35,1-.2,0-.2.22-.4.21-.43.29-1,.51-1.51.79-.21,0-.35.21-.56.24a8.12,8.12,0,0,1-1.55.54,12,12,0,0,1-1.2.39,34.31,34.31,0,0,1-9.68.78,37.62,37.62,0,0,1-6.36-.78,11.44,11.44,0,0,1-1.37-.36c0-.11-.21-.07-.31-.14-.63-.18-1.2-.54-1.84-.73a4.52,4.52,0,0,1-.74-.44.59.59,0,0,1-.39-.2,10.82,10.82,0,0,1-3.92-4.42,9.16,9.16,0,0,1-.94-2.75c0-.46-.16-.82-.16-1.27,0-.26-.16-.62,0-.91l-.05-1.13h.05a4.67,4.67,0,0,0,0-.83h0a4.45,4.45,0,0,1,.13-1c0-.49,5.29-25.62,5.29-25.62Z"/>
      <path class="cls-6" d="M114.88,80c0-.61-.12-1.09-.17-1.77a14.15,14.15,0,0,0-.29-1.57c0-.56-.31-1-.41-1.58a9.06,9.06,0,0,0-.47-1.34c-.27-.66-1-1.86-1.18-2.27a4.78,4.78,0,0,0-.73-1.08A10.15,10.15,0,0,0,110.45,69c-.67-.54-2-1.47-2-1.47a13.25,13.25,0,0,0-2.18-1,16.12,16.12,0,0,0-2.88-.91c-1-.07-1.91-.23-2.89-.3C94.33,65,81,65.14,81,65.14L72.25,105l15.57,0a15.85,15.85,0,0,1,2.49,0s4.21-.37,6.12-.68l2.44-.5c.44-.2.94-.25,1.37-.46a17.16,17.16,0,0,0,2.29-.88,16.92,16.92,0,0,0,3.85-2.34,32.69,32.69,0,0,0,3.18-2.87c.59-.66,1-1.29,1.61-2a14.61,14.61,0,0,0,1.4-2.58A6.38,6.38,0,0,0,113.2,91a25.06,25.06,0,0,0,.8-2.52,7.38,7.38,0,0,0,.37-1.63,17.38,17.38,0,0,0,.48-3A27,27,0,0,0,114.88,80Zm-12.39,3.67a10.6,10.6,0,0,1-.28,1.83,23.73,23.73,0,0,1-1,2.9,9.91,9.91,0,0,1-4,4.69,5.94,5.94,0,0,1-1.13.49,3.54,3.54,0,0,1-1,.37,10.33,10.33,0,0,1-1.42.26c-.92.11-1.33.11-2.41.17-1.42.06-4.48,0-4.48,0L91,75.11a44.84,44.84,0,0,1,6.68.17,17.33,17.33,0,0,1,2,.72,6.05,6.05,0,0,1,1.58,1.25c.11.29.63,1.18.74,1.41l0,0a5.71,5.71,0,0,1,.54,1.94A15.89,15.89,0,0,1,102.49,83.71Z"/>
    </g>
    <g>
      <path class="cls-4" d="M130.85,14.9v9.49c0,1.11-.14,2.8,1.46,2.55,1.45-.22,1.45-1.29,1.47-2.38V14.45l2.94-.46V24.68c0,1.56-.18,4.23-4.43,4.89-2.75.43-4.39-.58-4.39-3.32V15.36Z"/>
      <path class="cls-4" d="M144,12.85,147.62,27l-3.15.49-.55-2.39-3,.47-.53,2.55-2.93.45,3.46-15.19ZM142.73,19l-.33-2.16h-.05L142,19.15l-.63,4,2.07-.32Z"/>
      <path class="cls-4" d="M151.64,11.67V23.61l3.08-.48v2.72l-6,.94V12.13Z"/>
      <path class="cls-4" d="M158.83,10.56V25.22l-3,.45V11Z"/>
      <path class="cls-4" d="M167.58,9.2v2.72l-2.33.36V24.22l-2.95.46V12.74L160,13.1V10.38Z"/>
      <path class="cls-4" d="M174.76,5.05l-2.55,3.08-1.37-.56,1.9-3.1Z"/>
      <path class="cls-4" d="M127.17,30.7l-2.47-2.49a13.15,13.15,0,0,0,1.58-6.82c0-3.36-.79-5.81-2.29-7.09a4.29,4.29,0,0,0-3.58-.93c-2.87.46-5.93,3.31-5.93,10,0,3.37.79,5.82,2.29,7.1a4.3,4.3,0,0,0,3.58.92,5.72,5.72,0,0,0,2.54-1.09l2.35,2.37Zm-8.07-2.57c-1.19-1-1.37-3.81-1.37-5.39,0-2.28.34-6.15,2.62-6.51a1.59,1.59,0,0,1,1.33.36C122.79,17.54,123,20,123,22s-.25,6.14-2.61,6.52A1.58,1.58,0,0,1,119.1,28.13Z"/>
      <path class="cls-4" d="M174.61,8.25V11l-3,.46v3.19l2.64-.41v2.72l-2.64.41v3.31l3-.47V22.9l-6,.93V9.17Z"/>
      <path class="cls-4" d="M134.27,32.79A5.47,5.47,0,0,0,127.1,38c0,2.57,1.51,3.73,2.88,4.75,1.16.87,2.16,1.62,2.14,3.06a2.35,2.35,0,0,1-1.94,2.46,3.31,3.31,0,0,1-2.22-.48l-.42-.22,0,2.95.14.08a4.27,4.27,0,0,0,2.87.44,5.56,5.56,0,0,0,4.63-5.47c0-2.52-1.07-3.6-2.64-4.86l-1.82-1.59a2,2,0,0,1-.56-1.54,2.33,2.33,0,0,1,2-2.28,2.8,2.8,0,0,1,1.89.37l.41.22.08-3Z"/>
      <path class="cls-4" d="M139.4,34.78v9.51c0,1.12-.14,2.81,1.42,2.57,1.41-.23,1.41-1.3,1.43-2.39V34.33l2.87-.46V44.6c0,1.56-.18,4.24-4.32,4.89-2.67.43-4.27-.59-4.27-3.34V35.23Z"/>
      <path class="cls-4" d="M150,33.11v14.7l-2.87.45V33.56Z"/>
      <path class="cls-4" d="M158,35.15a2.8,2.8,0,0,0-2.08-.6,1.61,1.61,0,0,0-1.44,1.67c0,2.42,4.37,1.86,4.37,5.84a5,5,0,0,1-4.18,5.24,3.93,3.93,0,0,1-2.46-.35V44.18a3.26,3.26,0,0,0,2.17.44A1.9,1.9,0,0,0,156,42.76c0-1.13-.89-1.42-1.7-1.88-1.65-.87-2.67-1.8-2.67-3.94A4.71,4.71,0,0,1,155.42,32a4.35,4.35,0,0,1,2.54.32Z"/>
      <path class="cls-4" d="M166.44,33.81a2.86,2.86,0,0,0-2.08-.61,1.62,1.62,0,0,0-1.45,1.68c0,2.41,4.37,1.86,4.37,5.84A5,5,0,0,1,163.11,46a4,4,0,0,1-2.47-.35V42.84a3.3,3.3,0,0,0,2.18.44,1.9,1.9,0,0,0,1.65-1.86c0-1.14-.88-1.42-1.69-1.88-1.66-.87-2.68-1.8-2.68-3.95a4.69,4.69,0,0,1,3.8-4.92,4.44,4.44,0,0,1,2.54.31Z"/>
      <path class="cls-4" d="M174.72,29.18v2.73l-2.91.46v3.2l2.56-.4V37.9l-2.56.4v3.32l2.95-.47v2.73l-5.82.92V30.1Z"/>
    </g>
    <g>
      <path class="cls-7" d="M35.24,118.58h2.54c.87,0,3.1,0,3.1,2.87a2.69,2.69,0,0,1-2.89,2.9H36.47v4.23H35.24Zm1.23,4.76h1.47c.89,0,1.65-.61,1.65-1.94a1.59,1.59,0,0,0-1.74-1.81H36.47Z"/>
      <path class="cls-7" d="M45.28,120.88c2.17,0,2.7,1.83,2.7,4s-.55,3.94-2.7,3.94-2.71-1.83-2.71-3.94S43.12,120.88,45.28,120.88Zm1.47,4c0-1.63-.24-3-1.5-3s-1.44,1.4-1.44,3,.23,3,1.44,3S46.75,126.45,46.75,124.83Z"/>
      <path class="cls-7" d="M55.36,128.58H54.24v-.88h0a2,2,0,0,1-1.82,1.07c-2,0-2-1.49-2-2.37v-5.32h1.18v5.18c0,.57,0,1.51,1.11,1.51a1.44,1.44,0,0,0,1.48-1.51v-5.18h1.18Z"/>
      <path class="cls-7" d="M58.16,121.08h1.17v1.11h0c.34-.71.78-1.31,1.62-1.31a1.31,1.31,0,0,1,.52.08v1.15a3.38,3.38,0,0,0-.63-.06,1.67,1.67,0,0,0-1.54,1.78v4.75H58.16Z"/>
      <path class="cls-7" d="M73.12,128.58H72v-.88h0a2,2,0,0,1-1.82,1.07c-2,0-2-1.49-2-2.37v-5.32h1.18v5.18c0,.57,0,1.51,1.1,1.51A1.45,1.45,0,0,0,72,126.26v-5.18h1.17Z"/>
      <path class="cls-7" d="M75.92,121.08H77V122h0a2,2,0,0,1,1.82-1.08c2,0,2,1.5,2,2.38v5.32H79.69V123.4c0-.57,0-1.51-1.11-1.51a1.44,1.44,0,0,0-1.48,1.51v5.18H75.92Z"/>
      <path class="cls-7" d="M84.64,125c0,1.14,0,2.88,1.45,2.88,1.11,0,1.27-1.17,1.27-1.74h1.17A2.53,2.53,0,0,1,86,128.77c-1.84,0-2.61-1.27-2.61-3.84,0-1.88.37-4.05,2.68-4.05s2.5,2,2.5,3.61V125Zm2.72-.93v-.4c0-.84-.27-1.84-1.3-1.84-1.24,0-1.37,1.52-1.37,2V124Z"/>
      <path class="cls-7" d="M100,121.17c0-1-.38-1.77-1.55-1.77A1.47,1.47,0,0,0,96.84,121c0,2.81,4.72,1.13,4.72,4.79a2.8,2.8,0,0,1-3.11,3c-2.34,0-3-1.2-3-3.33h1.24c0,1.12.07,2.33,1.87,2.33a1.69,1.69,0,0,0,1.74-1.77c0-2.82-4.72-1.19-4.72-4.85a2.61,2.61,0,0,1,2.93-2.76c1.9,0,2.77,1,2.8,2.78Z"/>
      <path class="cls-7" d="M109,128.58h-1.12v-.88h0a2,2,0,0,1-1.82,1.07c-2,0-2-1.49-2-2.37v-5.32h1.18v5.18c0,.57,0,1.51,1.1,1.51a1.45,1.45,0,0,0,1.49-1.51v-5.18H109Z"/>
      <path class="cls-7" d="M111.83,118.58H113v1.35h-1.18Zm0,2.5H113v7.5h-1.18Z"/>
      <path class="cls-7" d="M119.1,123.27c0-1-.25-1.47-1.11-1.47a1.08,1.08,0,0,0-1.22,1.15c0,.88.93,1,1.85,1.36s1.83.63,1.83,2.11a2.19,2.19,0,0,1-2.42,2.35,2.3,2.3,0,0,1-2.57-2.66h1.17c0,.91.26,1.74,1.4,1.74a1.18,1.18,0,0,0,1.25-1.24c0-1-.92-1.22-1.83-1.53s-1.85-.57-1.85-2.13c0-1.4,1.09-2.07,2.39-2.07,2.19,0,2.27,1.51,2.28,2.39Z"/>
      <path class="cls-7" d="M126.06,123.27c0-1-.26-1.47-1.11-1.47a1.08,1.08,0,0,0-1.22,1.15c0,.88.93,1,1.85,1.36s1.83.63,1.83,2.11a2.19,2.19,0,0,1-2.42,2.35,2.31,2.31,0,0,1-2.58-2.66h1.18c0,.91.25,1.74,1.4,1.74a1.18,1.18,0,0,0,1.25-1.24c0-1-.93-1.22-1.84-1.53s-1.84-.57-1.84-2.13c0-1.4,1.09-2.07,2.39-2.07,2.18,0,2.27,1.51,2.28,2.39Z"/>
      <path class="cls-7" d="M130.77,125c0,1.14,0,2.88,1.45,2.88,1.11,0,1.27-1.17,1.27-1.74h1.17a2.53,2.53,0,0,1-2.51,2.66c-1.84,0-2.61-1.27-2.61-3.84,0-1.88.37-4.05,2.68-4.05s2.5,2,2.5,3.61V125Zm2.72-.93v-.4c0-.84-.27-1.84-1.3-1.84-1.24,0-1.37,1.52-1.37,2V124Z"/>
      <path class="cls-7" d="M142.24,122h-1.09v-.92h1.09v-.89c0-1.13.49-1.72,1.62-1.72h.86v1h-.55c-.5,0-.76.2-.76.71v.89h1.29V122h-1.29v6.58h-1.17Z"/>
      <path class="cls-7" d="M149.11,120.88c2.17,0,2.7,1.83,2.7,4s-.54,3.94-2.7,3.94-2.7-1.83-2.7-3.94S147,120.88,149.11,120.88Zm1.47,4c0-1.63-.24-3-1.5-3s-1.44,1.4-1.44,3,.24,3,1.44,3S150.58,126.45,150.58,124.83Z"/>
      <path class="cls-7" d="M154.25,121.08h1.18v1.11h0c.34-.71.79-1.31,1.63-1.31a1.34,1.34,0,0,1,.52.08v1.15a3.63,3.63,0,0,0-.63-.06,1.67,1.67,0,0,0-1.54,1.78v4.75h-1.18Z"/>
      <path class="cls-7" d="M160,118.89h1.18v2.19h1.3V122h-1.3v4.82c0,.6.15.84.77.84a2.82,2.82,0,0,0,.52,0v1a4.93,4.93,0,0,1-.95.08c-1.22,0-1.52-.5-1.52-1.48V122h-1.09v-.92H160Z"/>
      <path class="cls-7" d="M165.52,125c0,1.14,0,2.88,1.44,2.88,1.12,0,1.28-1.17,1.28-1.74h1.17a2.53,2.53,0,0,1-2.52,2.66c-1.83,0-2.6-1.27-2.6-3.84,0-1.88.36-4.05,2.67-4.05s2.51,2,2.51,3.61V125Zm2.72-.93v-.4c0-.84-.27-1.84-1.31-1.84-1.23,0-1.37,1.52-1.37,2V124Z"/>
    </g>
  </g>
</svg>
